<?xml version="1.0" encoding="UTF-8" standalone="no"?>
<!-- Created with Inkscape (http://www.inkscape.org/) -->

<svg
   version="1.1"
   id="svg182"
   width="6280"
   height="1162"
   viewBox="0 0 6280 1162"
   sodipodi:docname="anantara-logo.svg"
   inkscape:version="1.2 (dc2aedaf03, 2022-05-15)"
   xmlns:inkscape="http://www.inkscape.org/namespaces/inkscape"
   xmlns:sodipodi="http://sodipodi.sourceforge.net/DTD/sodipodi-0.dtd"
   xmlns="http://www.w3.org/2000/svg"
   xmlns:svg="http://www.w3.org/2000/svg">
  <defs
     id="defs186" />
  <sodipodi:namedview
     id="namedview184"
     pagecolor="#ffffff"
     bordercolor="#000000"
     borderopacity="0.25"
     inkscape:showpageshadow="2"
     inkscape:pageopacity="0.0"
     inkscape:pagecheckerboard="true"
     inkscape:deskcolor="#d1d1d1"
     showgrid="false"
     inkscape:zoom="0.31723122"
     inkscape:cx="3144.3942"
     inkscape:cy="587.89927"
     inkscape:window-width="2400"
     inkscape:window-height="1261"
     inkscape:window-x="2391"
     inkscape:window-y="-9"
     inkscape:window-maximized="1"
     inkscape:current-layer="text676" />
  <g
     inkscape:groupmode="layer"
     inkscape:label="Image"
     id="g188">
    <path
       style="fill:#000000"
       d="M 3284.7469,332.87643 C 3241.6172,289.74226 3225,272.50555 3225,270.90211 c 0,-1.42995 1.0139,-2.74555 2.8463,-3.6931 6.0243,-3.11528 35.8455,-12.57498 39.6488,-12.57718 3.9236,-0.002 4.6709,0.67331 41.75,37.74277 L 3347,330.11966 3384.7549,292.3746 c 43.4186,-43.40734 37.7208,-39.89915 55.6731,-34.27867 18.7176,5.86007 28.0192,9.98171 28.4121,12.58979 0.4921,3.2662 -118.0846,121.94381 -121.8401,121.94381 -1.9804,0 -15.0411,-12.53616 -62.2531,-59.7531 z"
       id="path725" />
    <path
       id="path727"
       style="fill:#000000"
       d="M 3996 285.62891 C 3987.8703 285.62891 3985.0022 285.95508 3984.9922 286.87891 C 3984.9885 287.56641 3978.9135 326.3276 3971.4922 373.01367 C 3964.071 419.69975 3958 458.96229 3958 460.26367 C 3958 462.60681 3958.1068 462.62891 3968.873 462.62891 L 3979.7441 462.62891 L 3980.4082 458.47656 L 3981.0723 454.32422 L 3983.7871 456.86328 C 3986.9359 459.80839 3991.8282 462.43673 3997.5 464.23047 C 3999.7 464.92623 4005.775 465.50086 4011 465.50586 C 4028.8273 465.52322 4039.9932 460.70993 4052.1016 447.78906 C 4065.8861 433.07948 4072.474 411.09058 4069.0996 391.05859 C 4064.9839 366.62575 4045.9161 353.61081 4019.8086 357.41602 C 4011.8016 358.58304 4000.5024 362.95998 3996.7656 366.3418 C 3995.7945 367.2206 3995 367.65571 3995 367.30859 C 3995 366.96147 3997.7 349.74354 4001 329.04688 C 4004.3 308.3502 4007 290.11487 4007 288.52344 L 4007 285.62891 L 3996 285.62891 z M 4022.625 377.95898 C 4023.1555 377.96268 4023.6834 377.98217 4024.207 378.01562 C 4024.7307 378.04908 4025.2511 378.09696 4025.7656 378.16016 C 4026.2801 378.22335 4026.788 378.30161 4027.291 378.39453 C 4027.794 378.48745 4028.2921 378.59612 4028.7812 378.71875 C 4029.2704 378.84138 4029.7516 378.97854 4030.2246 379.13086 C 4030.6976 379.28318 4031.1627 379.45082 4031.6172 379.63281 C 4032.0717 379.81481 4032.5156 380.011 4032.9492 380.22266 C 4033.3829 380.43431 4033.8063 380.66104 4034.2168 380.90234 C 4034.7335 381.20611 4035.2354 381.52353 4035.7227 381.85352 C 4036.2099 382.1835 4036.6813 382.52533 4037.1387 382.88086 C 4037.596 383.23639 4038.0397 383.60398 4038.4668 383.98438 C 4038.8939 384.36477 4039.3047 384.75754 4039.7012 385.16211 C 4040.0977 385.56668 4040.4802 385.98404 4040.8457 386.41211 C 4041.2112 386.84018 4041.5604 387.27959 4041.8945 387.73047 C 4042.2287 388.18135 4042.5472 388.64417 4042.8496 389.11719 C 4043.152 389.5902 4043.4387 390.0739 4043.709 390.56836 C 4043.9793 391.06282 4044.2329 391.5668 4044.4707 392.08203 C 4044.7085 392.59726 4044.9298 393.12289 4045.1348 393.6582 C 4045.3397 394.19352 4045.5294 394.73825 4045.7012 395.29297 C 4045.8729 395.84769 4046.0279 396.41289 4046.166 396.98633 C 4046.3042 397.55977 4046.4251 398.1429 4046.5293 398.73438 C 4046.6335 399.32585 4046.7192 399.92632 4046.7891 400.53516 C 4046.8589 401.14399 4046.9122 401.76121 4046.9473 402.38672 C 4046.9824 403.01223 4047 403.64561 4047 404.28711 C 4047 404.65517 4046.9891 405.03807 4046.9668 405.43555 C 4046.9445 405.83302 4046.9105 406.24518 4046.8672 406.66797 C 4046.8239 407.09075 4046.7702 407.52476 4046.707 407.96875 C 4046.6438 408.41274 4046.5721 408.86704 4046.4902 409.32812 C 4046.3266 410.2503 4046.1255 411.20203 4045.8945 412.16797 C 4045.6636 413.13391 4045.4018 414.11298 4045.1133 415.08984 C 4044.8248 416.0667 4044.5102 417.04116 4044.1738 417.99609 C 4043.8375 418.95103 4043.48 419.88694 4043.1055 420.78711 C 4042.9182 421.2372 4042.7262 421.67914 4042.5312 422.10938 C 4042.3363 422.53961 4042.1371 422.95895 4041.9355 423.36523 C 4041.734 423.77152 4041.531 424.16475 4041.3242 424.54297 C 4041.1174 424.92119 4040.9082 425.28285 4040.6973 425.62891 C 4040.4691 426.0033 4040.2259 426.38198 4039.9707 426.76367 C 4039.7155 427.14536 4039.4474 427.52973 4039.168 427.91602 C 4038.8885 428.3023 4038.5978 428.6919 4038.2969 429.08008 C 4037.996 429.46826 4037.6848 429.85677 4037.3652 430.24414 C 4036.726 431.01888 4036.0528 431.78769 4035.3555 432.54297 C 4034.6581 433.29825 4033.9364 434.03972 4033.2031 434.75391 C 4032.4699 435.46809 4031.7255 436.15519 4030.9785 436.80664 C 4030.2315 437.45809 4029.4826 438.07353 4028.7441 438.64062 C 4028.3749 438.92417 4028.0075 439.19472 4027.6445 439.45312 C 4027.2816 439.71153 4026.9222 439.95695 4026.5684 440.1875 C 4026.2145 440.41805 4025.8674 440.63399 4025.5254 440.83398 C 4025.1834 441.03398 4024.8469 441.21803 4024.5195 441.38477 C 4024.0833 441.60691 4023.6448 441.81607 4023.2012 442.01172 C 4022.7575 442.20737 4022.3086 442.3904 4021.8535 442.56055 C 4021.3984 442.7307 4020.9374 442.88755 4020.4668 443.0332 C 4019.9962 443.17886 4019.5155 443.31338 4019.0254 443.43555 C 4018.5353 443.55771 4018.0351 443.66791 4017.5215 443.76758 C 4017.0079 443.86725 4016.4806 443.95697 4015.9395 444.03516 C 4015.3983 444.11334 4014.8442 444.18059 4014.2715 444.23828 C 4013.6988 444.29598 4013.1083 444.34265 4012.5 444.38086 C 4011.7185 444.42995 4011.0136 444.46875 4010.3691 444.49414 C 4009.7247 444.51953 4009.1402 444.53216 4008.5996 444.52734 C 4008.059 444.52253 4007.5617 444.5005 4007.0918 444.45898 C 4006.6219 444.41747 4006.1804 444.35621 4005.748 444.27148 C 4005.3157 444.18676 4004.8928 444.07975 4004.4648 443.94531 C 4004.0368 443.81088 4003.6033 443.64963 4003.1465 443.45898 C 4002.6896 443.26834 4002.2103 443.04829 4001.6914 442.79492 C 4001.1725 442.54156 4000.6141 442.25422 4000 441.93164 C 3999.5972 441.72002 3999.2001 441.49469 3998.8105 441.25586 C 3998.4209 441.01703 3998.0378 440.76506 3997.6621 440.5 C 3997.2864 440.23494 3996.9197 439.95634 3996.5586 439.66602 C 3996.1975 439.37569 3995.8439 439.07437 3995.498 438.75977 C 3995.1522 438.44516 3994.8142 438.11721 3994.4844 437.7793 C 3994.1545 437.44138 3993.8328 437.09268 3993.5195 436.73242 C 3993.2063 436.37217 3992.9014 436.00076 3992.6055 435.61914 C 3992.3095 435.23752 3992.0221 434.84536 3991.7441 434.44336 C 3991.4661 434.04135 3991.1969 433.6304 3990.9375 433.20898 C 3990.6781 432.78757 3990.4275 432.35588 3990.1875 431.91602 C 3989.9475 431.47616 3989.7181 431.02764 3989.498 430.57031 C 3989.278 430.11299 3989.0685 429.64765 3988.8691 429.17383 C 3988.6697 428.70001 3988.4808 428.21785 3988.3027 427.72852 C 3988.1247 427.23918 3987.9568 426.74216 3987.8008 426.23828 C 3987.6447 425.7344 3987.5006 425.22253 3987.3672 424.70508 C 3987.2338 424.18763 3987.112 423.66481 3987.002 423.13477 C 3986.9164 422.72273 3986.8427 422.29347 3986.7832 421.85156 C 3986.7237 421.40965 3986.6767 420.95452 3986.6426 420.48633 C 3986.6085 420.01813 3986.5875 419.53776 3986.5781 419.04688 C 3986.5687 418.55599 3986.5713 418.05492 3986.5859 417.54492 C 3986.6005 417.03493 3986.6281 416.51575 3986.666 415.99023 C 3986.704 415.46472 3986.7519 414.93197 3986.8125 414.39453 C 3986.8731 413.85709 3986.9447 413.31531 3987.0273 412.76953 C 3987.1099 412.22375 3987.2047 411.67553 3987.3086 411.125 C 3987.4125 410.57447 3987.5259 410.02239 3987.6504 409.4707 C 3987.7749 408.91901 3987.9102 408.36762 3988.0547 407.81836 C 3988.1992 407.26909 3988.3538 406.72098 3988.5176 406.17773 C 3988.6814 405.63449 3988.8547 405.09615 3989.0371 404.5625 C 3989.2195 404.02885 3989.411 403.50092 3989.6113 402.98047 C 3989.8116 402.46002 3990.0207 401.94703 3990.2383 401.44336 C 3990.4558 400.93969 3990.6819 400.44424 3990.916 399.96094 C 3991.1501 399.47764 3991.3926 399.00622 3991.6426 398.54688 C 3991.8817 398.10755 3992.1365 397.66598 3992.4062 397.22266 C 3992.676 396.77933 3992.96 396.3334 3993.2578 395.88867 C 3993.5556 395.44394 3993.8663 395.00019 3994.1895 394.55664 C 3994.5126 394.11309 3994.8476 393.67024 3995.1934 393.23047 C 3995.5391 392.7907 3995.8959 392.35333 3996.2617 391.91992 C 3996.6275 391.48652 3997.0036 391.05726 3997.3867 390.63281 C 3997.7698 390.20836 3998.1608 389.7879 3998.5586 389.375 C 3998.9564 388.9621 3999.3597 388.55696 3999.7695 388.1582 C 4000.1794 387.75944 4000.5945 387.36836 4001.0137 386.98633 C 4001.4329 386.6043 4001.8573 386.22989 4002.2832 385.86719 C 4002.7091 385.50448 4003.1365 385.15329 4003.5664 384.8125 C 4003.9963 384.47171 4004.4281 384.14246 4004.8594 383.82617 C 4005.2906 383.50989 4005.7224 383.20715 4006.1523 382.91797 C 4006.5823 382.62878 4007.0095 382.35325 4007.4355 382.09375 C 4007.8616 381.83425 4008.2857 381.5905 4008.7051 381.36328 C 4009.1245 381.13606 4009.5391 380.92477 4009.9492 380.73242 C 4010.4501 380.49748 4010.9579 380.27732 4011.4707 380.07227 C 4011.9835 379.86721 4012.5011 379.67714 4013.0234 379.50195 C 4013.5458 379.32677 4014.074 379.16682 4014.6035 379.02148 C 4015.133 378.87615 4015.6648 378.74635 4016.1992 378.63086 C 4016.7336 378.51537 4017.2697 378.4138 4017.8066 378.32812 C 4018.3435 378.24245 4018.8809 378.17305 4019.418 378.11719 C 4019.9551 378.06132 4020.4924 378.02022 4021.0273 377.99414 C 4021.5623 377.96806 4022.0945 377.95529 4022.625 377.95898 z " />
    <path
       style="fill:#000000"
       d="m 4068,515.72346 c 0,-2.09239 5.6465,-11.54195 20.1667,-33.74964 11.0916,-16.96397 20.1535,-31.29374 20.1375,-31.84394 -0.016,-0.55019 -6.616,-19.80375 -14.6666,-42.78569 C 4085.5869,384.36226 4079,364.21091 4079,362.56341 v -2.99544 l 12.1741,0.28078 12.174,0.28078 10.5642,31.75 c 5.8104,17.4625 10.8517,31.75 11.203,31.75 0.3513,0 9.3566,-14.38559 20.0117,-31.96798 l 19.373,-31.96798 12.3635,-0.032 12.3635,-0.032 -0.4126,2.75 c -0.2269,1.5125 -22.1991,37.2875 -48.8271,79.5 l -48.4144,76.75 H 4079.7864 4068 v -2.90607 z"
       id="path719" />
    <path
       style="fill:#000000"
       d="M 3245.2481,420.37764 C 3164.0372,339.16365 3147,321.66327 3147,319.4588 c 0,-2.10899 1.5247,-3.89351 7.2879,-8.52978 14.3305,-11.52829 23.2918,-17.29949 26.8621,-17.29949 3.0998,0 9.3122,5.96639 84.5977,81.2477 l 81.2523,81.2477 81.2523,-81.2477 c 73.0961,-73.09198 81.5668,-81.2477 84.3859,-81.2477 3.196,0 10.5102,4.73606 26.2541,17 5.9315,4.62046 7.0644,5.98006 7.0842,8.5019 0.021,2.65956 -11.1815,14.20645 -98.2284,101.25 -86.6676,86.66427 -98.6056,98.2481 -101.2519,98.2481 -2.6463,0 -14.5821,-11.58256 -101.2481,-98.25189 z"
       id="path717" />
    <path
       style="fill:#000000"
       d="m 1556.5729,-233.42216 c 0,-0.25544 -0.596,-1.06045 -1.3245,-1.7889 -1.0993,-1.09929 -1.5182,-1.01427 -2.4639,0.50011 -0.8652,1.38546 -0.8473,1.92663 0.074,2.24859 1.2863,0.44929 3.7139,-0.17808 3.7139,-0.9598 z"
       id="path715" />
    <path
       style="fill:#000000"
       d="m 872.57289,-233.26894 c 0,-0.17117 -0.2806,-1.04246 -0.62356,-1.93618 -0.56975,-1.48477 -0.78748,-1.47661 -2.52363,0.0946 -1.36127,1.23193 -1.56463,1.92687 -0.71713,2.45066 1.04872,0.64812 3.86432,0.20435 3.86432,-0.60908 z"
       id="path711" />
    <path
       style="fill:#000000;stroke-width:0.774377"
       d="m 226.02251,648.21685 c -0.27595,-2.64014 -0.52756,-8.66941 -0.55912,-13.39839 -0.0316,-4.72897 -0.29293,-10.06285 -0.58078,-11.85305 l -0.52339,-3.25489 -11.42172,10.41788 c -8.27902,7.55139 -11.95448,10.41789 -13.358,10.41789 -1.67511,0 -1.93179,-0.33947 -1.90294,-2.51673 0.0287,-2.16062 1.55319,-4.10545 10.77506,-13.74518 l 10.74172,-11.22847 -16.00211,-0.61294 c -8.80115,-0.33711 -16.43769,-0.76177 -16.97008,-0.94366 -0.53238,-0.18191 -0.96796,-1.16245 -0.96796,-2.179 0,-1.71681 0.37178,-1.88338 5.22704,-2.34194 2.87488,-0.2715 9.40868,-0.53736 14.51957,-0.59078 15.38532,-0.16082 15.15655,0.76125 3.0475,-12.2833 -8.16686,-8.79778 -10.40408,-11.67019 -10.40408,-13.35799 0,-1.82987 0.31722,-2.14986 2.12953,-2.14811 1.66218,10e-4 4.59383,2.2964 13.35801,10.45624 12.90481,12.01496 12.1262,12.06425 12.30241,-0.77858 0.0526,-3.83317 0.32062,-10.36697 0.5956,-14.51957 l 0.49998,-7.55017 h 2.12514 2.12515 l 0.56683,17.03211 0.56681,17.0321 11.42317,-10.83708 c 9.67534,-9.17893 11.79302,-10.8371 13.84035,-10.8371 2.12669,0 2.41418,0.25592 2.39229,2.12953 -0.0192,1.64487 -2.39574,4.68509 -10.44198,13.35801 -11.83432,12.75605 -11.79825,12.17257 -0.76161,12.31636 3.40726,0.0444 10.1153,0.3066 14.90676,0.5827 l 8.71174,0.50198 v 2.20481 2.20482 l -6.38861,0.0945 c -3.51374,0.0519 -11.16856,0.31332 -17.01072,0.58078 l -10.6221,0.48631 10.81422,11.61564 c 8.46035,9.08734 10.81454,12.07918 10.8157,13.7452 0.001,1.81573 -0.31758,2.12953 -2.16368,2.12953 -1.70746,0 -4.61315,-2.26194 -13.74519,-10.69997 l -11.58003,-10.69999 -0.77438,16.70141 -0.77438,16.70139 -2.01499,0.23398 c -1.93405,0.22457 -2.03517,0.0412 -2.51673,-4.56626 z"
       id="path709" />
    <path
       style="fill:#000000"
       d="M 3564.2469,612.37646 C 3524.75,572.87551 3504,551.43453 3504,550.12333 c 0,-1.31116 20.5813,-22.57918 59.7531,-61.74693 49.1949,-49.18977 60.2254,-59.74687 62.4259,-59.74687 2.4715,0 2.9813,0.79845 6.7673,10.6003 4.6779,12.11078 10.0537,29.64102 10.0537,32.78468 0,1.46275 -11.8413,13.96311 -38.0001,40.11508 l -38,37.9902 38,38.00968 c 30.3597,30.36735 38.0001,38.52843 38.0001,40.58972 0,3.04029 -5.729,21.5368 -10.7355,34.66034 -2.9184,7.65002 -3.8956,9.25 -5.6497,9.25 -1.4713,0 -20.5772,-18.45809 -62.3679,-60.25307 z"
       id="path707" />
    <path
       style="fill:#000000"
       d="M 3062.8808,667.87953 C 3058.6759,658.12794 3051,633.62058 3051,629.9472 c 0,-3.67647 1.303,-5.11127 37.7451,-41.5628 l 37.745,-37.75487 -37.745,-37.75487 c -37.0695,-37.07908 -37.7451,-37.82638 -37.7428,-41.75 0,-3.80337 9.4619,-33.62454 12.5772,-39.64883 0.9475,-1.83236 2.2631,-2.8463 3.6931,-2.8463 1.6034,0 18.8401,16.6172 61.9743,59.74687 47.2169,47.21203 59.7531,60.27269 59.7531,62.25313 0,3.47527 -118.3194,122 -121.7886,122 -1.7688,0 -2.7434,-1.06898 -4.3306,-4.75 z"
       id="path705" />
    <path
       style="fill:#000000"
       d="M 3476.2481,651.37764 C 3398.3173,573.44383 3378,552.60875 3378,550.62574 c 0,-3.70427 196.3556,-200.01475 200.0019,-199.95588 1.8946,0.0306 3.9831,1.90281 8.6451,7.75 9.6603,12.11631 17.353,23.80268 17.353,26.36201 0,1.77162 -19.8782,22.22247 -81.5,83.84767 l -81.5,81.50456 81.5,81.49542 c 61.1227,61.11924 81.5,82.07499 81.5,83.81345 0,1.27492 -0.5239,3.29694 -1.1642,4.49337 -1.6472,3.07791 -10.2917,14.98185 -16.6609,22.94319 -4.6026,5.75308 -5.8638,6.75 -8.5394,6.75 -2.8311,0 -12.7845,-9.64555 -101.3874,-98.25189 z"
       id="path703" />
    <path
       style="fill:#000000"
       d="m 3106.5,741.93593 c -11.3139,-14.3979 -16.5,-22.48581 -16.5,-25.73242 0,-2.73399 8.8786,-11.94854 81.2477,-84.32169 l 81.2477,-81.25229 -81.2477,-81.25229 C 3095.9664,394.09168 3090,387.87929 3090,384.77951 c 0,-3.57024 5.7712,-12.53155 17.2995,-26.86205 4.64,-5.76789 6.4199,-7.28793 8.5336,-7.28793 2.2095,0 19.6362,16.96614 100.9188,98.25189 86.6643,86.66762 98.2481,98.60561 98.2481,101.25191 0,2.64635 -11.5826,14.58212 -98.2519,101.2481 -87.072,87.06866 -98.593,98.24479 -101.25,98.21905 -2.5315,-0.0245 -3.932,-1.21746 -8.9981,-7.66455 z"
       id="path701" />
    <path
       style="fill:#000000"
       d="m 3168.7017,800.72487 c -17.4468,-12.63658 -21.6846,-16.36717 -21.6935,-19.09723 -0.012,-3.66724 196.3164,-199.99811 199.9956,-199.99811 1.9831,0 22.8149,20.31563 100.7481,98.25189 88.869,88.87246 98.2481,98.55352 98.2481,101.41143 0,2.77984 -1.0515,3.98838 -8.75,10.0565 -14.7037,11.58981 -21.8866,16.28018 -24.9315,16.28018 -2.4077,0 -14.8132,-11.99079 -84.3185,-81.50001 L 3346.5046,644.6295 3265,726.12952 c -66.691,66.68733 -81.9826,81.50001 -84.135,81.50001 -1.6661,0 -6.125,-2.53115 -12.1633,-6.90466 z"
       id="path699" />
    <path
       style="fill:#000000"
       d="m 3255.5,843.49801 c -5.5,-1.65967 -14.6125,-4.81816 -20.25,-7.01886 -9.4513,-3.6895 -10.25,-4.2099 -10.25,-6.67858 0,-2.20659 10.5054,-13.18157 59.7531,-62.42417 39.1666,-39.1625 60.4422,-59.74687 61.7531,-59.74687 2.8635,0 122.4938,119.75447 122.4938,122.62094 0,1.74632 -1.6117,2.72965 -9.25,5.64357 -13.14,5.01278 -31.6214,10.73549 -34.6701,10.73549 -2.0744,0 -10.1493,-7.56149 -40.58,-38.00006 l -37.9902,-38.00007 -38.0096,38.00007 c -30.1827,30.17498 -38.5235,37.98833 -40.5049,37.94309 -1.3724,-0.0313 -6.9952,-1.41488 -12.4952,-3.07455 z"
       id="path697" />
    <path
       style="fill:#000000"
       d="M 2452,550.12953 V -13.370472 h 14 14 V 550.12953 1113.6295 h -14 -14 z"
       id="path474" />
    <text
       xml:space="preserve"
       style="font-size:311.191px;font-family:'TT Ricordi Allegria Trl';-inkscape-font-specification:'TT Ricordi Allegria Trl';fill:#ffffff;stroke:#999999;stroke-width:0"
       x="4286.7417"
       y="482.58197"
       id="text300"><tspan
         sodipodi:role="line"
         id="tspan298"
         x="4286.7417"
         y="482.58197"
         style="font-style:normal;font-variant:normal;font-weight:normal;font-stretch:normal;font-family:'Riviera Nights Trial';-inkscape-font-specification:'Riviera Nights Trial';fill:#000000;stroke-width:0">AUREUM</tspan></text>
    <text
       xml:space="preserve"
       style="font-size:331.151px;font-family:'TT Ricordi Allegria Trl';-inkscape-font-specification:'TT Ricordi Allegria Trl';fill:#ffffff;stroke:#999999;stroke-width:0"
       x="4293.3867"
       y="819.69025"
       id="text408"><tspan
         sodipodi:role="line"
         id="tspan406"
         x="4293.3867"
         y="819.69025"
         style="font-style:normal;font-variant:normal;font-weight:normal;font-stretch:normal;font-family:'Riviera Nights Trial';-inkscape-font-specification:'Riviera Nights Trial';fill:#000000;stroke-width:0">SKINCARE</tspan></text>
    <g
       aria-label="ANANTARA"
       transform="matrix(0.97570791,0,0,1.1903501,-7.2895958,56.339659)"
       id="text676"
       style="font-size:402.777px;font-family:'TT Ricordi Allegria Trl';-inkscape-font-specification:'TT Ricordi Allegria Trl';fill:#ffffff;stroke:#999999;stroke-width:0">
      <g
         id="g924"
         transform="translate(607.38226)">
        <path
           id="path920"
           style="font-family:'Riviera Nights Trial';-inkscape-font-specification:'Riviera Nights Trial';fill:#000000"
           d="M 494.8656,347.8856 674.76303,559.27134 V 245.50796 H 637.70861 V 465.82785 L 451.62376,245.50796 h -30.20643 v 8.86195 z" />
        <path
           id="path922"
           style="font-family:'Riviera Nights Trial';-inkscape-font-specification:'Riviera Nights Trial';fill:#000000;stroke-width:0"
           d="M 463.03742,293.50788 V 547.5905 h 24.13139 V 322.14843 Z"
           sodipodi:nodetypes="ccccc" />
      </g>
      <path
         id="path812"
         style="font-family:'Riviera Nights Trial';-inkscape-font-specification:'Riviera Nights Trial';fill:#000000"
         d="m 2204.4351,227.91655 -138.9572,315.77704 h 37.0557 l 39.8753,-91.43101 h -0.022 l -9.162,21.00724 50.9119,-119.9075 1.111,0.31652 -28.7652,65.95885 h 0.4249 l 46.7225,-107.1387 17.9573,41.17985 1.111,-0.31652 50.9119,119.9075 30.7132,70.42377 h 39.8754 z" />
      <path
         id="path810"
         style="font-family:'Riviera Nights Trial';-inkscape-font-specification:'Riviera Nights Trial';fill:#000000"
         d="m 1668.2407,225.0626 -138.9572,315.77704 h 37.0557 l 39.8753,-91.43101 h -0.022 l -9.162,21.00724 50.9119,-119.9075 1.111,0.31652 -28.7652,65.95885 h 0.4249 l 46.7225,-107.1387 17.9573,41.17985 1.111,-0.31652 50.9119,119.9075 30.7132,70.42377 h 39.8754 z" />
      <path
         id="path805"
         style="font-family:'Riviera Nights Trial';-inkscape-font-specification:'Riviera Nights Trial';fill:#000000"
         d="M 851.8949,228.95977 712.93771,544.73681 h 37.05569 l 39.87525,-91.43101 h -0.0216 l -9.16198,21.00724 50.91192,-119.9075 1.111,0.31652 -28.76524,65.95885 h 0.42499 l 46.72247,-107.1387 17.95724,41.17985 1.111,-0.31652 50.91192,119.9075 30.71327,70.42377 h 39.87531 z" />
      <path
         id="path795"
         style="font-family:'Riviera Nights Trial';-inkscape-font-specification:'Riviera Nights Trial';fill:#000000"
         d="M 242.58312,231.81372 103.62593,547.59076 h 37.05569 l 39.87525,-91.43101 h -0.0216 l -9.16198,21.00724 50.91192,-119.9075 1.111,0.31652 -28.76524,65.95885 h 0.42499 l 46.72247,-107.1387 17.95724,41.17985 1.111,-0.31652 50.91192,119.9075 30.71327,70.42377 h 39.87525 z" />
      <path
         id="path803"
         style="font-family:'Riviera Nights Trial';-inkscape-font-specification:'Riviera Nights Trial';fill:#000000"
         d="M 242.58312,231.81372 103.62593,547.59076 h 37.05569 l 39.87525,-91.43101 h -0.0216 l -9.16198,21.00724 50.91192,-119.9075 1.111,0.31652 -28.76524,65.95885 h 0.42499 l 46.72247,-107.1387 17.95724,41.17985 1.111,-0.31652 50.91192,119.9075 30.71327,70.42377 h 39.87525 z" />
      <g
         id="g918">
        <path
           id="path680"
           style="font-family:'Riviera Nights Trial';-inkscape-font-specification:'Riviera Nights Trial';fill:#000000"
           d="M 494.8656 347.8856 L 674.76303 559.27134 L 674.76303 245.50796 L 637.70861 245.50796 L 637.70861 465.82785 L 451.62376 245.50796 L 421.41733 245.50796 L 421.41733 254.36991 L 494.8656 347.8856 z " />
        <path
           id="path913"
           style="font-family:'Riviera Nights Trial';-inkscape-font-specification:'Riviera Nights Trial';fill:#000000;stroke-width:0"
           d="M 463.03742,293.50788 V 547.5905 h 24.13139 V 322.14843 Z"
           sodipodi:nodetypes="ccccc" />
      </g>
      <path
         d="m 1428.3582,547.59082 h 37.0555 V 278.133 h 100.2915 V 245.50806 H 1328.0667 V 278.133 h 100.2915 z"
         style="font-family:'Riviera Nights Trial';-inkscape-font-specification:'Riviera Nights Trial';fill:#000000"
         id="path686" />
      <path
         d="m 2019.6346,330.09124 c 0,-43.09714 -28.1944,-84.58318 -105.1248,-84.58318 h -66.4582 v 302.08276 h 37.0555 V 414.27163 h 33.4305 l 106.3331,133.31919 h 46.7221 L 1959.2181,407.02164 c 31.4166,-10.87497 60.4165,-34.23604 60.4165,-76.9304 z M 1914.107,278.133 c 39.875,0 66.861,15.70831 66.861,51.95824 0,35.84715 -26.986,51.55545 -66.861,51.55545 h -28.9999 V 278.133 Z"
         style="font-family:'Riviera Nights Trial';-inkscape-font-specification:'Riviera Nights Trial';fill:#000000"
         id="path690" />
    </g>
    <path
       style="fill:#000000;stroke-width:0.774377"
       d="m 815.89383,648.21685 c -0.27595,-2.64014 -0.52756,-8.66941 -0.55913,-13.39839 -0.0316,-4.72897 -0.29292,-10.06285 -0.58078,-11.85305 l -0.52338,-3.25489 -11.42172,10.41788 c -8.27902,7.55139 -11.95449,10.41789 -13.35801,10.41789 -1.67511,0 -1.93178,-0.33947 -1.90293,-2.51673 0.0287,-2.16062 1.55319,-4.10545 10.77505,-13.74518 l 10.74172,-11.22847 -16.0021,-0.61294 c -8.80116,-0.33711 -16.4377,-0.76177 -16.97008,-0.94366 -0.53238,-0.18191 -0.96797,-1.16245 -0.96797,-2.179 0,-1.71681 0.37179,-1.88338 5.22705,-2.34194 2.87487,-0.2715 9.40868,-0.53736 14.51957,-0.59078 15.38532,-0.16082 15.15654,0.76125 3.04749,-12.2833 -8.16685,-8.79778 -10.40408,-11.67019 -10.40408,-13.35799 0,-1.82987 0.31722,-2.14986 2.12953,-2.14811 1.66218,10e-4 4.59383,2.2964 13.35801,10.45624 12.90482,12.01496 12.1262,12.06425 12.30242,-0.77858 0.0526,-3.83317 0.32061,-10.36697 0.5956,-14.51957 l 0.49997,-7.55017 h 2.12515 2.12515 l 0.56682,17.03211 0.56682,17.0321 11.42317,-10.83708 c 9.67534,-9.17893 11.79302,-10.8371 13.84034,-10.8371 2.1267,0 2.41419,0.25592 2.3923,2.12953 -0.0192,1.64487 -2.39575,4.68509 -10.44198,13.35801 -11.83433,12.75605 -11.79826,12.17257 -0.76161,12.31636 3.40726,0.0444 10.1153,0.3066 14.90675,0.5827 l 8.71174,0.50198 v 2.20481 2.20482 l -6.38861,0.0945 c -3.51373,0.0519 -11.16855,0.31332 -17.01071,0.58078 l -10.6221,0.48631 10.81422,11.61564 c 8.46034,9.08734 10.81453,12.07918 10.8157,13.7452 10e-4,1.81573 -0.31758,2.12953 -2.16369,2.12953 -1.70745,0 -4.61314,-2.26194 -13.74518,-10.69997 l -11.58003,-10.69999 -0.77438,16.70141 -0.77438,16.70139 -2.015,0.23398 c -1.93405,0.22457 -2.03517,0.0412 -2.51672,-4.56626 z"
       id="path814" />
    <path
       style="fill:#000000;stroke-width:0.774377"
       d="m 1614.2363,648.21685 c -0.276,-2.64014 -0.5275,-8.66941 -0.5591,-13.39839 -0.031,-4.72897 -0.2929,-10.06285 -0.5808,-11.85305 l -0.5234,-3.25489 -11.4217,10.41788 c -8.2791,7.55139 -11.9544,10.41789 -13.358,10.41789 -1.6751,0 -1.9318,-0.33947 -1.9029,-2.51673 0.029,-2.16062 1.5531,-4.10545 10.775,-13.74518 l 10.7418,-11.22847 -16.0021,-0.61294 c -8.8013,-0.33711 -16.4377,-0.76177 -16.9701,-0.94366 -0.5324,-0.18191 -0.968,-1.16245 -0.968,-2.179 0,-1.71681 0.3718,-1.88338 5.227,-2.34194 2.8749,-0.2715 9.4087,-0.53736 14.5195,-0.59078 15.3854,-0.16082 15.1567,0.76125 3.0476,-12.2833 -8.1668,-8.79778 -10.4041,-11.67019 -10.4041,-13.35799 0,-1.82987 0.3172,-2.14986 2.1295,-2.14811 1.6622,10e-4 4.5939,2.2964 13.3581,10.45624 12.9048,12.01496 12.1261,12.06425 12.3023,-0.77858 0.053,-3.83317 0.3206,-10.36697 0.5957,-14.51957 l 0.4999,-7.55017 h 2.1252 2.1251 l 0.5668,17.03211 0.5669,17.0321 11.4232,-10.83708 c 9.6753,-9.17893 11.793,-10.8371 13.8403,-10.8371 2.1267,0 2.4141,0.25592 2.3923,2.12953 -0.019,1.64487 -2.3958,4.68509 -10.442,13.35801 -11.8343,12.75605 -11.7983,12.17257 -0.7616,12.31636 3.4073,0.0444 10.1153,0.3066 14.9068,0.5827 l 8.7116,0.50198 v 2.20481 2.20482 l -6.3886,0.0945 c -3.5137,0.0519 -11.1685,0.31332 -17.0107,0.58078 l -10.622,0.48631 10.8142,11.61564 c 8.4603,9.08734 10.8145,12.07918 10.8157,13.7452 0,1.81573 -0.3176,2.12953 -2.1637,2.12953 -1.7074,0 -4.6131,-2.26194 -13.7452,-10.69997 l -11.58,-10.69999 -0.7744,16.70141 -0.7744,16.70139 -2.0149,0.23398 c -1.9341,0.22457 -2.0353,0.0412 -2.5168,-4.56626 z"
       id="path816" />
    <path
       style="fill:#000000;stroke-width:0.774377"
       d="m 2140.8026,648.21685 c -0.276,-2.64014 -0.5275,-8.66941 -0.5591,-13.39839 -0.031,-4.72897 -0.2929,-10.06285 -0.5808,-11.85305 l -0.5234,-3.25489 -11.4217,10.41788 c -8.2791,7.55139 -11.9545,10.41789 -13.3581,10.41789 -1.675,0 -1.9317,-0.33947 -1.9029,-2.51673 0.029,-2.16062 1.5532,-4.10545 10.7751,-13.74518 l 10.7417,-11.22847 -16.0021,-0.61294 c -8.8012,-0.33711 -16.4377,-0.76177 -16.9701,-0.94366 -0.5323,-0.18191 -0.9679,-1.16245 -0.9679,-2.179 0,-1.71681 0.3718,-1.88338 5.227,-2.34194 2.8749,-0.2715 9.4086,-0.53736 14.5195,-0.59078 15.3854,-0.16082 15.1567,0.76125 3.0475,-12.2833 -8.1668,-8.79778 -10.4041,-11.67019 -10.4041,-13.35799 0,-1.82987 0.3173,-2.14986 2.1296,-2.14811 1.6622,10e-4 4.5939,2.2964 13.358,10.45624 12.9048,12.01496 12.1262,12.06425 12.3024,-0.77858 0.053,-3.83317 0.3206,-10.36697 0.5956,-14.51957 l 0.5,-7.55017 h 2.1252 2.1251 l 0.5668,17.03211 0.5669,17.0321 11.4231,-10.83708 c 9.6754,-9.17893 11.7931,-10.8371 13.8404,-10.8371 2.1267,0 2.4141,0.25592 2.3922,2.12953 -0.019,1.64487 -2.3957,4.68509 -10.4419,13.35801 -11.8343,12.75605 -11.7983,12.17257 -0.7616,12.31636 3.4073,0.0444 10.1153,0.3066 14.9067,0.5827 l 8.7117,0.50198 v 2.20481 2.20482 l -6.3886,0.0945 c -3.5137,0.0519 -11.1685,0.31332 -17.0107,0.58078 l -10.622,0.48631 10.8142,11.61564 c 8.4603,9.08734 10.8144,12.07918 10.8156,13.7452 0,1.81573 -0.3176,2.12953 -2.1637,2.12953 -1.7074,0 -4.6131,-2.26194 -13.7451,-10.69997 l -11.58,-10.69999 -0.7745,16.70141 -0.7743,16.70139 -2.015,0.23398 c -1.934,0.22457 -2.0352,0.0412 -2.5167,-4.56626 z"
       id="path818" />
  </g>
</svg>
