<?xml version="1.0" encoding="UTF-8" standalone="no"?>
<!-- Created with Inkscape (http://www.inkscape.org/) -->
<svg
   width="150mm"
   height="150mm"
   viewBox="0 0 150 150"
   version="1.1"
   id="svg1212"
   xmlns="http://www.w3.org/2000/svg"
   xmlns:svg="http://www.w3.org/2000/svg">
  <defs
     id="defs1209" />
  <g
     id="layer1">
    <path
       style="fill:#c87137;stroke-width:0.473723"
       d="m 15.215618,145.50636 c -2.07027,-0.45399 -2.502605,-2.10199 -0.551451,-2.10199 1.993494,0 5.901255,-2.29957 7.726041,-4.54648 2.388762,-2.94135 4.307988,-7.55143 7.940882,-19.07442 4.711994,-14.94575 7.374864,-20.245366 13.248851,-26.367827 2.523853,-2.630598 4.301297,-3.974257 7.198565,-5.441652 5.530161,-2.800913 7.210488,-3.180311 14.218292,-3.210261 7.856136,-0.0325 10.601549,0.408572 10.601549,1.707271 0,0.653513 -0.319107,0.944735 -1.037106,0.946663 -2.204914,00.0057 -4.671564,1.123764 -6.580765,2.982532 -2.819389,2.745017 -5.132308,8.016787 -9.434719,21.504384 -2.025869,6.35087 -4.503787,13.24302 -5.506483,15.31591 -4.330719,8.95295 -9.530538,13.95625 -17.690326,17.0217 -2.972369,1.11667 -4.10661,1.25719 -11.145071,1.38006 -4.309761,0.0747 -8.354483,0.023 -8.988269,-0.11566 z m 75.132724,-1.61511 c 0,-0.93341 0.307299,-0.97376 7.424958,-0.97376 h 7.42496 l -0.29737,-1.25145 c -0.16352,-0.68816 -1.65844,-4.90562 -3.32202,-9.37206 C 93.466239,110.51308 90.627747,102.9002 89.202208,99.099644 88.348476,96.823548 86.306999,91.346323 84.665594,86.928034 83.02419,82.509734 80.497591,75.717945 79.05093,71.835215 72.064625,53.084396 68.716374,44.066383 67.710536,41.291565 67.105298,39.621902 66.48851,38.252593 66.339891,38.248677 c -0.14862,-00.004 -1.347468,2.786234 -2.664087,6.200377 -2.856081,7.406055 -2.988254,7.650517 -3.930433,7.268622 -0.574586,-0.232896 -0.636467,-0.540736 -0.28342,-1.409867 1.24062,-3.053667 170.000975,-44.7648877 17.679884,-46.7914582 0.801376,-2.3921253 1.899474,-0.1978386 8.119176,16.2242532 3.498896,9.238271 11.862033,31.256747 18.584749,48.929936 6.72271,17.6732 14.54152,38.26759 17.37513,45.7653 2.83361,7.49774 5.83823,15.38496 6.67693,17.52716 0.83869,2.14221 2.11898,5.48062 2.84509,7.41869 l 1.32026,3.52378 6.56834,00.006 c 6.25916,00.006 6.56835,0.0507 6.56835,0.97968 0,0.9628 -0.30735,0.97376 -27.42575,0.97376 -27.118446,0 -27.42574,-0.0103 -27.42574,-0.97376 z"
       id="path517" />
  </g>
</svg>
