<?xml version="1.0" encoding="UTF-8" standalone="no"?>
<svg
   width="191"
   height="47"
   viewBox="0 0 191 47"
   fill="none"
   version="1.1"
   id="svg11047"
   xml:space="preserve"
   xmlns="http://www.w3.org/2000/svg"
   xmlns:svg="http://www.w3.org/2000/svg"><defs
     id="defs11051" /><g
     aria-label="Anantara"
     transform="matrix(0.95497749,0,0,1.0471451,2.5103683,1.2759208)"
     id="text11172"
     style="font-size:38.3126px;font-family:Montserrat;-inkscape-font-specification:Montserrat;text-align:center;text-anchor:middle;fill:#000000;stroke-width:0"><path
       d="m 57.192851,9.0853846 11.49378,26.7805064 -1.992255,-0.114937 -2.030568,0.114937 Q 63.284554,31.919694 62.326739,29.506 61.713738,27.973496 60.640985,25.52149 h -9.7314 q -2.222131,5.555327 -2.490319,6.321579 -0.574689,1.532504 -1.302628,4.022822 L 45.699071,35.750954 44.35813,35.865891 56.311661,9.0853846 Z m 2.873445,14.8269764 -4.252698,-9.808026 -4.176074,9.808026 z"
       style="font-family:Optima;-inkscape-font-specification:'Optima weight=550';fill:#000000"
       id="path971" /><path
       d="M 72.249696,35.865891 V 17.552469 l 1.532504,0.114938 1.532504,-0.114938 v 3.486447 q 0.996127,-1.76238 2.566944,-2.720195 1.609129,-0.996128 3.601384,-0.996128 3.256571,0 4.71245,1.800693 1.455879,1.800692 1.455879,5.670264 v 11.072341 l -1.532504,-0.114937 -1.532504,0.114937 V 25.67474 q 0,-3.065008 -0.766252,-4.520887 -0.996128,-1.839004 -3.486447,-1.839004 -2.835132,0 -4.022823,2.06888 -0.996127,1.76238 -0.996127,5.593639 v 8.888523 L 73.7822,35.750954 Z"
       style="font-family:Optima;-inkscape-font-specification:'Optima weight=550';fill:#000000"
       id="path973" /><path
       d="m 106.42453,23.75911 v 8.888523 q 0,0.574689 0,1.111066 0.11493,0.804564 1.03444,0.804564 0.49806,0 1.11106,-0.15325 v 0.842877 q -0.19156,0.07662 -0.57469,0.229875 -0.34481,0.114938 -0.80456,0.191563 -0.42144,0.07663 -1.03444,0.07663 -1.11107,0 -1.83901,-0.536377 -0.68962,-0.536376 -0.84288,-1.800692 l -0.34481,0.344814 q -2.41369,2.413693 -5.670263,2.413693 -2.107193,0 -3.601385,-1.302628 -1.494191,-1.302628 -1.494191,-3.371509 0,-2.911757 2.183818,-4.176073 1.340941,-0.766252 4.904013,-1.340941 2.490318,-0.421439 3.141638,-0.766252 0.9195,-0.498064 0.9195,-1.800692 0,-2.145506 -1.18769,-3.294884 -1.14938,-1.18769 -3.294887,-1.18769 -1.839004,0 -3.218258,0.996127 -1.072753,0.766252 -1.340941,1.647442 H 94.049555 V 19.42979 q 1.494192,-1.03444 2.988383,-1.570816 1.532504,-0.536377 3.179942,-0.536377 6.20665,0 6.20665,6.436517 z m -3.06501,8.160584 v -5.59364 l -1.34094,0.268188 q -3.3332,0.651315 -4.21439,1.034441 -2.298756,1.03444 -2.298756,3.333196 0,1.762379 0.996128,2.681882 0.996127,0.919502 2.758507,0.919502 0.727939,0 1.609131,-0.421438 0.88119,-0.459752 1.45588,-1.034441 0.3065,-0.268188 0.65131,-0.613001 0.38313,-0.383126 0.38313,-0.574689 z"
       style="font-family:Optima;-inkscape-font-specification:'Optima weight=550';fill:#000000"
       id="path975" /><path
       d="M 112.70779,35.865891 V 17.552469 l 1.5325,0.114938 1.53251,-0.114938 v 3.486447 q 0.99612,-1.76238 2.56694,-2.720195 1.60913,-0.996128 3.60138,-0.996128 3.25657,0 4.71245,1.800693 1.45588,1.800692 1.45588,5.670264 v 11.072341 l -1.5325,-0.114937 -1.53251,0.114937 V 25.67474 q 0,-3.065008 -0.76625,-4.520887 -0.99613,-1.839004 -3.48644,-1.839004 -2.83514,0 -4.02283,2.06888 -0.99612,1.76238 -0.99612,5.593639 v 8.888523 l -1.53251,-0.114937 z"
       style="font-family:Optima;-inkscape-font-specification:'Optima weight=550';fill:#000000"
       id="path977" /><path
       id="path979"
       style="font-family:Optima;-inkscape-font-specification:'Optima weight=550';fill:#000000"
       d="m 136.88291,12.572742 -3.06576,1.186261 v 16.398754 c 0,2.273213 0.37189,3.868443 1.11259,4.787944 0.66409,0.817335 1.76232,1.227296 3.29483,1.227296 0.56191,0 1.08542,-0.06441 1.57072,-0.192115 0.48529,-0.102167 1.03338,-0.26813 1.64639,-0.498006 v -0.919539 c -0.1788,0.02554 -0.44618,0.07632 -0.80377,0.152946 -0.33204,0.07662 -0.63938,0.115642 -0.92034,0.115642 -1.20046,0 -2.01799,-0.550536 -2.4522,-1.648829 -0.25542,-0.664084 -0.38246,-1.775051 -0.38246,-3.333095 v -1.22543 -9.616922 h 4.06178 c -0.0511,-0.255417 -0.0777,-0.472159 -0.0777,-0.650951 0,-0.178793 0.0266,-0.446314 0.0777,-0.803897 h -4.06178 z" /><path
       d="m 157.53352,23.75911 v 8.888523 q 0,0.574689 0,1.111066 0.11494,0.804564 1.03444,0.804564 0.49806,0 1.11106,-0.15325 v 0.842877 q -0.19156,0.07662 -0.57468,0.229875 -0.34482,0.114938 -0.80457,0.191563 -0.42144,0.07663 -1.03444,0.07663 -1.11107,0 -1.839,-0.536377 -0.68963,-0.536376 -0.84288,-1.800692 l -0.34481,0.344814 q -2.4137,2.413693 -5.67027,2.413693 -2.10719,0 -3.60138,-1.302628 -1.4942,-1.302628 -1.4942,-3.371509 0,-2.911757 2.18382,-4.176073 1.34094,-0.766252 4.90402,-1.340941 2.49031,-0.421439 3.14163,-0.766252 0.9195,-0.498064 0.9195,-1.800692 0,-2.145506 -1.18769,-3.294884 -1.14938,-1.18769 -3.29488,-1.18769 -1.83901,0 -3.21826,0.996127 -1.07275,0.766252 -1.34094,1.647442 h -0.42144 V 19.42979 q 1.49419,-1.03444 2.98838,-1.570816 1.53251,-0.536377 3.17995,-0.536377 6.20664,0 6.20664,6.436517 z m -3.06501,8.160584 v -5.59364 l -1.34094,0.268188 q -3.3332,0.651315 -4.21439,1.034441 -2.29875,1.03444 -2.29875,3.333196 0,1.762379 0.99613,2.681882 0.99612,0.919502 2.7585,0.919502 0.72794,0 1.60913,-0.421438 0.88119,-0.459752 1.45588,-1.034441 0.3065,-0.268188 0.65131,-0.613001 0.38313,-0.383126 0.38313,-0.574689 z"
       style="font-family:Optima;-inkscape-font-specification:'Optima weight=550';fill:#000000"
       id="path981" /><path
       d="M 163.89341,35.865891 V 17.552469 l 1.5325,0.114938 1.5325,-0.114938 v 3.83126 l 0.19157,-0.459751 q 1.03444,-1.647442 2.1455,-2.528632 1.34094,-1.072753 2.68188,-1.072753 0.76626,0 1.1877,0.191563 l -0.53638,3.218259 q -0.19156,-0.03831 -0.80457,-0.306501 -0.613,-0.306501 -0.99612,-0.306501 -0.65132,0 -1.34094,0.268188 -0.68963,0.229876 -1.11107,0.689627 -0.88119,1.03444 -1.14938,2.107193 -0.26819,1.072753 -0.26819,2.758507 v 9.922963 l -1.5325,-0.114937 z"
       style="font-family:Optima;-inkscape-font-specification:'Optima weight=550';fill:#000000"
       id="path983" /><path
       d="m 189.44792,23.75911 v 8.888523 q 0,0.574689 0,1.111066 0.11493,0.804564 1.03444,0.804564 0.49806,0 1.11106,-0.15325 v 0.842877 q -0.19156,0.07662 -0.57469,0.229875 -0.34481,0.114938 -0.80456,0.191563 -0.42144,0.07663 -1.03444,0.07663 -1.11107,0 -1.83901,-0.536377 -0.68962,-0.536376 -0.84287,-1.800692 l -0.34482,0.344814 q -2.41369,2.413693 -5.67026,2.413693 -2.10719,0 -3.60139,-1.302628 -1.49419,-1.302628 -1.49419,-3.371509 0,-2.911757 2.18382,-4.176073 1.34094,-0.766252 4.90401,-1.340941 2.49032,-0.421439 3.14164,-0.766252 0.9195,-0.498064 0.9195,-1.800692 0,-2.145506 -1.18769,-3.294884 -1.14938,-1.18769 -3.29488,-1.18769 -1.83901,0 -3.21826,0.996127 -1.07276,0.766252 -1.34094,1.647442 h -0.42144 V 19.42979 q 1.49419,-1.03444 2.98838,-1.570816 1.5325,-0.536377 3.17995,-0.536377 6.20664,0 6.20664,6.436517 z m -3.06501,8.160584 v -5.59364 l -1.34094,0.268188 q -3.3332,0.651315 -4.21439,1.034441 -2.29875,1.03444 -2.29875,3.333196 0,1.762379 0.99612,2.681882 0.99613,0.919502 2.75851,0.919502 0.72794,0 1.60913,-0.421438 0.88119,-0.459752 1.45588,-1.034441 0.3065,-0.268188 0.65131,-0.613001 0.38313,-0.383126 0.38313,-0.574689 z"
       style="font-family:Optima;-inkscape-font-specification:'Optima weight=550';fill:#000000"
       id="path985" /></g><path
     style="fill:#000000;stroke-width:0.362019"
     d="M 3.8784919,43.05167 C 2.383624,42.852202 2.381195,42.849368 3.3712035,42.459869 c 1.374244,-0.54067 2.0019002,-1.485329 3.3993488,-5.116217 2.2971617,-5.968545 4.4739007,-7.867407 9.0305427,-7.877728 2.483109,-0.0056 3.368467,0.422118 1.686034,0.814574 -1.103073,0.257311 -1.828794,1.442905 -3.426778,5.59826 -0.719771,1.871674 -1.750796,3.941776 -2.291164,4.600225 -1.685523,2.053839 -4.6167663,3.009542 -7.8906951,2.572687 z M 22.466487,42.722452 c 0,-0.191955 0.760418,-0.349007 1.689818,-0.349007 0.929399,0 1.689818,-0.111693 1.689818,-0.248208 0,-0.516046 -9.535503,-22.78626 -9.756461,-22.78626 -0.127364,0 -0.445438,0.549686 -0.70683,1.221525 -0.261393,0.671839 -0.63557,1.221525 -0.831507,1.221525 -0.195936,0 -0.129915,-0.510423 0.146713,-1.134274 0.276629,-0.62385 1.322389,-3.058174 2.32391,-5.409609 1.001522,-2.351435 1.943429,-4.275337 2.093127,-4.275337 0.330918,0 1.307121,2.156787 8.411759,18.584628 l 5.546933,12.82601 h 1.643389 c 0.903863,0 1.643388,0.157052 1.643388,0.349007 0,0.220094 -2.566019,0.349007 -6.947029,0.349007 -4.381008,0 -6.947028,-0.128913 -6.947028,-0.349007 z"
     id="path611" /><rect
     style="fill:#000000;stroke-width:0"
     id="rect725"
     width="0.51036829"
     height="23.476942"
     x="39.043175"
     y="15.320742" /></svg>
