<?xml version="1.0" encoding="UTF-8" standalone="no"?>
<svg
   width="191"
   height="47"
   viewBox="0 0 191 47"
   fill="none"
   version="1.1"
   id="svg11047"
   xml:space="preserve"
   xmlns="http://www.w3.org/2000/svg"
   xmlns:svg="http://www.w3.org/2000/svg"><defs
     id="defs11051" /><path
     d="m 187.18036,41.928479 c 0,0.485 0,0.9094 0,1.3338 0.385,0 1.273,0 1.273,-0.6972 0,-0.6366 -0.681,-0.6366 -1.273,-0.6366 z m 2.28,3.3345 c -0.119,0 -0.208,-0.0303 -0.356,-0.0303 -0.118,0 -0.237,0.0303 -0.444,0.0303 -0.592,-0.8791 -1.066,-1.3641 -1.392,-1.7582 h -0.118 c 0,0.5457 0,0.9701 0.059,1.7582 -0.148,0 -0.207,-0.0303 -0.385,-0.0303 -0.177,0 -0.237,0.0303 -0.325,0.0303 0.029,-0.394 0.059,-0.8184 0.059,-1.8794 0,-0.9094 -0.03,-1.3338 -0.03,-1.7279 0.267,0 0.444,0 0.859,0 0.859,0 1.747,0 1.747,0.8488 0,0.7578 -0.8,0.8791 -1.155,0.9094 0.237,0.3334 1.303,1.546 1.51,1.7885 z m -1.688,-4.3348 c -1.421,0 -2.517,1.1519 -2.517,2.6069 0,1.4854 1.066,2.607 2.517,2.607 1.451,0 2.517,-1.1216 2.517,-2.607 0.029,-1.4247 -10.007,-2.6069 -2.517,-2.6069 z m 0,-0.576 c 1.747,0 3.109,1.4247 3.109,3.1829 0,1.7886 -1.392,3.183 -3.109,3.183 -1.718,0 -3.109,-1.3944 -3.109,-3.183 0.029,-1.7885 1.421,-3.1829 3.109,-3.1829 z"
     fill="#FFFEF2"
     id="path11045"
     style="fill:#ffffff" /><g
     aria-label="Anantara"
     transform="matrix(0.95497749,0,0,1.0471451,2,0)"
     id="text11172"
     style="font-size:38.3126px;font-family:Montserrat;-inkscape-font-specification:Montserrat;text-align:center;text-anchor:middle;fill:#ffffff;stroke-width:0"><path
       d="m 57.192851,9.0853846 11.49378,26.7805064 -1.992255,-0.114937 -2.030568,0.114937 Q 63.284554,31.919694 62.326739,29.506 61.713738,27.973496 60.640985,25.52149 h -9.7314 q -2.222131,5.555327 -2.490319,6.321579 -0.574689,1.532504 -1.302628,4.022822 L 45.699071,35.750954 44.35813,35.865891 56.311661,9.0853846 Z m 2.873445,14.8269764 -4.252698,-9.808026 -4.176074,9.808026 z"
       style="font-family:Optima;-inkscape-font-specification:'Optima weight=550';fill:#ffffff"
       id="path971" /><path
       d="M 72.249696,35.865891 V 17.552469 l 1.532504,0.114938 1.532504,-0.114938 v 3.486447 q 0.996127,-1.76238 2.566944,-2.720195 1.609129,-0.996128 3.601384,-0.996128 3.256571,0 4.71245,1.800693 1.455879,1.800692 1.455879,5.670264 v 11.072341 l -1.532504,-0.114937 -1.532504,0.114937 V 25.67474 q 0,-3.065008 -0.766252,-4.520887 -0.996128,-1.839004 -3.486447,-1.839004 -2.835132,0 -4.022823,2.06888 -0.996127,1.76238 -0.996127,5.593639 v 8.888523 L 73.7822,35.750954 Z"
       style="font-family:Optima;-inkscape-font-specification:'Optima weight=550';fill:#ffffff"
       id="path973" /><path
       d="m 106.42453,23.75911 v 8.888523 q 0,0.574689 0,1.111066 0.11493,0.804564 1.03444,0.804564 0.49806,0 1.11106,-0.15325 v 0.842877 q -0.19156,0.07662 -0.57469,0.229875 -0.34481,0.114938 -0.80456,0.191563 -0.42144,0.07663 -1.03444,0.07663 -1.11107,0 -1.83901,-0.536377 -0.68962,-0.536376 -0.84288,-1.800692 l -0.34481,0.344814 q -2.41369,2.413693 -5.670263,2.413693 -2.107193,0 -3.601385,-1.302628 -1.494191,-1.302628 -1.494191,-3.371509 0,-2.911757 2.183818,-4.176073 1.340941,-0.766252 4.904013,-1.340941 2.490318,-0.421439 3.141638,-0.766252 0.9195,-0.498064 0.9195,-1.800692 0,-2.145506 -1.18769,-3.294884 -1.14938,-1.18769 -3.294887,-1.18769 -1.839004,0 -3.218258,0.996127 -1.072753,0.766252 -1.340941,1.647442 H 94.049555 V 19.42979 q 1.494192,-1.03444 2.988383,-1.570816 1.532504,-0.536377 3.179942,-0.536377 6.20665,0 6.20665,6.436517 z m -3.06501,8.160584 v -5.59364 l -1.34094,0.268188 q -3.3332,0.651315 -4.21439,1.034441 -2.298756,1.03444 -2.298756,3.333196 0,1.762379 0.996128,2.681882 0.996127,0.919502 2.758507,0.919502 0.727939,0 1.609131,-0.421438 0.88119,-0.459752 1.45588,-1.034441 0.3065,-0.268188 0.65131,-0.613001 0.38313,-0.383126 0.38313,-0.574689 z"
       style="font-family:Optima;-inkscape-font-specification:'Optima weight=550';fill:#ffffff"
       id="path975" /><path
       d="M 112.70779,35.865891 V 17.552469 l 1.5325,0.114938 1.53251,-0.114938 v 3.486447 q 0.99612,-1.76238 2.56694,-2.720195 1.60913,-0.996128 3.60138,-0.996128 3.25657,0 4.71245,1.800693 1.45588,1.800692 1.45588,5.670264 v 11.072341 l -1.5325,-0.114937 -1.53251,0.114937 V 25.67474 q 0,-3.065008 -0.76625,-4.520887 -0.99613,-1.839004 -3.48644,-1.839004 -2.83514,0 -4.02283,2.06888 -0.99612,1.76238 -0.99612,5.593639 v 8.888523 l -1.53251,-0.114937 z"
       style="font-family:Optima;-inkscape-font-specification:'Optima weight=550';fill:#ffffff"
       id="path977" /><path
       d="m 133.81803,13.759522 3.06501,-1.187691 v 4.980638 h 4.06113 q -0.0766,0.536376 -0.0766,0.804565 0,0.268188 0.0766,0.651314 h -4.06113 v 9.616462 1.226003 q 0,2.337069 0.38312,3.333197 0.65132,1.647441 2.45201,1.647441 0.42144,0 0.9195,-0.114938 0.53638,-0.114937 0.80457,-0.15325 v 0.919502 q -0.91951,0.344814 -1.64745,0.498064 -0.72794,0.191563 -1.57081,0.191563 -2.29876,0 -3.29489,-1.226003 -1.11106,-1.379253 -1.11106,-4.789075 V 190.008348 h -2.37538 q 0.0766,-0.229876 0.0766,-0.72794 0,-0.459751 -0.0766,-0.727939 h 2.37538 z"
       style="font-family:Optima;-inkscape-font-specification:'Optima weight=550';fill:#ffffff"
       id="path979" /><path
       d="m 157.53352,23.75911 v 8.888523 q 0,0.574689 0,1.111066 0.11494,0.804564 1.03444,0.804564 0.49806,0 1.11106,-0.15325 v 0.842877 q -0.19156,0.07662 -0.57468,0.229875 -0.34482,0.114938 -0.80457,0.191563 -0.42144,0.07663 -1.03444,0.07663 -1.11107,0 -1.839,-0.536377 -0.68963,-0.536376 -0.84288,-1.800692 l -0.34481,0.344814 q -2.4137,2.413693 -5.67027,2.413693 -2.10719,0 -3.60138,-1.302628 -1.4942,-1.302628 -1.4942,-3.371509 0,-2.911757 2.18382,-4.176073 1.34094,-0.766252 4.90402,-1.340941 2.49031,-0.421439 3.14163,-0.766252 0.9195,-0.498064 0.9195,-1.800692 0,-2.145506 -1.18769,-3.294884 -1.14938,-1.18769 -3.29488,-1.18769 -1.83901,0 -3.21826,0.996127 -1.07275,0.766252 -1.34094,1.647442 h -0.42144 V 19.42979 q 1.49419,-1.03444 2.98838,-1.570816 1.53251,-0.536377 3.17995,-0.536377 6.20664,0 6.20664,6.436517 z m -3.06501,8.160584 v -5.59364 l -1.34094,0.268188 q -3.3332,0.651315 -4.21439,1.034441 -2.29875,1.03444 -2.29875,3.333196 0,1.762379 0.99613,2.681882 0.99612,0.919502 2.7585,0.919502 0.72794,0 1.60913,-0.421438 0.88119,-0.459752 1.45588,-1.034441 0.3065,-0.268188 0.65131,-0.613001 0.38313,-0.383126 0.38313,-0.574689 z"
       style="font-family:Optima;-inkscape-font-specification:'Optima weight=550';fill:#ffffff"
       id="path981" /><path
       d="M 163.89341,35.865891 V 17.552469 l 1.5325,0.114938 1.5325,-0.114938 v 3.83126 l 0.19157,-0.459751 q 1.03444,-1.647442 2.1455,-2.528632 1.34094,-1.072753 2.68188,-1.072753 0.76626,0 1.1877,0.191563 l -0.53638,3.218259 q -0.19156,-0.03831 -0.80457,-0.306501 -0.613,-0.306501 -0.99612,-0.306501 -0.65132,0 -1.34094,0.268188 -0.68963,0.229876 -1.11107,0.689627 -0.88119,1.03444 -1.14938,2.107193 -0.26819,1.072753 -0.26819,2.758507 v 9.922963 l -1.5325,-0.114937 z"
       style="font-family:Optima;-inkscape-font-specification:'Optima weight=550';fill:#ffffff"
       id="path983" /><path
       d="m 189.44792,23.75911 v 8.888523 q 0,0.574689 0,1.111066 0.11493,0.804564 1.03444,0.804564 0.49806,0 1.11106,-0.15325 v 0.842877 q -0.19156,0.07662 -0.57469,0.229875 -0.34481,0.114938 -0.80456,0.191563 -0.42144,0.07663 -1.03444,0.07663 -1.11107,0 -1.83901,-0.536377 -0.68962,-0.536376 -0.84287,-1.800692 l -0.34482,0.344814 q -2.41369,2.413693 -5.67026,2.413693 -2.10719,0 -3.60139,-1.302628 -1.49419,-1.302628 -1.49419,-3.371509 0,-2.911757 2.18382,-4.176073 1.34094,-0.766252 4.90401,-1.340941 2.49032,-0.421439 3.14164,-0.766252 0.9195,-0.498064 0.9195,-1.800692 0,-2.145506 -1.18769,-3.294884 -1.14938,-1.18769 -3.29488,-1.18769 -1.83901,0 -3.21826,0.996127 -1.07276,0.766252 -1.34094,1.647442 h -0.42144 V 19.42979 q 1.49419,-1.03444 2.98838,-1.570816 1.5325,-0.536377 3.17995,-0.536377 6.20664,0 6.20664,6.436517 z m -3.06501,8.160584 v -5.59364 l -1.34094,0.268188 q -3.3332,0.651315 -4.21439,1.034441 -2.29875,1.03444 -2.29875,3.333196 0,1.762379 0.99612,2.681882 0.99613,0.919502 2.75851,0.919502 0.72794,0 1.60913,-0.421438 0.88119,-0.459752 1.45588,-1.034441 0.3065,-0.268188 0.65131,-0.613001 0.38313,-0.383126 0.38313,-0.574689 z"
       style="font-family:Optima;-inkscape-font-specification:'Optima weight=550';fill:#ffffff"
       id="path985" /></g><path
     style="fill:#ffffff;stroke-width:0.122204"
     d="m 0.2935045,41.598498 c -0.548871,-0.113952 -0.663492,-0.527602 -0.146198,-0.527602 0.528516,0 1.564543,-0.577194 2.048331,-1.141172 0.63331,-0.738281 1.142136,-1.895418 2.10529,-4.787706 1.249246,-3.751402 1.9552265,-5.081615 3.5125405,-6.618357 0.669125,-0.660286 1.140362,-0.997541 1.908487,-1.365863 1.466158,-0.703033 1.911647,-0.79826 3.769559,-0.805778 2.082822,-00.0084 2.810687,0.102543 2.810687,0.428524 0,0.164025 -0.0846,0.237131 -0.274958,0.237602 -0.584568,00.0014 -1.238527,0.282053 -1.744695,0.748622 -0.747478,0.689 -1.36068,2.012226 -2.501337,5.397625 -0.537099,1.594077 -1.194046,3.324017 -1.459881,3.844315 -1.148162,2.247202 -2.52674,3.503034 -4.6900665,4.272472 -0.788035,0.280285 -1.088746,0.315538 -2.954785,0.346394 -1.142606,0.01889 -2.214944,00.0058 -2.382974,-0.02908 z M 20.212722,41.1931 c 0,-0.234293 0.08147,-0.244408 1.968508,-0.244408 h 1.968509 l -0.07883,-0.314097 C 24.027549,40.461842 23.631215,39.403252 23.190165,38.282173 21.03934,32.815139 20.286798,30.904297 19.908859,29.950354 19.682517,29.379052 19.14128,280.00426 18.70611,26.895261 c -0.43517,-1.108999 -1.105023,-2.813742 -1.488562,-3.788317 -1.852212,-4.706482 -2.739902,-6.970012 -30.00657,-7.666492 -0.160461,-0.419089 -0.323984,-0.762787 -0.363386,-0.763773 -0.0394,-9.9e-4 -0.357239,0.699351 -0.706304,1.556304 -0.757205,1.858933 -0.792247,1.920287 -1.042038,1.824433 -0.152333,-0.05846 -0.168742,-0.135736 -0.07514,-0.353867 0.328914,-0.766473 4.507305,-11.236045 4.687298,-11.744714 0.212462,-0.600428 0.503589,-0.04966 2.152559,4.072308 0.927629,2.318816 3.144867,7.845481 4.927198,12.281477 1.78233,4.435996 3.855257,9.605215 4.606502,11.487153 0.751247,1.881937 1.547831,3.861638 1.770187,4.399335 0.222356,0.537696 0.561789,1.375641 0.754297,1.862101 l 0.350013,0.884472 1.741404,00.0015 c 1.659434,00.0014 1.741404,0.01301 1.741404,0.245913 0,0.241669 -0.08147,0.244408 -7.271125,0.244408 -7.189655,0 -7.271125,-00.0027 -7.271125,-0.244408 z"
     id="path517" /><g
     id="g7058"
     transform="matrix(-0.12685088,0,0,0.12519229,185.11258,18.157384)"
     style="fill:#ffffff"><path
       style="fill:#ffffff;fill-opacity:1;stroke:#000101;stroke-width:00.00387243"
       d="m 49.454063,-12.212846 c 0.60388,-5.357643 5.91091,-12.475583 11.23595,-15.070009 3.91017,-1.905075 7.61419,-2.376885 18.66015,-2.376885 6.95421,0 8.29399,0.100665 8.29399,0.623194 0,1.412616 -2.22143,7.498525 -3.53621,9.687952 -1.6099,2.680872 -5.21166,5.761198 -8.83294,7.55419 l -2.47518,1.225525 -11.7869,0.189572 -11.7869,0.189574 z"
       id="path2559" /><path
       style="fill:#ffffff;fill-opacity:1;stroke:#000101;stroke-width:00.00387243"
       d="m 49.350103,-39.035288 c 0,-1.754437 1.41842,-6.051151 2.7074,-8.201284 1.88447,-3.143471 6.12502,-7.013043 9.5134,-8.681137 2.59821,-1.279092 3.27345,-1.410148 8.95573,-1.738168 3.38009,-0.195122 13.38469,-0.365329 22.23244,-0.378237 l 16.086797,-0.02347 -0.28484,2.474055 c -0.88258,7.665626 -8.12779,15.453741 -15.704787,16.881621 -1.36447,0.257133 -10.78744,0.436759 -22.9119,0.436759 -19.50161,0 -20.59424,-0.04086 -20.59424,-0.770141 z"
       id="path2561" /><path
       style="fill:#ffffff;fill-opacity:1;stroke:#000101;stroke-width:00.00387243"
       d="m 49.556463,-68.260396 c 0.90023,-60.003206 5.41027,-12.199942 11.1958,-15.38285 l 2.58162,-1.420282 31.73244,-0.27345 31.732427,-0.27345 -00.005,1.191016 c -00.003,0.655058 -0.27496,2.081564 -0.60533,3.170012 -1.76633,5.819405 -5.53888,10.232131 -11.28816,13.203642 l -3.50787,1.813039 H 80.322573 49.252383 Z"
       id="path2563" /></g></svg>
