<?xml version="1.0" encoding="UTF-8" standalone="no"?>
<!-- Created with Inkscape (http://www.inkscape.org/) -->
<svg
   width="270"
   height="270"
   viewBox="0 0 71.437498 71.4375"
   version="1.1"
   id="svg5"
   xml:space="preserve"
   xmlns="http://www.w3.org/2000/svg"
   xmlns:svg="http://www.w3.org/2000/svg"><defs
     id="defs2" /><g
     id="layer1"><path
       style="fill:#cccccc;stroke-width:0.104341"
       d="m 22.375915,48.688652 c -0.471656,-0.09667 -0.570152,-0.447603 -0.125634,-0.447603 0.454165,0 1.344444,-0.489675 1.760174,-0.968137 0.544215,-0.626339 0.981459,-1.608019 1.809118,-4.061751 1.073502,-3.182582 1.680166,-4.311093 3.018398,-5.614824 0.574992,-0.560164 0.979936,-0.846286 1.640001,-1.158758 1.259899,-0.596432 1.642718,-0.677222 3.239259,-0.6836 1.789811,-00.0069 2.41528,0.087 2.41528,0.36355 0,0.139162 -0.0727,0.201175 -0.236275,0.201586 -0.502333,00.0013 -1.064293,0.239296 -1.499254,0.635107 -0.642323,0.584528 -1.16926,1.707111 -2.149449,4.579191 -0.461541,1.352369 -1.026066,2.819998 -1.254505,3.261404 -0.98664,1.906462 -2.17128,2.971875 -4.03027,3.624639 -0.677175,0.237786 -0.935582,0.267709 -2.539108,0.293873 -0.981864,0.01591 -1.903346,00.0049 -2.047738,-0.02463 z m 17.116991,-0.343925 c 0,-0.198763 0.07001,-0.207355 1.691579,-0.207355 h 1.691579 l -0.06774,-0.266487 C 42.771074,47.724346 42.430492,46.826271 42.05149,45.875178 40.203241,41.237103 39.556566,39.616 39.231795,38.806702 c -0.1945,-0.484678 -0.659596,-1.651011 -1.033545,-2.59185 -0.37395,-0.940843 -0.949568,-2.387101 -1.279151,-3.213899 -1.591645,-3.992842 -2.354455,-5.913158 -2.583609,-6.504034 -0.137887,-0.355543 -0.278404,-0.647127 -0.312263,-0.64796 -0.03386,-8.58e-4 -0.306985,0.593306 -0.606942,1.320322 -0.650682,1.577062 -0.680793,1.629118 -0.895444,1.547798 -0.130905,-0.04959 -0.145003,-0.115147 -0.06457,-0.300221 0.282641,-0.650255 3.873218,-9.532336 4.027889,-9.963878 0.182573,-0.509386 0.432744,-0.04213 1.849739,3.454828 0.797129,1.967219 2.702448,6.655882 4.234041,10.419251 1.53159,3.763371 3.312897,8.148787 3.95846,9.745366 0.645562,1.596586 1.330086,3.276108 1.521161,3.732273 0.191073,0.456167 0.482754,1.167055 0.648178,1.579752 l 0.300786,0.750362 1.496421,00.0013 c 1.425984,00.0013 1.496424,0.0108 1.496424,0.208616 0,0.20502 -0.07002,0.207355 -6.248227,0.207355 -6.178217,0 -6.248224,-00.0021 -6.248224,-0.207355 z"
       id="path517" /></g></svg>
