<?xml version="1.0" encoding="UTF-8" standalone="no"?>
<svg
   width="191"
   height="47"
   viewBox="0 0 191 47"
   fill="none"
   version="1.1"
   id="svg11047"
   xml:space="preserve"
   xmlns="http://www.w3.org/2000/svg"
   xmlns:svg="http://www.w3.org/2000/svg"><defs
     id="defs11051" /><g
     aria-label="Anantara"
     transform="matrix(0.95497749,0,0,1.0471451,2.5103683,1.2759208)"
     id="text11172"
     style="font-size:38.3126px;font-family:Montserrat;-inkscape-font-specification:Montserrat;text-align:center;text-anchor:middle;fill:#ffffff;stroke-width:0"><path
       d="M 34.477323,39.994169 V 17.53746 l 2.058771,0.140942 2.058771,-0.140942 v 4.275232 q 1.3382,-2.161106 3.448441,-3.335621 2.161709,-1.221495 4.838111,-1.221495 4.374888,0 6.33072,2.208088 1.955833,2.208086 1.955833,6.953122 v 13.577383 l -2.058771,-0.14094 -2.058771,0.14094 V 27.49734 q 0,-3.758446 -1.029385,-5.543707 -1.338202,-2.255066 -4.683704,-2.255066 -3.808726,0 -5.404274,2.53695 -1.3382,2.161106 -1.3382,6.859161 v 10.899491 l -2.058771,-0.14094 z"
       style="font-family:Optima;-inkscape-font-specification:'Optima weight=550';fill:#ffffff;stroke-width:0"
       id="path973" /><path
       d="m 80.387906,24.772458 v 10.899491 q 0,0.704709 0,1.362437 0.154398,0.986592 1.38967,0.986592 0.669096,0 1.492602,-0.187922 v 1.033572 q -0.257342,0.09395 -0.77204,0.281883 -0.463219,0.140942 -1.080849,0.234903 -0.566164,0.09397 -1.38967,0.09397 -1.492615,0 -2.470532,-0.657729 -0.926438,-0.657728 -1.132328,-2.208086 l -0.463219,0.422825 q -3.242559,2.959775 -7.617449,2.959775 -2.83081,0 -4.838113,-1.597339 -2.007301,-1.597338 -2.007301,-4.13429 0,-3.570522 2.933748,-5.120881 1.801425,-0.939611 6.588067,-1.64432 3.345502,-0.516786 4.220487,-0.939611 1.235259,-0.610748 1.235259,-2.208086 0,-2.630912 -1.595546,-4.040329 -1.544081,-1.456397 -4.426362,-1.456397 -2.470524,0 -4.323418,1.221494 -1.44114,0.939611 -1.801425,2.020164 h -0.566162 v -2.630912 q 2.007302,-1.268475 4.014603,-1.926202 2.058771,-0.657729 4.271944,-0.657729 8.338034,0 8.338034,7.892735 z m -4.117544,10.006861 v -6.859163 l -1.801423,0.328864 q -4.477832,0.79867 -5.661626,1.268476 -3.088156,1.268475 -3.088156,4.087309 0,2.161105 1.338202,3.28864 1.3382,1.127533 3.705787,1.127533 0.977916,0 2.161712,-0.516786 1.183793,-0.563768 1.955834,-1.268476 0.411753,-0.328864 0.874972,-0.751688 0.514698,-0.469806 0.514698,-0.704709 z"
       style="font-family:Optima;-inkscape-font-specification:'Optima weight=550';fill:#ffffff;stroke-width:0"
       id="path975" /><path
       d="M 88.828858,39.994169 V 17.53746 l 2.058766,0.140942 2.058779,-0.140942 v 4.275232 q 1.338191,-2.161106 3.448435,-3.335621 2.161711,-1.221495 4.838102,-1.221495 4.37489,0 6.33072,2.208088 1.95584,2.208086 1.95584,6.953122 v 13.577383 l -2.05877,-0.14094 -2.05878,0.14094 V 27.49734 q 0,-3.758446 -1.02938,-5.543707 -1.3382,-2.255066 -4.683694,-2.255066 -3.808736,0 -5.404282,2.53695 -1.338191,2.161106 -1.338191,6.859161 v 10.899491 l -2.058779,-0.14094 z"
       style="font-family:Optima;-inkscape-font-specification:'Optima weight=550';fill:#ffffff;stroke-width:0"
       id="path977" /><path
       id="path979"
       style="font-family:Optima;-inkscape-font-specification:'Optima weight=550';fill:#ffffff;stroke-width:0"
       d="m 121.30579,11.054517 -4.11855,1.454644 v 20.108861 c 0,2.787512 0.4996,4.743652 1.49466,5.871184 0.89214,1.002251 2.3675,1.504963 4.42629,1.504963 0.75487,0 1.45815,-0.07898 2.11011,-0.23558 0.65194,-0.125281 1.38824,-0.328792 2.21176,-0.610676 v -1.127579 c -0.2402,0.03132 -0.5994,0.09359 -1.07978,0.187549 -0.44607,0.09396 -0.85895,0.141806 -1.23639,0.141806 -1.6127,0 -2.71098,-0.675091 -3.2943,-2.021866 -0.34313,-0.814328 -0.5138,-2.176644 -0.5138,-4.087185 V 30.737963 18.945278 h 5.45662 c -0.0687,-0.313204 -0.10439,-0.578982 -0.10439,-0.798225 0,-0.219243 0.0357,-0.547289 0.10439,-0.985773 h -5.45662 z" /><path
       d="m 149.04789,24.772458 v 10.899491 q 0,0.704709 0,1.362437 0.15441,0.986592 1.38967,0.986592 0.6691,0 1.49261,-0.187922 v 1.033572 q -0.25735,0.09395 -0.77203,0.281883 -0.46323,0.140942 -1.08086,0.234903 -0.56617,0.09397 -1.38967,0.09397 -1.49262,0 -2.47052,-0.657729 -0.92645,-0.657728 -1.13233,-2.208086 l -0.46322,0.422825 q -3.24257,2.959775 -7.61746,2.959775 -2.8308,0 -4.8381,-1.597339 -2.00732,-1.597338 -2.00732,-4.13429 0,-3.570522 2.93375,-5.120881 1.80143,-0.939611 6.58808,-1.64432 3.34549,-0.516786 4.22048,-0.939611 1.23526,-0.610748 1.23526,-2.208086 0,-2.630912 -1.59555,-4.040329 -1.54408,-1.456397 -4.42635,-1.456397 -2.47054,0 -4.32342,1.221494 -1.44114,0.939611 -1.80143,2.020164 h -0.56616 v -2.630912 q 2.0073,-1.268475 4.0146,-1.926202 2.05878,-0.657729 4.27195,-0.657729 8.33802,0 8.33802,7.892735 z m -4.11754,10.006861 v -6.859163 l -1.80142,0.328864 q -4.47784,0.79867 -5.66163,1.268476 -3.08815,1.268475 -3.08815,4.087309 0,2.161105 1.33821,3.28864 1.33819,1.127533 3.70578,1.127533 0.97791,0 2.16171,-0.516786 1.18379,-0.563768 1.95583,-1.268476 0.41175,-0.328864 0.87497,-0.751688 0.5147,-0.469806 0.5147,-0.704709 z"
       style="font-family:Optima;-inkscape-font-specification:'Optima weight=550';fill:#ffffff;stroke-width:0"
       id="path981" /><path
       d="M 157.59179,39.994169 V 17.53746 l 2.05877,0.140942 2.05876,-0.140942 v 4.698057 l 0.25736,-0.563767 q 1.38967,-2.020164 2.88227,-3.100718 1.80142,-1.315456 3.60285,-1.315456 1.02939,0 1.59556,0.234903 l -0.72058,3.946368 q -0.25734,-0.04698 -1.08086,-0.375844 -0.82351,-0.375845 -1.33819,-0.375845 -0.87499,0 -1.80142,0.328863 -0.92646,0.281884 -1.49262,0.845651 -1.18379,1.268475 -1.54408,2.583931 -0.36029,1.315456 -0.36029,3.3826 v 12.167966 l -2.05876,-0.14094 z"
       style="font-family:Optima;-inkscape-font-specification:'Optima weight=550';fill:#ffffff;stroke-width:0"
       id="path983" /><path
       d="m 191.9218,24.772458 v 10.899491 q 0,0.704709 0,1.362437 0.1544,0.986592 1.38967,0.986592 0.6691,0 1.4926,-0.187922 v 1.033572 q -0.25734,0.09395 -0.77204,0.281883 -0.46321,0.140942 -1.08084,0.234903 -0.56617,0.09397 -1.38967,0.09397 -1.49262,0 -2.47054,-0.657729 -0.92643,-0.657728 -1.13231,-2.208086 l -0.46323,0.422825 q -3.24256,2.959775 -7.61745,2.959775 -2.8308,0 -4.83812,-1.597339 -2.0073,-1.597338 -2.0073,-4.13429 0,-3.570522 2.93375,-5.120881 1.80143,-0.939611 6.58807,-1.64432 3.3455,-0.516786 4.22049,-0.939611 1.23525,-0.610748 1.23525,-2.208086 0,-2.630912 -1.59554,-4.040329 -1.54408,-1.456397 -4.42635,-1.456397 -2.47054,0 -4.32343,1.221494 -1.44114,0.939611 -1.80142,2.020164 h -0.56616 v -2.630912 q 2.0073,-1.268475 4.0146,-1.926202 2.05876,-0.657729 4.27195,-0.657729 8.33802,0 8.33802,7.892735 z m -4.11754,10.006861 v -6.859163 l -1.80142,0.328864 q -4.47784,0.79867 -5.66163,1.268476 -3.08815,1.268475 -3.08815,4.087309 0,2.161105 1.33819,3.28864 1.33821,1.127533 3.70579,1.127533 0.97792,0 2.16171,-0.516786 1.1838,-0.563768 1.95584,-1.268476 0.41175,-0.328864 0.87497,-0.751688 0.5147,-0.469806 0.5147,-0.704709 z"
       style="font-family:Optima;-inkscape-font-specification:'Optima weight=550';fill:#ffffff;stroke-width:0"
       id="path985" /></g><path
     style="fill:#ffffff;stroke-width:0.362019"
     d="M 1.8784919,43.05167 C 0.383624,42.852202 0.381195,42.849368 1.3712035,42.459869 2.7454475,41.919199 3.3731037,40.97454 4.7705523,37.343652 7.067714,31.375107 9.244453,29.476245 13.801095,29.465924 c 2.483109,-0.0056 3.368467,0.422118 1.686034,0.814574 -1.103073,0.257311 -1.828794,1.442905 -3.426778,5.59826 -0.719771,1.871674 -1.750796,3.941776 -2.291164,4.600225 -1.685523,2.053839 -4.6167663,3.009542 -7.8906951,2.572687 z M 20.466487,42.722452 c 0,-0.191955 0.760418,-0.349007 1.689818,-0.349007 0.929399,0 1.689818,-0.111693 1.689818,-0.248208 0,-0.516046 -9.535503,-22.78626 -9.756461,-22.78626 -0.127364,0 -0.445438,0.549686 -0.70683,1.221525 -0.261393,0.671839 -0.63557,1.221525 -0.831507,1.221525 -0.195936,0 -0.129915,-0.510423 0.146713,-1.134274 0.276629,-0.62385 1.322389,-3.058174 2.32391,-5.409609 1.001522,-2.351435 1.943429,-4.275337 2.093127,-4.275337 0.330918,0 1.307121,2.156787 8.411759,18.584628 l 5.546933,12.82601 h 1.643389 c 0.903863,0 1.643388,0.157052 1.643388,0.349007 0,0.220094 -2.566019,0.349007 -6.947029,0.349007 -4.381008,0 -6.947028,-0.128913 -6.947028,-0.349007 z"
     id="path611" /></svg>
