<svg fill="none" height="22" viewBox="0 0 22 22" width="22" xmlns="http://www.w3.org/2000/svg"><path clip-rule="evenodd" d="m16.7513 15.8486c.9449.8108 1.9308 1.5715 2.9887 2.2621l.0102-.01c.7498.4904-.3594 2.2921-1.0783 1.8217-3.2865-2.132-5.8951-4.9346-8.4216-7.8172-.0513.0901-.1027.1701-.1643.2302-1.39671 1.4213-2.81399 2.8326-4.26208 4.2139-.12325.1201-.28757.1801-.45189.2002-.71891.8107-1.39674 1.6515-2.01295 2.5523-.71891 1.061-1.84862.4404-1.11944-.6306 1.98213-2.8926 4.48805-5.2548 7.11721-7.4969.0031-.003.00621-.0069.00961-.0113.00782-.0099.01714-.0217.03147-.0287-.11813-.1352-.23882-.2728-.35952-.4104-.12065-.1377-.24131-.2753-.35939-.4104-.1746.0501-.35946.0201-.51351-.1301l-6.0183-6.03553c-.30811-.31028-.09244-.93085.27729-1.34123.24648-.56051.77026-1.01093 1.12971-.71065 2.52415 2.14557 4.68005 4.65004 6.83229 7.15021.1771.20574.3542.41145.5314.61693.0446-.03667.089-.07315.1332-.1095.2818-.23155.557-.45766.8322-.69124.0924-.34031.3492-.69063.5649-.89082 1.0321-.9759 2.0643-1.95431 3.0964-2.93271 1.0322-.97839 2.0643-1.95679 3.0965-2.93268.2978-.28026.6778-.29026.8935.01001.4518.07007.5956.89082.0821 1.46134-2.1143 2.3588-4.5802 4.38303-7.0425 6.40427-.2647.2173-.5294.4346-.7936.6522.0924.1051.1849.2077.2773.3103s.1849.2052.2773.3103c.0118.0046.0236.0087.0352.0127.0392.0135.0769.0265.1086.0574 1.3967 1.3012 2.7832 2.6324 4.1388 3.9736.0925.0901.1335.2102.1335.3503z" fill="#666" fill-rule="evenodd"/></svg>