<svg viewBox="0 0 24 24" xmlns="http://www.w3.org/2000/svg"><path d="m21.5 6.11a7.66 7.66 0 0 1 -2.24.61 3.94 3.94 0 0 0 1.74-2.16 7.69 7.69 0 0 1 -2.48 1 3.9 3.9 0 0 0 -6.74 2.67 3.8 3.8 0 0 0 .1.89 11.1 11.1 0 0 1 -8.06-4.12 4 4 0 0 0 -.52 2 3.88 3.88 0 0 0 1.7 3.2 3.94 3.94 0 0 1 -1.77-.49 3.9 3.9 0 0 0 3.13 3.82 3.88 3.88 0 0 1 -1 .14 4.4 4.4 0 0 1 -.73-.07 3.89 3.89 0 0 0 3.64 2.7 7.78 7.78 0 0 1 -4.84 1.7 7.25 7.25 0 0 1 -.93 0 11.09 11.09 0 0 0 17.07-9.37c0-.17 0-.34 0-.5a7.8 7.8 0 0 0 1.95-2"/></svg>