<?xml version="1.0" encoding="UTF-8" standalone="no"?>
<svg
   viewBox="0 0 100 70"
   version="1.1"
   id="svg112"
   xml:space="preserve"
   sodipodi:docname="logo-main-white.svg"
   inkscape:export-filename="..\..\..\..\..\Users\mazig\Downloads\logo-main-white.png"
   inkscape:export-xdpi="96"
   inkscape:export-ydpi="96"
   inkscape:version="1.2 (dc2aedaf03, 2022-05-15)"
   xmlns:inkscape="http://www.inkscape.org/namespaces/inkscape"
   xmlns:sodipodi="http://sodipodi.sourceforge.net/DTD/sodipodi-0.dtd"
   xmlns="http://www.w3.org/2000/svg"
   xmlns:svg="http://www.w3.org/2000/svg"><sodipodi:namedview
     id="namedview26"
     pagecolor="#ffffff"
     bordercolor="#000000"
     borderopacity="0.25"
     inkscape:showpageshadow="2"
     inkscape:pageopacity="0.0"
     inkscape:pagecheckerboard="true"
     inkscape:deskcolor="#d1d1d1"
     showgrid="false"
     inkscape:zoom="3.3714286"
     inkscape:cx="-20.317797"
     inkscape:cy="35.148305"
     inkscape:window-width="1920"
     inkscape:window-height="1111"
     inkscape:window-x="-9"
     inkscape:window-y="-9"
     inkscape:window-maximized="1"
     inkscape:current-layer="svg112" /><defs
     id="defs112"><clipPath
       id="a99cb5e3bf"><path
         d="M 38 19 L 91 19 L 91 58.8125 L 38 58.8125 Z M 38 19 "
         clip-rule="nonzero"
         id="path1" /></clipPath></defs><path
     style="font-size:58.4659px;line-height:0.3;font-family:'Times New Roman';-inkscape-font-specification:'Times New Roman, ';text-align:center;text-anchor:middle;fill:#ffffff;fill-opacity:1;stroke:#000000;stroke-width:0"
     d="m 8.4367705,50.007179 h -4.63816 l -0.81279,1.937171 c -0.20025,0.476748 -0.30037,0.832802 -0.30037,1.068159 0,0.187081 0.0854,0.353037 0.2562,0.497881 0.17669,0.138796 0.55363,0.229323 1.13083,0.27156 v 0.334936 H 0.30010051 V 53.78195 C 1.6186005,53.591694 1.9030205,52.533471 2.2702205,51.663732 l 4.21411,-10.102269 h 0.30921 l 4.1699305,10.210898 c 0.33572,0.820734 0.63904,1.354811 0.90996,1.602249 0.27682,0.241392 0.65965,0.377171 1.1485,0.40734 v 0.334936 L 9.5145905,53.030623 c 0,-0.265538 -0.11779,-0.684953 -0.35337,-1.258262 z m -0.24737,-0.669861 -2.03196,-4.960616 -2.08496,4.960616 z M 12.986601,41.84208 h 3.25113 l 7.32388,9.206107 v -7.078839 c 0,-0.754348 -0.0824,-1.225064 -0.24737,-1.412144 -0.21793,-0.253459 -0.56246,-0.380196 -1.03365,-0.380196 h -0.41522 V 41.84208 h 4.16993 v 0.334928 h -0.42407 c -0.50652,0 -0.86578,0.156907 -1.07782,0.470715 -0.12956,0.193121 -0.19435,0.633655 -0.19435,1.321625 V 54.31604 h -0.31805 l -7.89813,-9.885027 v 7.558603 c 0,0.75435 0.0795,1.225066 0.23854,1.412146 0.2238,0.253459 0.56835,0.380188 1.03363,0.380188 h 0.42407 v 0.334936 h -4.16993 V 53.78195 h 0.41522 c 0.51241,0 0.87462,-0.156898 1.08666,-0.470715 0.12957,-0.193114 0.19436,-0.633647 0.19436,-1.321619 v -8.536243 c -0.34749,-0.416404 -0.61253,-0.690988 -0.79511,-0.82375 -0.17669,-0.132764 -0.43878,-0.256476 -0.78629,-0.371137 -0.17079,-0.05428 -0.42995,-0.08144 -0.77743,-0.08144 z m 21.58292,8.165099 h -4.63817 l -0.81278,1.937171 c -0.20024,0.476748 -0.30037,0.832802 -0.30037,1.068159 0,0.187081 0.0855,0.353037 0.2562,0.497881 0.17669,0.138796 0.55363,0.229323 1.13083,0.27156 v 0.334936 h -3.77238 V 53.78195 c 0.50063,-0.0905 0.82457,-0.208198 0.97181,-0.353035 0.30038,-0.289661 0.63315,-0.878071 0.99831,-1.765183 l 4.21411,-10.102269 h 0.30921 l 4.16993,10.210898 c 0.33572,0.820734 0.63904,1.354811 0.90997,1.602249 0.27681,0.241392 0.65964,0.377171 1.14849,0.40734 v 0.334936 l -3.50734,-1.086263 c 0,-0.265538 -0.11779,-0.684953 -0.35338,-1.258262 z m -0.24737,-0.669861 -2.03195,-4.960616 -2.08497,4.960616 z m 4.79719,-7.495238 h 3.25114 l 7.32388,9.206107 v -7.078839 c 0,-0.754348 -0.0824,-1.225064 -0.24736,-1.412144 -0.21792,-0.253459 -0.56247,-0.380196 -1.03365,-0.380196 h -0.41523 V 41.84208 h 4.16993 v 0.334928 h -0.42407 c -0.5065,0 -0.86578,0.156907 -1.07781,0.470715 -0.12957,0.193121 -0.19436,0.633655 -0.19436,1.321625 V 54.31604 h -0.31805 l -7.89813,-9.885027 v 7.558603 c 0,0.75435 0.0795,1.225066 0.23854,1.412146 0.22379,0.253459 0.56835,0.380188 1.03363,0.380188 h 0.42407 v 0.334936 h -4.16994 V 53.78195 h 0.41524 c 0.51239,0 0.87462,-0.156898 1.08665,-0.470715 0.12957,-0.193114 0.19436,-0.633647 0.19436,-1.321619 v -8.536243 c -0.34749,-0.416404 -0.61253,-0.690988 -0.79511,-0.82375 -0.17669,-0.132764 -0.43879,-0.256476 -0.78629,-0.371137 -0.17079,-0.05428 -0.42994,-0.08144 -0.77744,-0.08144 z m 23.773921,0 0.132506,2.878608 h -0.335709 c -0.06479,-0.50693 -0.153133,-0.869018 -0.265044,-1.086274 -0.18258,-0.35002 -0.427002,-0.606497 -0.733263,-0.769434 -0.300372,-0.168979 -0.697938,-0.253458 -1.192672,-0.253458 h -1.687409 v 9.378094 c 0,0.75435 0.07952,1.225066 0.238532,1.412146 0.223808,0.253459 0.56836,0.380188 1.033642,0.380188 h 0.415235 v 0.334936 H 55.419181 V 53.78195 h 0.42406 c 0.50652,0 0.86579,-0.156898 1.07783,-0.470715 0.12957,-0.193114 0.19436,-0.633647 0.19436,-1.321619 v -9.378094 h -1.44004 c -0.55953,0 -0.95709,0.04218 -1.19267,0.126728 -0.30627,0.114662 -0.56837,0.334936 -0.78629,0.660807 -0.21791,0.325883 -0.34749,0.766422 -0.38872,1.321631 h -0.33572 l 0.14137,-2.878608 z m 7.412218,8.165099 h -4.638164 l -0.812783,1.937171 c -0.200243,0.476748 -0.300378,0.832802 -0.300378,1.068159 0,0.187081 0.08549,0.353037 0.256205,0.497881 0.176692,0.138796 0.553636,0.229323 1.130829,0.27156 v 0.334936 H 62.168818 V 53.78195 c 0.500631,-0.0905 0.82456,-0.208198 0.971814,-0.353035 0.300367,-0.289661 0.633144,-0.878071 0.998307,-1.765183 l 4.214107,-10.102269 h 0.30921 l 4.169923,10.210898 c 0.33572,0.820734 0.639039,1.354811 0.909974,1.602249 0.276803,0.241392 0.659639,0.377171 1.14848,0.40734 v 0.334936 l -3.50733,-1.086263 c 0,-0.265538 -0.117795,-0.684953 -0.353382,-1.258262 z m -0.247365,-0.669861 -2.031953,-4.960616 -2.084973,4.960616 z m 17.26281,4.779568 h -3.198124 l -4.055077,-5.739107 c -0.300385,0.01203 -0.544807,0.01815 -0.733278,0.01815 h -0.247375 c -0.08838,-0.006 -0.179633,-0.01203 -0.273859,-0.01815 v 3.566571 c 0,0.772458 0.0824,1.252224 0.247366,1.43931 0.223801,0.265526 0.559522,0.39829 1.007146,0.39829 h 0.468224 v 0.334936 H 75.403044 V 53.78195 h 0.45057 c 0.506517,0 0.868731,-0.168966 1.086662,-0.506918 0.123685,-0.18708 0.185529,-0.630643 0.185529,-1.330682 v -7.929735 c 0,-0.772456 -0.0824,-1.25223 -0.247368,-1.439309 -0.229717,-0.265527 -0.571309,-0.398298 -1.024823,-0.398298 h -0.45057 V 41.84208 h 4.364295 c 1.272181,0 2.208646,0.09663 2.809412,0.289675 0.606636,0.187074 1.119044,0.537094 1.53721,1.050045 0.424057,0.506932 0.636094,1.113433 0.636094,1.819505 0,0.754342 -0.241477,1.409128 -0.724427,1.964329 -0.477081,0.555209 -1.219185,0.947464 -2.226333,1.176787 l 2.4737,3.521311 c 0.565415,0.808668 1.051314,1.345759 1.457695,1.6113 0.406398,0.265527 0.936472,0.434499 1.590235,0.506918 z m -8.507713,-6.3094 c 0.111897,0 0.209075,0.003 0.291532,0.0089 h 0.2032 c 1.142616,0 2.00251,-0.253467 2.579706,-0.760397 0.58307,-0.506918 0.874626,-1.152639 0.874626,-1.937163 0,-0.766432 -0.235596,-1.38801 -0.706773,-1.864759 -0.465291,-0.482785 -1.08372,-0.724181 -1.855257,-0.724181 -0.341617,0 -0.803959,0.05738 -1.387034,0.17199 z m 16.626698,2.199693 h -4.638157 l -0.812789,1.937171 c -0.200238,0.476748 -0.300374,0.832802 -0.300374,1.068159 0,0.187081 0.08549,0.353037 0.256207,0.497881 0.176686,0.138796 0.55363,0.229323 1.13083,0.27156 v 0.334936 H 87.30325 V 53.78195 c 0.500625,-0.0905 0.824563,-0.208198 0.971815,-0.353035 0.300372,-0.289661 0.633149,-0.878071 0.998308,-1.765183 l 4.21411,-10.102269 h 0.309207 l 4.169927,10.210898 c 0.335718,0.820734 0.639034,1.354811 0.909975,1.602249 0.276812,0.241392 0.659622,0.377171 1.148458,0.40734 v 0.334936 l -3.507314,-1.086263 c 0,-0.265538 -0.117791,-0.684953 -0.353377,-1.258262 z m -0.247365,-0.669861 -2.031948,-4.960616 -2.08497,4.960616 z"
     id="text12"
     aria-label="ANANTARA" /><path
     style="font-size:16.8647px;line-height:0.3;font-family:'Times New Roman';-inkscape-font-specification:'Times New Roman, ';text-align:center;text-anchor:middle;fill:#ffffff;fill-opacity:1;stroke:#000000;stroke-width:0"
     d="m 34.256521,64.09308 v 1.417669 h -0.14396 q -0.07,-0.408073 -0.25291,-0.64989 -0.179,-0.241824 -0.51364,-0.383887 -0.33461,-0.142077 -0.69259,-0.142077 -0.40468,0 -0.66927,0.193462 -0.26459,0.19044 -0.26459,0.43527 0,0.187417 0.16731,0.341569 0.24126,0.226702 1.14787,0.604559 0.7393,0.308304 1.00778,0.474556 0.27237,0.163227 0.41634,0.386916 0.14786,0.223679 0.14786,0.468517 0,0.465504 -0.46693,0.80405 -0.46303,0.335524 -1.19455,0.335524 -0.22957,0 -0.4319,-0.0271 -0.12062,-0.01502 -0.50196,-0.108921 -0.37742,-0.09683 -0.47859,-0.09683 -0.0974,0 -0.15564,0.04534 -0.0545,0.04534 -0.0816,0.187409 h -0.14397 v -1.405557 h 0.14396 q 0.10118,0.441316 0.27238,0.661974 0.17121,0.217642 0.5214,0.362735 0.35408,0.145085 0.77432,0.145085 0.48639,0 0.76655,-0.1995 0.28404,-0.19949 0.28404,-0.471541 0,-0.151129 -0.10905,-0.305298 -0.10498,-0.15416 -0.33072,-0.287163 -0.15176,-0.09066 -0.8288,-0.383879 -0.67704,-0.296225 -0.96498,-0.471545 -0.28404,-0.175317 -0.43191,-0.386907 -0.14786,-0.211585 -0.14786,-0.465498 0,-0.441316 0.4358,-0.758696 0.4358,-0.32042 1.10895,-0.32042 0.42024,0 0.89105,0.160207 0.2179,0.07566 0.30739,0.07566 0.10118,0 0.16342,-0.04534 0.0662,-0.04829 0.10499,-0.190441 z m 3.15954,1.919435 1.94553,1.50231 q 0.47859,0.371786 0.8171,0.507819 0.33853,0.132995 0.67706,0.15113 v 0.111873 h -2.50973 v -0.111873 q 0.22568,0 0.32296,-0.05743 0.10118,-0.06036 0.10118,-0.132993 0,-0.07245 -0.0389,-0.129981 -0.035,-0.05743 -0.24125,-0.214613 l -1.82104,-1.399522 v 1.320937 q 0,0.311337 0.0506,0.411087 0.0388,0.07566 0.16343,0.129974 0.16731,0.07246 0.35408,0.07246 h 0.17899 v 0.111873 h -2.24902 v -0.111873 h 0.18677 q 0.32685,0 0.4747,-0.148113 0.0933,-0.09678 0.0933,-0.465497 v -2.647915 q 0,-0.311351 -0.0506,-0.414126 -0.0388,-0.07244 -0.1595,-0.126948 -0.17121,-0.07249 -0.35798,-0.07249 h -0.18677 v -0.111873 h 2.24905 v 0.111873 h -0.17898 q -0.18288,0 -0.35408,0.06948 -0.12063,0.04829 -0.16732,0.1451 -0.0467,0.09677 -0.0467,0.399005 v 1.254434 q 0.0778,-0.05743 0.53309,-0.383894 1.15563,-0.822185 1.39688,-1.097257 0.10498,-0.120902 0.10498,-0.21159 0,-0.06948 -0.0816,-0.120903 -0.0816,-0.05446 -0.27625,-0.05446 h -0.12071 v -0.111873 h 1.93774 v 0.111873 q -0.17122,0.003 -0.3113,0.03622 -0.14006,0.03327 -0.3424,0.129979 -0.20234,0.09364 -0.49806,0.305298 -0.0857,0.06037 -0.78987,0.619666 z m 5.83268,2.161259 v 0.111873 h -2.2607 v -0.111873 h 0.18677 q 0.32685,0 0.47471,-0.148114 0.0933,-0.09677 0.0933,-0.465498 v -2.647913 q 0,-0.31135 -0.0505,-0.411103 -0.0389,-0.07566 -0.15954,-0.129971 -0.17121,-0.07249 -0.35798,-0.07249 h -0.18677 v -0.111872 h 2.2607 v 0.111872 h -0.19065 q -0.32296,0 -0.47081,0.148117 -0.0974,0.09682 -0.0974,0.465509 v 2.647913 q 0,0.311337 0.0506,0.411083 0.0389,0.07566 0.16342,0.129977 0.16731,0.0725 0.35408,0.0725 z m 0.0895,-3.986986 h 1.43191 l 3.22567,3.074114 V 64.89713 q 0,-0.377839 -0.10905,-0.471549 -0.14397,-0.126956 -0.45525,-0.126956 h -0.18289 v -0.111873 h 1.83659 v 0.111873 h -0.18676 q -0.33464,0 -0.47472,0.157183 -0.0856,0.09683 -0.0856,0.441322 v 3.454985 h -0.14005 l -3.4786,-3.300818 v 2.523972 q 0,0.37784 0.10499,0.471548 0.14786,0.126957 0.45525,0.126957 h 0.18677 v 0.111873 h -1.83656 v -0.111873 h 0.18288 q 0.33852,0 0.4786,-0.157183 0.0856,-0.09679 0.0856,-0.441322 v -2.850434 q -0.22958,-0.208577 -0.3502,-0.275066 -0.11672,-0.06653 -0.34629,-0.123942 -0.11284,-0.02711 -0.34242,-0.02711 z m 10.65758,-0.09364 0.12061,1.393479 h -0.12062 q -0.24125,-0.625701 -0.68871,-0.900771 -0.44748,-0.275065 -1.07394,-0.275065 -0.52529,0 -0.94941,0.208567 -0.42413,0.205545 -0.66926,0.658957 -0.24125,0.453414 -0.24125,1.127484 0,0.556174 0.22958,0.964242 0.22957,0.408071 0.68871,0.625706 0.46304,0.217644 1.05448,0.217644 0.51361,0 0.90662,-0.169283 0.39299,-0.172287 0.8638,-0.680107 l 0.12063,0.06037 q -0.39689,0.547113 -0.92608,0.801019 -0.52918,0.253914 -1.2568,0.253914 -1.31128,0 -2.03114,-0.755681 -0.53695,-0.562225 -0.53695,-1.32396 0,-0.61361 0.35409,-1.127483 0.35408,-0.513866 0.97276,-0.794966 0.62256,-0.284149 1.35797,-0.284149 0.57198,0 1.1284,0.217643 0.16342,0.06653 0.23346,0.06653 0.10499,0 0.18289,-0.05743 0.10117,-0.08156 0.14396,-0.226712 z m 4.16342,2.820214 h -2.0428 l -0.35798,0.646862 q -0.13229,0.238794 -0.13229,0.356675 0,0.09364 0.11283,0.166252 0.11673,0.06948 0.49806,0.09067 v 0.111883 h -1.66149 v -0.111883 q 0.33074,-0.04534 0.42802,-0.117886 0.19844,-0.145083 0.43969,-0.589429 l 1.85603,-3.373375 h 0.13618 l 1.836584,3.409647 q 0.221784,0.411088 0.400768,0.535023 0.182885,0.12091 0.50584,0.136023 v 0.111873 h -2.081712 v -0.111873 q 0.315167,-0.01203 0.424127,-0.08156 0.112835,-0.06948 0.112835,-0.169272 0,-0.132996 -0.155651,-0.420157 z m -0.10903,-0.223695 -0.89494,-1.656448 -0.91829,1.656448 z m 7.603116,1.596003 h -1.408552 l -1.785989,-1.91641 q -0.198438,0.0058 -0.322951,0.0058 -0.0506,0 -0.109045,0 -0.05834,-0.003 -0.120615,-0.0058 v 1.190954 q 0,0.38691 0.109045,0.480619 0.147866,0.132993 0.443582,0.132993 h 0.206235 v 0.111883 h -2.260698 v -0.111884 h 0.19844 q 0.334631,0 0.478594,-0.169265 0.08165,-0.09364 0.08165,-0.444347 v -2.647916 q 0,-0.386908 -0.109045,-0.480613 -0.151734,-0.133016 -0.451345,-0.133016 h -0.198381 v -0.111873 h 1.922174 q 0.840465,0 1.237353,0.09682 0.400783,0.09363 0.677044,0.350637 0.280162,0.253904 0.280162,0.607565 0,0.37784 -0.319081,0.655935 -0.315164,0.278095 -0.980546,0.392953 l 1.089504,1.175844 q 0.373538,0.405044 0.642016,0.538055 0.268491,0.132987 0.700399,0.169265 z m -3.747053,-2.106865 q 0.074,0 0.128396,0.003 0.05452,0 0.08952,0 0.754873,0 1.13619,-0.253899 0.385224,-0.253921 0.385224,-0.646866 0,-0.383894 -0.311294,-0.622694 -0.307382,-0.241817 -0.817116,-0.241817 -0.225683,0 -0.610892,0.05743 z m 5.342403,-1.768297 v 1.620188 h 1.159529 q 0.451361,0 0.603122,-0.10571 0.202339,-0.139048 0.225672,-0.489684 h 0.143967 v 1.426728 h -0.143959 q -0.05452,-0.299245 -0.109046,-0.383885 -0.06999,-0.10571 -0.229573,-0.16625 -0.159529,-0.06035 -0.490275,-0.06035 H 67.24859 v 1.351152 q 0,0.272054 0.03119,0.332497 0.03119,0.05743 0.109045,0.09364 0.07787,0.03327 0.295733,0.03327 h 0.894937 q 0.447463,0 0.649802,-0.04829 0.202336,-0.04829 0.389103,-0.190439 0.241255,-0.187401 0.494167,-0.565243 h 0.155644 l -0.455262,1.027697 h -4.066146 v -0.111873 h 0.186768 q 0.186785,0 0.354091,-0.06948 0.12452,-0.04829 0.16731,-0.145086 0.04664,-0.09683 0.04664,-0.395986 v -2.663065 q 0,-0.38993 -0.10119,-0.480615 -0.140089,-0.120927 -0.46694,-0.120927 h -0.186769 v -0.111873 h 4.066146 l 0.05833,0.897751 h -0.151723 q -0.08165,-0.323434 -0.182885,-0.444346 -0.09737,-0.120901 -0.291831,-0.184386 -0.15564,-0.04534 -0.548634,-0.04534 z"
     id="text13"
     aria-label="SKINCARE" /><path
     style="fill:#d0d0d0;fill-opacity:1;stroke-width:0.151588"
     d="m 64.033937,-7.4799419 c 0,-0.031486 0.119373,-0.1508566 0.26528,-0.2652789 0.240429,-0.1885479 0.245791,-0.1831862 0.05722,0.057244 -0.198038,0.2525067 -0.322514,0.3328084 -0.322514,0.2080551 z"
     id="path3097" /><path
     style="fill:#ffffff;fill-opacity:1;stroke-width:0.151588"
     d="m 57.982378,36.297861 c 0.0073,-0.176593 0.04319,-0.212504 0.09158,-0.09158 0.04379,0.109426 0.0384,0.240173 -0.01187,0.290545 -0.05038,0.05038 -0.0862,-0.03915 -0.07962,-0.198951 z"
     id="path2959" /><path
     style="fill:#ffffff;fill-opacity:1;stroke-width:0.151588"
     d="m 57.830789,37.207664 c 0.0073,-0.176593 0.04319,-0.212504 0.09158,-0.09158 0.04379,0.109426 0.0384,0.240173 -0.01186,0.290545 -0.05038,0.05038 -0.0862,-0.03915 -0.07962,-0.198952 z"
     id="path2945" /><path
     style="fill:#ffffff;fill-opacity:1;stroke-width:0.277071"
     d="M 51.072185,11.300318 C 49.372546,10.437486 48.85439,8.4380033 50.041438,7.322834 c 1.328674,-1.248229 4.176797,-0.7536667 5.017041,0.8711827 0.576137,1.1141221 0.484791,1.7011872 -0.396003,2.5450353 -0.998762,0.956872 -2.384344,1.173476 -3.5903,0.561266 z"
     id="path3235" /><path
     style="fill:#ffffff;fill-opacity:1;stroke-width:0.277071"
     d="m 37.717851,14.52096 c -1.187864,-1.187868 -0.365895,-3.656355 1.514667,-4.5487366 0.94903,-0.4503407 1.569507,-0.4491015 2.754209,0.00548 0.333784,0.1280736 0.441346,-0.00548 0.441346,-0.5485864 0,-1.1339353 1.318413,-2.3957887 2.696223,-2.580553 2.417273,-0.3241517 3.835642,1.1045481 3.024305,3.0463441 -0.680632,1.6289819 -3.183761,2.4365069 -4.490014,1.4485039 -0.786369,-0.594782 -0.953438,-0.521089 -0.953438,0.420554 0,1.050244 -0.632009,2.308933 -1.445432,2.878677 -0.898154,0.629093 -2.858419,0.56173 -3.541866,-0.121713 z"
     id="path3233" /><path
     style="fill:#ffffff;fill-opacity:1;stroke-width:0.277071"
     d="m 57.753973,15.104481 c -1.119933,-0.702647 -1.472308,-1.368452 -1.472308,-2.781882 0,-2.055432 1.83245,-2.8893533 3.762645,-1.71232 0.99415,0.606233 1.893457,2.307934 1.676432,3.172216 -0.427082,1.700787 -2.344499,2.339802 -3.966769,1.321986 z"
     id="path3231" /><path
     style="fill:#ffffff;fill-opacity:1;stroke-width:0.277071"
     d="m 49.878949,16.839845 c -0.213106,-0.256761 -0.377279,-1.109001 -0.380282,-1.97405 -0.0046,-1.323075 0.09002,-1.594018 0.723373,-2.071054 0.868403,-0.654097 1.717709,-0.477393 2.351004,0.489147 0.581944,0.888159 0.297795,2.044659 -0.770919,3.137776 -0.958683,0.980569 -1.380362,1.072253 -1.923193,0.418181 z"
     id="path3229" /><path
     style="fill:#ffffff;fill-opacity:1;stroke-width:0.277071"
     d="m 43.25929,18.168972 c -1.15058,-0.621722 -1.610099,-1.657814 -1.218566,-2.747529 0.2538,-0.70638 0.378947,-0.759171 1.715917,-0.723825 1.334026,0.03544 1.442153,-0.01005 1.442153,-0.603623 0,-1.564254 2.303074,-2.12898 3.186139,-0.781255 0.574806,0.877264 0.439535,2.965647 -0.235826,3.641022 -0.429043,0.429043 -0.730848,0.369897 -2.11909,-0.415353 -0.07618,-0.04312 -0.138547,0.389288 -0.138547,0.960859 0,0.952814 -0.06911,1.045648 -0.831218,1.116466 -0.457165,0.0425 -1.267601,-0.158543 -1.800962,-0.446771 z"
     id="path3227" /><path
     style="fill:#ffffff;fill-opacity:1;stroke-width:0.277071"
     d="m 52.864446,18.769394 c -0.369938,-0.369939 -0.169272,-1.915284 0.36185,-2.786373 0.586478,-0.961878 1.53606,-1.34822 2.635522,-1.072271 0.775329,0.194576 1.135423,1.145781 0.855692,2.260313 -0.263096,1.048206 -3.189345,2.262071 -3.853085,1.598331 z"
     id="path3225" /><path
     style="fill:#ffffff;fill-opacity:1;stroke-width:0.277071"
     d="m 34.648749,20.63785 c -0.598706,-0.598706 -0.809902,-1.073092 -0.809902,-1.819182 0,-3.096599 3.314982,-4.788401 4.581935,-2.338391 0.884732,1.710884 0.212932,3.897634 -1.40511,4.573698 -1.287085,0.537778 -1.439884,0.51091 -2.366923,-0.416103 z"
     id="path3223" /><path
     style="fill:#ffffff;fill-opacity:1;stroke-width:0.277071"
     d="m 40.627103,21.409557 c -0.756889,-0.45075 -0.960532,-0.803752 -0.965507,-1.673666 -0.01005,-1.770631 2.085345,-2.194064 3.726586,-0.753038 1.583843,1.390634 1.222523,2.345234 -0.988063,2.610469 -0.713559,0.08563 -1.448601,0.0097 -1.773016,-0.183778 z"
     id="path3221" /><path
     style="fill:#ffffff;fill-opacity:1;stroke-width:0.277071"
     d="m 55.866058,25.455322 c -0.962382,-0.488836 -1.80097,-1.403456 -1.80097,-1.964249 0,-0.213939 0.397465,-0.6307 0.883259,-0.926131 l 0.883259,-0.537139 -0.717809,-0.272899 c -1.424754,-0.54169 -1.314784,-1.580465 0.282198,-2.66564 1.331484,-0.904767 2.348948,-0.891298 3.08214,0.04087 0.762579,0.969471 0.724586,1.41261 -0.193218,2.253544 l -0.767477,0.703193 0.767477,0.767477 c 0.945252,0.945252 0.964766,1.46922 0.0874,2.346595 -0.7864,0.786403 -1.346944,0.843317 -2.506235,0.254466 z"
     id="path3219" /><path
     style="fill:#ffffff;fill-opacity:1;stroke-width:0.277071"
     d="m 40.115906,25.651323 c -0.672414,-0.743008 -0.589916,-2.140588 0.157245,-2.66392 1.235672,-0.865498 4.094428,-0.336246 4.094428,0.757993 0,0.300423 -0.445267,0.966162 -0.989477,1.479423 -1.142572,1.077579 -2.511062,1.256501 -3.262192,0.426504 z"
     id="path3217" /><path
     style="fill:#ffffff;fill-opacity:1;stroke-width:0.277071"
     d="m 60.620789,27.650856 c -1.50501,-1.505003 -1.110744,-4.051453 0.777245,-5.020048 l 1.003319,-0.514739 -0.938251,-0.447417 c -1.884992,-0.89889 -2.355998,-3.62563 -0.881059,-5.100573 0.756524,-0.756518 1.492525,-0.83247 2.586234,-0.266892 0.966638,0.499866 1.425541,1.502157 1.425541,3.113519 0,1.029016 -0.143536,1.397192 -0.767477,1.968891 l -0.767477,0.70319 0.767477,0.767478 c 0.640919,0.640924 0.767477,1.004003 0.767477,2.20186 0,1.261822 -0.113304,1.547703 -0.942048,2.376421 -1.140232,1.140237 -2.043967,1.205331 -3.030981,0.218321 z"
     id="path3215" /><path
     style="fill:#ffffff;fill-opacity:1;stroke-width:0.277071"
     d="m 35.284273,28.496309 c -1.978612,-1.385879 -1.850458,-5.070528 0.191947,-5.51912 1.661164,-0.364851 3.349901,1.240902 3.349901,3.185284 0,2.211257 -1.915171,3.473218 -3.541868,2.333836 z"
     id="path3213" /><path
     style="fill:#ffffff;fill-opacity:1;stroke-width:0.277071"
     d="m 53.64248,28.756446 c -0.70051,-0.755857 -1.140318,-2.290208 -0.86335,-3.011965 0.204299,-0.532373 1.218401,-0.533411 2.488951,-0.0024 1.090362,0.455578 1.567727,1.119081 1.567727,2.179022 0,1.602724 -1.997854,2.125425 -3.193328,0.835479 z"
     id="path3211" /><path
     style="fill:#ffffff;fill-opacity:1;stroke-width:0.277071"
     d="m 45.657341,31.192747 c -0.252215,-0.278694 -0.458547,-0.82892 -0.458547,-1.222755 0,-0.670697 -0.04959,-0.697352 -0.782354,-0.420758 -1.114601,0.420716 -2.219763,0.07355 -2.429791,-0.763266 -0.430895,-1.716815 0.721166,-2.982346 2.750468,-3.021373 l 1.154353,-0.0221 -0.03169,1.03902 c -0.03378,1.112077 0.171812,1.28908 0.724281,0.623413 0.944307,-1.137823 2.216573,-0.03838 2.216573,1.915174 0,1.914856 -2.017499,3.116833 -3.143381,1.872746 z"
     id="path3209" /><path
     style="fill:#ffffff;fill-opacity:1;stroke-width:0.277071"
     d="m 50.001685,31.263141 c -0.625251,-0.625257 -0.696908,-0.884436 -0.580231,-2.098725 0.222565,-2.316422 1.463011,-2.809921 2.699197,-1.073861 0.948524,1.332083 1.008678,2.353234 0.187042,3.174889 -0.896301,0.896302 -1.407895,0.89579 -2.305992,-0.0022 z"
     id="path3207" /><path
     style="fill:#ffffff;fill-opacity:1;stroke-width:0.277071"
     d="m 56.835808,33.638923 c -0.393502,-0.393541 -0.554143,-0.923571 -0.554143,-1.828674 0,-1.080037 0.143738,-1.418287 0.942045,-2.216574 0.747408,-0.74741 1.164013,-0.942046 2.016384,-0.942046 2.172593,0 3.011753,1.433019 2.028531,3.464084 -0.915955,1.892113 -3.258847,2.697181 -4.432817,1.52321 z"
     id="path3205" /><path
     style="fill:#ffffff;fill-opacity:1;stroke-width:0.277071"
     d="m 50.034956,36.83784 c -1.919853,-1.919848 0.777119,-4.966561 3.578139,-4.042142 2.000214,0.660129 2.386098,2.289398 0.89531,3.780186 -0.827236,0.827234 -1.115791,0.942045 -2.367703,0.942045 -1.144241,0 -1.559916,-0.134252 -2.105746,-0.680089 z"
     id="path3203" /><path
     style="fill:#ffffff;fill-opacity:1;stroke-width:0.277071"
     d="m 44.195319,37.11979 c -1.001848,-0.436029 -1.767246,-1.410175 -1.767246,-2.249231 0,-0.539084 -0.118441,-0.574735 -1.522312,-0.458314 -1.474056,0.122225 -1.557495,0.09108 -2.632184,-0.983628 -1.997834,-1.997833 -1.32712,-4.222851 1.27295,-4.222851 1.080035,0 1.418287,0.143738 2.216573,0.942045 0.766897,0.766892 0.942049,1.154571 0.942049,2.085152 v 1.143109 L 43.5226,32.953351 c 1.648289,-0.852364 3.571459,-0.408973 4.445744,1.024995 0.749825,1.229823 0.69886,1.776216 -0.254591,2.729671 -0.910029,0.910029 -2.063438,1.045019 -3.51843,0.411769 z"
     id="path3201" /></svg>
