<svg width="195" height="36" viewBox="0 0 195 36" fill="none" xmlns="http://www.w3.org/2000/svg">
<g clip-path="url(#clip0_2_50)">
<rect width="195" height="36" fill="white"/>
<path d="M28.8178 6.44857H32.1731V28.5514H28.8178V18.4529H16.6959V28.5514H13.3686V6.44857H16.6959V16.1705H28.8178V6.44857ZM0.183662 6.44857H3.50474V28.5514H0.183662V6.44857ZM56.0025 17.9143H59.3609V27.1162C57.8493 27.5499 55.0636 28.9187 51.471 28.9187C44.2174 28.9187 39.2482 24.1441 39.2482 17.5671C39.2482 11.5565 43.848 6.0813 51.4027 6.0813C54.5251 6.0813 57.5141 6.7819 58.588 7.04887V10.8883H58.4204C56.9104 9.0195 54.8619 7.34978 51.2692 7.34978C46.0641 7.34978 42.9417 11.825 42.9417 17.2662C42.9417 23.0423 46.5002 27.6162 51.7053 27.6162C53.4853 27.6162 55.0636 27.1162 56.0025 26.482V17.9143ZM62.0441 7.7294C62.0441 7.46089 61.8455 7.3359 61.5397 7.3359H61.0742V8.6445H61.3613V8.1368H61.5009L61.8191 8.6445H62.1186L61.771 8.08896C61.8521 8.07112 61.9241 8.02512 61.9742 7.95923C62.0242 7.89333 62.049 7.81185 62.0441 7.7294ZM61.7617 7.74175C61.7617 7.86675 61.6841 7.9331 61.5335 7.9331H61.3644V7.5504H61.5335C61.6779 7.5504 61.7617 7.59824 61.7617 7.73558V7.74175ZM61.5335 6.67233C61.3581 6.67131 61.1842 6.70489 61.0219 6.77113C60.8596 6.83736 60.7122 6.93494 60.5881 7.05821C60.4639 7.18149 60.3656 7.32802 60.2988 7.48931C60.232 7.65061 60.1981 7.82348 60.1989 7.99792C60.1986 8.26046 60.2766 8.5172 60.4231 8.73565C60.5695 8.95409 60.7779 9.12444 61.0217 9.22512C61.2655 9.32581 61.5339 9.35231 61.7929 9.30127C62.0519 9.25024 62.2899 9.12397 62.4767 8.93843C62.6635 8.75289 62.7908 8.51642 62.8424 8.25894C62.894 8.00146 62.8677 7.73454 62.7667 7.49195C62.6658 7.24936 62.4947 7.042 62.2752 6.8961C62.0557 6.75021 61.7976 6.67233 61.5335 6.67233V6.67233ZM61.5335 9.0982C61.3123 9.10341 61.0946 9.04294 60.9081 8.92451C60.7217 8.80607 60.575 8.63506 60.4867 8.4333C60.3985 8.23155 60.3728 8.00822 60.4128 7.79185C60.4528 7.57547 60.5568 7.37588 60.7115 7.21856C60.8662 7.06125 61.0645 6.95336 61.2811 6.90867C61.4978 6.86398 61.7229 6.88453 61.9277 6.96768C62.1326 7.05084 62.3078 7.19283 62.4311 7.37551C62.5544 7.5582 62.6201 7.77328 62.6199 7.99329C62.6271 8.13849 62.6043 8.28364 62.5527 8.41967C62.501 8.5557 62.4218 8.6797 62.3199 8.78394C62.218 8.88818 62.0956 8.97043 61.9603 9.02556C61.825 9.08069 61.6797 9.10752 61.5335 9.10437V9.0982Z" fill="black"/>
<path d="M81.5578 13.7478V4.74646H80.5614C80.5614 6.87758 79.3649 10.1985 77.6004 13.0117C75.6295 16.1551 73.4304 17.9498 71.5666 17.9498V18.9405C75.6279 18.9405 78.5114 17.8603 80.5677 16.1906V31.363H81.564V15.2724C83.0693 13.683 84.0129 11.7231 84.6042 9.66763V35.0204H85.602V-0.0203857H84.6042C84.598 5.28349 84.0889 10.3497 81.5578 13.7478ZM80.5614 14.8913C79.1647 16.2616 77.3024 17.24 74.8194 17.6859C76.0609 16.76 77.3025 15.3573 78.4447 13.5364C79.2918 12.1809 80.0009 10.7448 80.5614 9.24943V14.8913Z" fill="black"/>
<path d="M99.5645 10.6398V10.5472C99.5645 8.20778 101.709 6.36215 105.013 6.36215C108.317 6.36215 110.462 8.21396 110.462 10.5287V10.6213C110.462 12.9499 108.317 14.8172 105.047 14.8172C101.709 14.8125 99.5645 12.9453 99.5645 10.6398ZM109.341 10.6059V10.5133C109.341 8.67999 107.754 7.18158 105.018 7.18158C102.282 7.18158 100.693 8.5874 100.693 10.5364V10.6275C100.693 12.6104 102.479 13.9715 105.052 13.9715C107.692 13.9715 109.337 12.5873 109.337 10.6059H109.341Z" fill="black"/>
<path d="M112.875 6.4671H114.301L120.284 13.4762V6.4671H121.316V14.7092H120.064L113.912 7.43467V14.7092H112.88L112.875 6.4671Z" fill="black"/>
<path d="M124.283 6.4671H131.267V7.28961H125.37V10.0673H130.336V10.8975H125.37V13.8789H131.548V14.7092H124.283V6.4671Z" fill="black"/>
<path d="M100.167 20.3H104.108C105.952 20.3 107.506 20.979 107.506 22.7197V22.766C107.506 24.1965 106.289 24.911 105.128 25.1178L108.17 28.5421H106.871L103.904 25.1996H101.245V28.5421H100.159L100.167 20.3ZM104.178 24.3925C105.558 24.3925 106.427 23.8277 106.427 22.7784V22.7321C106.427 21.5562 105.496 21.1179 104.178 21.1179H101.245V24.3925H104.178Z" fill="black"/>
<path d="M110.498 20.3H117.481V21.1287H111.584V23.9064H116.55V24.7367H111.584V27.7104H117.764V28.5406H110.498V20.3Z" fill="black"/>
<path d="M119.538 20.3H120.639L123.085 27.2628L125.938 20.3H126.703L129.496 27.286L132.035 20.3H133.044L130.005 28.5421H128.986L126.307 21.763L123.503 28.5421H122.494L119.538 20.3Z" fill="black"/>
<path d="M137.689 20.3H139.127L143.088 28.5421H141.975L140.85 26.1795H135.853L134.706 28.5421H133.708L137.689 20.3ZM136.239 25.3724H140.46L138.373 20.9914L136.239 25.3724Z" fill="black"/>
<path d="M145.388 20.3H149.329C151.173 20.3 152.727 20.979 152.727 22.7197V22.766C152.727 24.1965 151.508 24.911 150.349 25.1178L153.388 28.5421H152.089L149.12 25.1996H146.466V28.5421H145.38L145.388 20.3ZM149.399 24.3925C150.779 24.3925 151.648 23.8277 151.648 22.7784V22.7321C151.648 21.5562 150.709 21.1179 149.399 21.1179H146.466V24.3925H149.399Z" fill="black"/>
<path d="M155.717 20.3H159.485C163.045 20.3 164.772 22.0515 164.772 24.3462V24.4496C164.772 26.732 163.114 28.5421 159.451 28.5421H155.717V20.3ZM159.415 27.7073C162.268 27.7073 163.66 26.4388 163.66 24.4342V24.3416C163.66 22.4389 162.407 21.1133 159.404 21.1133H156.796V27.7073H159.415Z" fill="black"/>
<path d="M166.782 26.0283H167.837C168.011 27.0437 168.789 27.8277 171.003 27.8277C172.777 27.8277 173.773 27.2274 173.773 26.2243C173.773 25.2567 173.042 24.945 170.771 24.6811C168.499 24.4173 167.212 23.8741 167.212 22.3988C167.212 21.1303 168.545 20.1967 170.724 20.1967C172.903 20.1967 174.261 20.9575 174.481 22.4682H173.496C173.24 21.3957 172.336 21.0161 170.724 21.0161C168.973 21.0161 168.221 21.5454 168.221 22.3756C168.221 23.1133 168.765 23.5407 171.084 23.8062C173.519 24.0824 174.809 24.5669 174.809 26.1919C174.809 27.6209 173.395 28.6471 170.996 28.6471C168.229 28.6455 166.987 27.482 166.782 26.0283Z" fill="black"/>
</g>
<defs>
<clipPath id="clip0_2_50">
<rect width="195" height="36" fill="white"/>
</clipPath>
</defs>
</svg>
