<svg width="24" height="25" fill="none" xmlns="http://www.w3.org/2000/svg"><path fill-rule="evenodd" clip-rule="evenodd" d="M12.333.978c-3.169 0-3.566.013-4.81.07-1.242.057-2.09.254-2.832.542a5.719 5.719 0 00-2.067 1.346A5.719 5.719 0 001.28 50.002c-.29.742-.487 1.59-.544 2.832-.056 1.246-.07 1.642-.07 4.81 0 3.169.013 3.566.07 4.81.057 1.242.254 2.09.543 2.833a5.719 5.719 0 001.345 2.066 5.72 5.72 0 002.067 1.346c.742.288 1.59.485 2.832.542 1.244.057 1.641.07 4.81.07 3.168 0 3.566-.013 4.81-.07 1.242-.057 2.09-.254 2.832-.542a5.72 5.72 0 002.066-1.346 5.72 5.72 0 001.346-2.066c.288-.742.485-1.59.542-2.832.057-1.245.07-1.642.07-4.81 0-3.169-.013-3.566-.07-4.81-.056-1.242-.254-2.09-.542-2.833a5.72 5.72 0 00-1.346-2.066 5.718 5.718 0 00-2.066-1.346c-.742-.288-1.59-.485-2.832-.542-1.245-.057-1.642-.07-4.81-.07zm0 2.102c3.115 0 3.484.012 4.714.068 1.137.052 1.755.242 2.166.402.545.211.934.464 1.342.872.408.409.66.797.872 1.342.16.41.35 1.029.402 2.166.056 1.23.068 1.6.068 4.715 0 3.115-.012 3.484-.068 4.714-.052 1.137-.242 1.755-.402 2.166a3.614 3.614 0 01-.872 1.342 3.616 3.616 0 01-1.342.872c-.41.16-1.029.35-2.166.402-1.23.056-1.599.068-4.714.068-3.116 0-3.485-.012-4.715-.068-1.137-.052-1.755-.242-2.166-.402a3.616 3.616 0 01-1.341-.872 3.615 3.615 0 01-.873-1.342c-.16-.411-.35-1.029-.402-2.166-.056-1.23-.068-1.6-.068-4.715 0-3.115.012-3.484.068-4.714.052-1.137.242-1.755.402-2.166.211-.545.464-.933.873-1.342a3.614 3.614 0 011.341-.872c.411-.16 1.029-.35 2.166-.402 1.23-.056 1.6-.068 4.715-.068zm0 3.573a5.991 5.991 0 100 11.982 5.991 5.991 0 000-11.982zm0 9.88a3.889 3.889 0 110-7.777 3.889 3.889 0 010 7.777zM19.96 6.417a1.4 1.4 0 11-2.8 0 1.4 1.4 0 012.8 0z" fill="#000"/><mask id="a" style="mask-type:luminance" maskUnits="userSpaceOnUse" x="0" y="0" width="24" height="25"><path fill-rule="evenodd" clip-rule="evenodd" d="M12.333.978c-3.169 0-3.566.013-4.81.07-1.242.057-2.09.254-2.832.542a5.719 5.719 0 00-2.067 1.346A5.719 5.719 0 001.28 50.002c-.29.742-.487 1.59-.544 2.832-.056 1.246-.07 1.642-.07 4.81 0 3.169.013 3.566.07 4.81.057 1.242.254 2.09.543 2.833a5.719 5.719 0 001.345 2.066 5.72 5.72 0 002.067 1.346c.742.288 1.59.485 2.832.542 1.244.057 1.641.07 4.81.07 3.168 0 3.566-.013 4.81-.07 1.242-.057 2.09-.254 2.832-.542a5.72 5.72 0 002.066-1.346 5.72 5.72 0 001.346-2.066c.288-.742.485-1.59.542-2.832.057-1.245.07-1.642.07-4.81 0-3.169-.013-3.566-.07-4.81-.056-1.242-.254-2.09-.542-2.833a5.72 5.72 0 00-1.346-2.066 5.718 5.718 0 00-2.066-1.346c-.742-.288-1.59-.485-2.832-.542-1.245-.057-1.642-.07-4.81-.07zm0 2.102c3.115 0 3.484.012 4.714.068 1.137.052 1.755.242 2.166.402.545.211.934.464 1.342.872.408.409.66.797.872 1.342.16.41.35 1.029.402 2.166.056 1.23.068 1.6.068 4.715 0 3.115-.012 3.484-.068 4.714-.052 1.137-.242 1.755-.402 2.166a3.614 3.614 0 01-.872 1.342 3.616 3.616 0 01-1.342.872c-.41.16-1.029.35-2.166.402-1.23.056-1.599.068-4.714.068-3.116 0-3.485-.012-4.715-.068-1.137-.052-1.755-.242-2.166-.402a3.616 3.616 0 01-1.341-.872 3.615 3.615 0 01-.873-1.342c-.16-.411-.35-1.029-.402-2.166-.056-1.23-.068-1.6-.068-4.715 0-3.115.012-3.484.068-4.714.052-1.137.242-1.755.402-2.166.211-.545.464-.933.873-1.342a3.614 3.614 0 011.341-.872c.411-.16 1.029-.35 2.166-.402 1.23-.056 1.6-.068 4.715-.068zm0 3.573a5.991 5.991 0 100 11.982 5.991 5.991 0 000-11.982zm0 9.88a3.889 3.889 0 110-7.777 3.889 3.889 0 010 7.777zM19.96 6.417a1.4 1.4 0 11-2.8 0 1.4 1.4 0 012.8 0z" fill="#000"/></mask><g mask="url(#a)"><path fill="#000" d="M.666.978h23.333v23.333H.666z"/></g></svg>