<svg width="16" height="20" fill="none" xmlns="http://www.w3.org/2000/svg"><path d="M7.945 9.853c.523 0 .97-.186 1.342-.559.372-.373.558-.82.558-1.344 0-.524-.187-.971-.56-1.343a1.836 1.836 0 00-1.344-.557c-.524 0-.971.186-1.343.559-.371.373-.557.82-.557 1.344 0 .524.186.971.56 1.343.372.372.82.557 1.344.557zM7.943 17.9c2.058-1.843 3.633-3.61 4.725-5.302 1.092-1.692 1.638-3.174 1.638-4.446 0-1.918-.61-3.495-1.828-4.73-1.219-1.236-2.73-1.854-4.535-1.854-1.805 0-3.317.618-4.535 1.853-1.22 1.236-1.828 2.813-1.828 4.73 0 1.273.546 2.755 1.637 4.447 1.092 1.692 2.667 3.46 4.726 5.302zm0 2.1c-2.648-2.294-4.633-4.43-5.957-6.406C.663 11.6180.001 9.8040.001 8.152c0-2.428.786-4.394 2.357-5.897C3.928.752 5.79 0 7.943 0c2.152 0 4.014.752 5.585 2.255 1.57 1.503 2.356 3.469 2.356 5.897 0 1.652-.662 3.466-1.985 5.442S10.591 17.706 7.943 20z" fill="#333"/></svg>