<svg width="75" height="74" viewBox="0 0 75 74" fill="none" xmlns="http://www.w3.org/2000/svg">
<path d="M14.1973 31.65C14.1973 15.7385 24.657 8.22949 37.5578 8.22949C50.4586 8.22949 60.9184 15.7385 60.9184 31.65C60.9184 47.5616 50.4586 65.8362 37.5578 65.8362C24.657 65.8362 14.1973 47.5556 14.1973 31.65Z" stroke="#ac5607" stroke-width="1.49997" stroke-linecap="round" stroke-linejoin="round"/>
<path d="M35.3984 47.7383C36.0282 48.2181 36.7659 48.494 37.5636 48.494C38.3612 48.494 39.0989 48.2181 39.7287 47.7383" stroke="#ac5607" stroke-width="1.49997" stroke-linecap="round" stroke-linejoin="round"/>
<path d="M43.9648 37.1035C45.3023 38.1231 46.8737 38.7169 48.559 38.7169C50.2443 38.7169 51.8157 38.1291 53.1531 37.1035" stroke="#ac5607" stroke-width="1.49997" stroke-linecap="round" stroke-linejoin="round"/>
<path d="M56.2151 30.8759C56.2211 30.8039 53.7381 29.0586 51.8309 29.0586C49.9236 29.0586 47.0868 30.0002 43.9561 30.8759" stroke="#ac5607" stroke-width="1.49997" stroke-linecap="round" stroke-linejoin="round"/>
<path d="M33.4561 56.5381C34.6616 57.4617 36.083 57.9895 37.6004 57.9895C39.1178 57.9895 40.5392 57.4557 41.7447 56.5381" stroke="#ac5607" stroke-width="1.49997" stroke-linecap="round" stroke-linejoin="round"/>
<path d="M44.0049 54.015C43.0813 53.3073 41.9897 52.8994 40.8202 52.8994C39.6607 52.8994 38.5779 53.3003 37.6594 53.9967C37.6439 54.0085 37.6249 54.015 37.6054 54.015V54.015C37.586 54.015 37.5671 54.0086 37.5516 53.9969C36.6273 53.3003 35.5503 52.8994 34.3908 52.8994C33.2212 52.8994 32.1297 53.3073 31.2061 54.015" stroke="#ac5607" stroke-width="1.49997" stroke-linecap="round" stroke-linejoin="round"/>
<path d="M31.158 37.1035C29.8206 38.1231 28.2492 38.7169 26.5639 38.7169C24.8786 38.7169 23.3072 38.1291 21.9697 37.1035" stroke="#ac5607" stroke-width="1.49997" stroke-linecap="round" stroke-linejoin="round"/>
<path d="M18.9053 30.8759C18.8993 30.8039 21.3823 29.0586 23.2895 29.0586C25.1967 29.0586 28.0336 30.0002 31.1643 30.8759" stroke="#ac5607" stroke-width="1.49997" stroke-linecap="round" stroke-linejoin="round"/>
<path d="M20.1932 41.8199C21.4601 43.0868 24.0967 43.1767 26.6248 42.8529C28.8197 42.5718 30.9379 44.3772 30.4192 46.5284C28.4608 54.6505 25.4707 54.3102 23.8155 52.6722C23.5888 52.4478 23.3506 52.2367 23.1079 52.0297C19.9904 49.37 17.5998 39.2265 20.1932 41.8199Z" fill="white"/>
<path d="M54.6799 41.8199C53.413 43.0868 50.7764 43.1767 48.2482 42.8529C46.0533 42.5718 43.9352 44.3772 44.4539 46.5284C46.4122 54.6505 49.4024 54.3102 51.0575 52.6722C51.2843 52.4478 51.5224 52.2367 51.7651 52.0297C54.8827 49.37 57.2732 39.2265 54.6799 41.8199Z" fill="white"/>
<path d="M52.5815 21.2519C52.5826 21.2519 52.5836 21.2529 52.5836 21.2541C52.5813 25.7958 45.3513 26.8228 37.0747 26.8228C28.7967 26.8228 22.5957 25.7955 22.5957 21.2519C22.5957 16.7083 29.3096 13.0283 37.5875 13.0283C45.8642 13.0283 52.5773 16.7072 52.5794 21.2498C52.5794 21.251 52.5803 21.2519 52.5815 21.2519Z" fill="white"/>
<rect x="35.791" y="29.8203" width="3.59855" height="16.1935" rx="1.79927" fill="white"/>
<path d="M30.5639 58.3765C30.5643 58.3765 30.5643 58.3759 30.5639 58.3759C29.356 58.086 28.6691 59.8798 29.6969 60.6349C32.1201 62.4094 35.0863 64.0353 37.8141 64.0141C40.9083 63.9886 43.9362 62.0528 46.1653 60.1425C47.0833 59.3571 46.3859 57.7524 45.2604 58.0538C37.8147 60.6347 37.8141 60.6349 30.5639 58.3771C30.5636 58.377 30.5636 58.3765 30.5639 58.3765Z" fill="white"/>
<path d="M56.6914 1.58008H70.6667C72.3235 1.58008 73.6666 2.9232 73.6666 4.58001V17.9699" stroke="#ac5607" stroke-width="1.49997"/>
<path d="M18.6426 72.4121L4.66732 72.4121C3.0105 72.4121 1.66738 71.069 1.66738 69.4122L1.66739 56.0223" stroke="#ac5607" stroke-width="1.49997"/>
<path d="M14.1973 31.651C14.1973 15.7394 24.657 8.23047 37.5578 8.23047C50.4586 8.23047 60.9184 15.7394 60.9184 31.651C60.9184 47.5626 50.4586 65.8372 37.5578 65.8372C24.657 65.8372 14.1973 47.5566 14.1973 31.651Z" stroke="#ac5607" stroke-width="1.49997" stroke-linecap="round" stroke-linejoin="round"/>
<path d="M35.3984 47.7393C36.0282 48.2191 36.7659 48.495 37.5636 48.495C38.3612 48.495 39.0989 48.2191 39.7287 47.7393" stroke="#ac5607" stroke-width="1.49997" stroke-linecap="round" stroke-linejoin="round"/>
<path d="M43.9648 37.1045C45.3023 38.1241 46.8737 38.7179 48.559 38.7179C50.2443 38.7179 51.8157 38.1301 53.1531 37.1045" stroke="#ac5607" stroke-width="1.49997" stroke-linecap="round" stroke-linejoin="round"/>
<path d="M56.2151 30.8769C56.2211 30.8049 53.7381 29.0596 51.8309 29.0596C49.9236 29.0596 47.0868 30.0012 43.9561 30.8769" stroke="#ac5607" stroke-width="1.49997" stroke-linecap="round" stroke-linejoin="round"/>
<path d="M33.4561 56.5391C34.6616 57.4627 36.083 57.9905 37.6004 57.9905C39.1178 57.9905 40.5392 57.4567 41.7447 56.5391" stroke="#ac5607" stroke-width="1.49997" stroke-linecap="round" stroke-linejoin="round"/>
<path d="M44.0049 54.016C43.0813 53.3082 41.9897 52.9004 40.8202 52.9004C39.6607 52.9004 38.5779 53.3012 37.6594 53.9977C37.6439 54.0095 37.6249 54.016 37.6054 54.016V54.016C37.586 54.016 37.5671 54.0096 37.5516 53.9979C36.6273 53.3013 35.5503 52.9004 34.3908 52.9004C33.2212 52.9004 32.1297 53.3082 31.2061 54.016" stroke="#ac5607" stroke-width="1.49997" stroke-linecap="round" stroke-linejoin="round"/>
<path d="M31.158 37.1045C29.8206 38.1241 28.2492 38.7179 26.5639 38.7179C24.8786 38.7179 23.3072 38.1301 21.9697 37.1045" stroke="#ac5607" stroke-width="1.49997" stroke-linecap="round" stroke-linejoin="round"/>
<path d="M18.9053 30.8769C18.8993 30.8049 21.3823 29.0596 23.2895 29.0596C25.1967 29.0596 28.0336 30.0012 31.1643 30.8769" stroke="#ac5607" stroke-width="1.49997" stroke-linecap="round" stroke-linejoin="round"/>
<path d="M6.11229 5.57628C6.58671 5.49354 6.95821 5.12204 7.04095 4.64762L7.47673 1.35352H7.85661L8.29239 4.64762C8.37513 5.12204 8.74663 5.49354 9.22105 5.57628L12.5153 6.01208V6.39192L9.22105 6.82772C8.74663 6.91046 8.37513 7.28196 8.29239 7.75638L7.85661 11.0505H7.47673L7.04095 7.75638C6.95821 7.28196 6.58671 6.91046 6.11229 6.82772L2.81836 6.39197V6.01203L6.11229 5.57628Z" fill="url(#paint0_linear_30019_9051)"/>
<path d="M64.3354 64.3634C65.0471 64.2393 65.6043 63.6821 65.7284 62.9704L66.3821 58.0293H66.9519L67.6056 62.9705C67.7297 63.6821 68.2869 64.2393 68.9986 64.3634L73.94 65.0171V65.5869L68.9986 66.2406C68.2869 66.3647 67.7297 66.922 67.6056 67.6336L66.9519 72.5748H66.3821L65.7284 67.6336C65.6043 66.922 65.0471 66.3647 64.3354 66.2406L59.3945 65.587V65.0171L64.3354 64.3634Z" fill="url(#paint1_linear_30019_9051)"/>
<defs>
<linearGradient id="paint0_linear_30019_9051" x1="11.125" y1="1.35352" x2="2.88479" y2="11.1066" gradientUnits="userSpaceOnUse">
<stop offset="0.203125" stop-color="#ac5607"/>
<stop offset="0.760417" stop-color="#ac5607"/>
</linearGradient>
<linearGradient id="paint1_linear_30019_9051" x1="71.8544" y1="58.0293" x2="59.4942" y2="72.6589" gradientUnits="userSpaceOnUse">
<stop offset="0.203125" stop-color="#ac5607"/>
<stop offset="0.760417" stop-color="#ac5607"/>
</linearGradient>
</defs>
</svg>
