<svg width="73" height="73" viewBox="0 0 73 73" fill="none" xmlns="http://www.w3.org/2000/svg">
<path d="M3.94781 57.8479C3.61969 57.7105 3.48279 57.3192 3.65368 570.0072L8.39624 48.3491C8.54361 48.0801 8.87036 47.9657 9.15332 48.0842L16.5721 51.1908C16.9003 51.3282 17.0372 51.7195 16.8663 52.0315L12.1237 60.6895C11.9763 60.9586 11.6496 61.0729 11.3666 60.9544L3.94781 57.8479Z" stroke="white" stroke-width="1.5"/>
<path d="M67.7963 57.8479C68.1244 57.7105 68.2614 57.3192 68.0905 570.0072L63.3479 48.3491C63.2005 48.0801 62.8738 47.9657 62.5908 48.0842L55.172 51.1908C54.8439 51.3282 54.707 51.7195 54.8779 52.0315L59.6204 60.6895C59.7678 60.9586 60.0945 61.0729 60.3775 60.9544L67.7963 57.8479Z" stroke="white" stroke-width="1.5"/>
<rect width="14.3206" height="3.22" rx="1.61" transform="matrix(0.982589 0.185794 -0.185801 0.982587 35.4014 32.8672)" stroke="#ac5607" stroke-width="1.5"/>
<rect width="17.2864" height="11.1005" rx="2.39715" transform="matrix(0.982589 0.185794 -0.185801 0.982587 33.3574 35.9307)" stroke="#ac5607" stroke-width="1.5"/>
<rect width="14.1512" height="25.9293" rx="2.39715" transform="matrix(0.961601 -0.274451 0.27446 0.961599 4.44922 19.6943)" stroke="#ac5607" stroke-width="1.5"/>
<rect x="7.94141" y="12.793" width="3.64361" height="5.67725" transform="rotate(-15.9296 7.94141 12.793)" stroke="#ac5607" stroke-width="1.5"/>
<path d="M4.36035 13.8145L12.4272 11.512" stroke="#ac5607" stroke-width="1.5" stroke-linecap="round"/>
<path d="M90.00977 48.0303H62.9473V71.4028C62.9473 71.7338 62.679 720.0021 62.348 720.0021H9.60905C9.27808 720.0021 90.00977 71.7338 90.00977 71.4028V48.0303Z" fill="#E8E4F0" stroke="white" stroke-width="1.5"/>
<path d="M63.929 14.7215C64.4941 14.9627 64.7566 15.6163 64.5154 16.1813L630.0037 19.7228L60.9575 18.8494L62.4692 15.3079C62.7104 14.7428 63.364 14.4803 63.929 14.7215V14.7215Z" stroke="#ac5607" stroke-width="1.5"/>
<rect width="7.65315" height="11.1963" rx="1.19858" transform="matrix(0.919719 0.392577 -0.39259 0.919714 57.2637 20.8311)" stroke="#ac5607" stroke-width="1.5"/>
<rect width="5.669" height="3.25968" rx="1.19858" transform="matrix(0.919719 0.392577 -0.39259 0.919714 59.4561 18.2217)" stroke="#ac5607" stroke-width="1.5"/>
<path d="M48.5661 18.7909C48.8006 18.75 48.9843 18.5663 49.0252 18.3318L49.2407 16.7031H49.4285L49.6439 18.3318C49.6848 18.5663 49.8685 18.75 50.1031 18.7909L51.7318 190.0064V19.1942L50.1031 19.4096C49.8685 19.4505 49.6848 19.6342 49.6439 19.8688L49.4285 21.4974H49.2407L49.0252 19.8688C48.9843 19.6342 48.8006 19.4505 48.5661 19.4096L46.9375 19.1942V190.0064L48.5661 18.7909Z" fill="url(#paint0_linear_30019_6622)"/>
<path d="M30.0593 26.7071C30.3877 26.6498 30.6448 26.3927 30.7021 26.0643L310.0037 23.7842H31.2667L31.5683 26.0643C31.6256 26.3927 31.8827 26.6498 32.2111 26.7071L34.4913 270.0087V27.2717L32.2111 27.5733C31.8827 27.6306 31.6256 27.8877 31.5683 28.2161L31.2667 30.4962H310.0037L30.7021 28.2161C30.6448 27.8877 30.3877 27.6306 30.0593 27.5733L27.7793 27.2717V270.0087L30.0593 26.7071Z" fill="url(#paint1_linear_30019_6622)"/>
<path d="M48.2585 19.7071C48.5869 19.6498 48.844 19.3927 48.9013 19.0643L49.2029 16.7842H49.4659L49.7675 19.0643C49.8248 19.3927 50.0819 19.6498 50.4103 19.7071L52.6905 200.0087V20.2717L50.4103 20.5733C50.0819 20.6306 49.8248 20.8877 49.7675 21.2161L49.4659 23.4962H49.2029L48.9013 21.2161C48.844 20.8877 48.5869 20.6306 48.2585 20.5733L45.9785 20.2717V200.0087L48.2585 19.7071Z" fill="url(#paint2_linear_30019_6622)"/>
<path d="M16.2575 3.70708C16.5859 3.64981 16.8431 3.39267 16.9003 3.06428L17.202 0.78418H17.4649L17.7665 3.06428C17.8238 3.39267 18.081 3.64981 18.4093 3.70708L20.6896 40.00873V4.27165L18.4093 4.5733C18.081 4.63057 17.8238 4.88772 17.7665 5.2161L17.4649 7.4962H17.202L16.9003 5.2161C16.8431 4.88772 16.5859 4.63057 16.2575 4.5733L13.9775 4.27168V40.0087L16.2575 3.70708Z" fill="url(#paint3_linear_30019_6622)"/>
<path d="M16.5651 2.79091C16.7996 2.75001 16.9833 2.56633 17.0242 2.33177L17.2397 0.703125H17.4275L17.643 2.33177C17.6839 2.56633 17.8675 2.75001 18.1021 2.79091L19.7308 30.00638V3.19418L18.1021 3.40964C17.8675 3.45055 17.6839 3.63422 17.643 3.86878L17.4275 5.49743H17.2397L17.0242 3.86878C16.9833 3.63422 16.7996 3.45055 16.5651 3.40964L14.9365 3.1942V30.00635L16.5651 2.79091Z" fill="url(#paint4_linear_30019_6622)"/>
<path d="M30.8451 10.4501C30.6654 10.268 30.5657 10.0219 30.568 9.76618L30.6071 5.3527C30.6118 4.82138 31.0466 4.3946 31.5779 4.39977L35.9634 4.44247C36.2173 4.44494 36.46 4.54779 36.6384 4.72855L43.7436 11.9281C44.1166 12.3061 44.1126 12.9149 43.7346 13.2879L39.3079 17.6565C38.9299 18.0295 38.3211 18.0254 37.9481 17.6475L30.8451 10.4501Z" fill="white" stroke="white" stroke-width="0.599288"/>
<circle cx="1.49645" cy="1.49645" r="1.49645" transform="matrix(-0.252444 -0.967603 0.967621 -0.252439 32.8008 9.56836)" fill="#E8E4F0"/>
<defs>
<linearGradient id="paint0_linear_30019_6622" x1="51.0444" y1="16.7031" x2="46.9703" y2="21.5252" gradientUnits="userSpaceOnUse">
<stop offset="0.203125" stop-color="#ac5607"/>
<stop offset="0.760417" stop-color="#ac5607"/>
</linearGradient>
<linearGradient id="paint1_linear_30019_6622" x1="33.5289" y1="23.7842" x2="27.8253" y2="30.5351" gradientUnits="userSpaceOnUse">
<stop offset="0.203125" stop-color="#ac5607"/>
<stop offset="0.760417" stop-color="#ac5607"/>
</linearGradient>
<linearGradient id="paint2_linear_30019_6622" x1="51.7282" y1="16.7842" x2="46.0245" y2="23.5351" gradientUnits="userSpaceOnUse">
<stop offset="0.203125" stop-color="#ac5607"/>
<stop offset="0.760417" stop-color="#ac5607"/>
</linearGradient>
<linearGradient id="paint3_linear_30019_6622" x1="19.7272" y1="0.78418" x2="14.0235" y2="7.53505" gradientUnits="userSpaceOnUse">
<stop offset="0.203125" stop-color="#ac5607"/>
<stop offset="0.760417" stop-color="#ac5607"/>
</linearGradient>
<linearGradient id="paint4_linear_30019_6622" x1="19.0434" y1="0.703125" x2="14.9694" y2="5.52518" gradientUnits="userSpaceOnUse">
<stop offset="0.203125" stop-color="#ac5607"/>
<stop offset="0.760417" stop-color="#ac5607"/>
</linearGradient>
</defs>
</svg>
