<svg width="22" height="22" viewBox="0 0 22 22" fill="none" xmlns="http://www.w3.org/2000/svg">
<g id="Handmade=calendar">
<path id="Intersect" fill-rule="evenodd" clip-rule="evenodd" d="M18.6076 17.1344C18.5193 17.362 18.451 17.5989 18.4035 17.8418C18.3807 17.9824 18.3701 18.1005 18.3608 18.205C18.3354 18.4894 18.319 18.672 18.089 18.9271C17.5219 19.5309 16.1691 19.4929 15.2832 19.468L15.2829 19.4679C15.1595 19.4645 15.0451 19.4613 14.9432 19.4601C14.3742 19.4352 13.8043 19.4774 13.2429 19.5861H13.1748C12.5032 19.5861 11.84 19.6442 11.1684 19.712C9.9544 19.8186 8.73503 19.8186 7.52105 19.712C7.04325 19.6587 6.56202 19.6587 6.08422 19.712C5.94019 19.7315 5.79465 19.7315 5.65062 19.712C5.42167 19.6712 5.20362 19.5725 5.0124 19.4233C4.82118 19.2741 4.66162 19.0781 4.54537 18.8496C4.51567 18.7868 4.49827 18.7173 4.49436 18.6461C4.38383 17.7255 4.29031 16.8437 4.21379 15.9231C4.17809 15.4121 4.15534 14.9011 4.13259 14.3901C4.1066 13.8061 4.0806 13.2221 4.03525 12.6381L4.03525 12.6381C3.99274 12.0664 3.95023 11.4946 3.94173 10.9229C3.93607 10.5418 3.93795 10.0745 3.93984 9.60717C3.94079 9.37353 3.94173 9.13988 3.94173 8.91701C3.94173 8.85266 3.9411 8.79441 3.94053 8.74169V8.74167C3.93518 8.2466 3.93509 8.23868 4.51136 8.23868C4.59331 8.24877 4.67597 8.24877 4.75792 8.23868C5.79684 8.06735 6.8454 7.98314 7.89513 7.98673H7.89516C8.9834 7.98673 10.0631 7.98673 11.1599 7.9189C11.5535 7.89456 11.9438 7.87521 12.3328 7.85592L12.3328 7.85592C13.0277 7.82147 13.7184 7.78722 14.4161 7.7251C14.5906 7.71118 14.765 7.69603 14.9391 7.68092L14.9392 7.68092C15.6135 7.62239 16.2823 7.56434 16.9242 7.57974C17.0687 7.57974 17.2133 7.57974 17.3663 7.53129L18.361 7.46346C18.5396 7.46346 18.6246 7.56036 18.6331 7.78324C18.6388 7.93182 18.6369 8.02873 18.635 8.12563C18.634 8.17408 18.6331 8.22253 18.6331 8.27744V12.7253V13.297C18.6294 13.3162 18.6294 13.336 18.6331 13.3552C18.6331 14.6343 18.6331 15.9037 18.5056 17.1732L18.6076 17.1344ZM3.98424 4.24627C4.0039 4.20779 4.03363 4.1773 4.06926 4.15906C4.06926 4.15906 4.16278 4.15906 4.17129 4.2172C4.176 4.24943 4.199 4.3442 4.22436 4.44869L4.22437 4.44871C4.24475 4.53269 4.26666 4.62294 4.28181 4.69202L4.33282 4.97304C4.35811 5.10291 4.4217 5.21896 4.51298 5.30185C4.60427 5.38473 4.71773 5.42943 4.83444 5.42849C4.94963 5.4241 5.06074 5.37877 5.1522 5.29884C5.24367 5.21891 5.31093 5.10839 5.34455 4.98273C5.38169 4.84871 5.4053 4.70955 5.42853 4.57272L5.42853 4.57272L5.42853 4.57271C5.43721 4.52158 5.44583 4.47078 5.45508 4.4207C5.45931 4.37272 5.47907 4.32827 5.51051 4.29602C5.54196 4.26377 5.58282 4.24603 5.62512 4.24627H6.24576H6.34778H7.46154C7.96849 4.21681 8.47643 4.21681 8.98338 4.24627H9.83358C10.0971 4.24627 10.2247 4.24627 10.2417 4.62419C10.2437 4.76529 10.2727 4.9042 10.3267 5.03119C10.3541 5.12528 10.4007 5.21066 10.4625 5.28037C10.5244 5.35009 10.5998 5.40218 10.6827 5.4324C10.7655 5.46262 10.8535 5.47012 10.9394 5.45428C11.0252 5.43845 11.1066 5.39973 11.1769 5.34128C11.3284 5.2362 11.4584 5.09535 11.5581 4.92819C11.6578 4.76104 11.725 4.57146 11.755 4.37224C11.7975 4.06215 11.857 4.02339 12.1206 3.98463C12.2546 3.96492 12.3007 3.94521 12.3438 3.92678C12.3855 3.90896 12.4244 3.89233 12.5372 3.87804C12.8089 3.82495 12.8697 3.77994 12.9147 3.7467C12.9681 3.70713 12.9991 3.68423 13.3364 3.68423H13.719C13.8265 3.67549 13.9345 3.67549 14.042 3.68423C14.6236 3.64854 15.2068 3.67124 15.7849 3.75206H15.8785C16.0739 3.75206 16.274 3.81069 16.4719 3.86865L16.4719 3.86865C16.5409 3.88885 16.6095 3.90896 16.6776 3.92649C16.7201 3.92649 16.7712 4.02339 16.7797 4.08153C16.7822 4.09865 16.7832 4.13087 16.7845 4.17128V4.17131C16.7876 4.26821 16.7922 4.41218 16.8222 4.50791C16.8386 4.67757 16.9075 4.83501 17.0166 4.95192C17.1257 5.06883 17.2678 5.13755 17.4174 5.14573C17.567 5.1539 17.7142 5.10099 17.8326 4.99651C17.9511 4.89204 18.0329 4.74284 18.0635 4.57574C18.0635 4.4454 18.1105 4.30611 18.1519 4.18366L18.157 4.16875C18.175 4.14194 18.1982 4.12016 18.2247 4.10505C18.2512 4.08994 18.2804 4.0819 18.31 4.08153C18.3393 4.08375 18.368 4.09261 18.3942 4.10758C18.4205 4.12255 18.4439 4.14335 18.463 4.16875C18.5036 4.22248 18.5249 4.29171 18.5226 4.36255V5.79672C18.5226 5.96146 18.4545 6.04867 18.3015 6.05836C18.1741 6.06805 18.0463 6.06805 17.9189 6.05836C17.0332 6.01089 16.1455 6.05305 15.2663 6.18433C15.0568 6.19909 14.8467 6.19909 14.6372 6.18433C13.8024 6.19567 12.9696 6.2799 12.1461 6.43628C11.9763 6.45084 11.8058 6.45084 11.636 6.43628H8.37124C7.76359 6.42495 7.15591 6.45732 6.55183 6.53319C6.15563 6.56713 5.75776 6.56713 5.36156 6.53319H4.21379C4.04376 6.53319 3.96724 6.45566 3.96724 6.28124V4.12999C3.96007 4.10811 3.96007 4.08403 3.96724 4.06215L3.98424 4.24627ZM19.9424 12.7059V8.98484C19.9424 8.24756 19.9604 7.44179 19.9786 6.62861L19.9786 6.62833L19.9786 6.62802C19.991 6.07335 20.0035 5.51523 20.0104 4.97304V3.8199C20.0104 3.59702 20.0104 3.35476 19.8404 3.23848C19.7323 3.16109 19.6434 3.05306 19.5547 2.94545L19.5547 2.94543C19.3992 2.75657 19.2447 2.56898 18.9902 2.55046H18.2335C17.9189 2.55046 17.8934 2.55046 17.8254 2.15316C17.7961 1.98207 17.792 1.86848 17.7888 1.7768C17.7844 1.65558 17.7815 1.57266 17.7234 1.44577C17.6807 1.2866 17.5943 1.1473 17.4768 1.04846C17.2971 0.929108 17.0836 0.894345 16.8817 0.95156C16.8352 0.977797 16.794 1.01452 16.7603 1.05949C16.7267 1.10447 16.7015 1.15676 16.6861 1.2132C16.652 1.34865 16.6348 1.48894 16.6351 1.62988V2.34697C16.6363 2.37115 16.6332 2.39536 16.6261 2.4182C16.6191 2.44104 16.6081 2.46206 16.5939 2.48006C16.5797 2.49807 16.5625 2.5127 16.5433 2.52312C16.5241 2.53353 16.5033 2.53953 16.4821 2.54077H16.3036H16.0485C15.9034 2.58221 15.7515 2.58221 15.6064 2.54077C15.1263 2.54077 14.64 2.49821 14.1528 2.45558L14.1528 2.45558C14.0706 2.44838 13.9883 2.44118 13.906 2.43418L13.5659 2.42449C13.2955 2.50053 13.1963 2.5617 13.1256 2.60526C13.0252 2.66716 12.9824 2.6935 12.5882 2.67644H11.9931C11.823 2.67644 11.7635 2.6183 11.7295 2.44387C11.7162 2.37564 11.7042 2.29555 11.6915 2.21055L11.6915 2.21052C11.6716 2.07824 11.65 1.93409 11.619 1.80431C11.568 1.59112 11.4915 1.35855 11.4149 1.13568C11.3749 1.05843 11.3153 0.996762 11.244 0.958726C11.1727 0.920691 11.093 0.908061 11.0153 0.922489C10.7141 0.920911 10.4189 1.01849 10.1652 1.20351C10.1305 1.22956 10.1012 1.26382 10.0791 1.30395C10.0571 1.34408 10.043 1.38915 10.0376 1.43608C10.0291 1.62653 10.0291 1.81735 10.0376 2.0078V2.64737C10.0319 2.68046 10.0187 2.71128 9.9993 2.73677C9.97991 2.76227 9.95503 2.78155 9.9271 2.79272C9.82263 2.80723 9.717 2.80723 9.61253 2.79272H9.11091C8.44275 2.88826 7.7688 2.92067 7.09595 2.88962C6.98794 2.88962 6.87994 2.89504 6.77225 2.90044C6.55781 2.91119 6.34464 2.92188 6.13523 2.88962H5.60811C5.39556 2.88962 5.33605 2.88962 5.33605 2.6183C5.34358 2.33122 5.30318 2.04513 5.21702 1.77524C5.1686 1.64211 5.08567 1.52901 4.97931 1.45109C4.87295 1.37316 4.74825 1.33411 4.62189 1.33917C4.49514 1.35533 4.37682 1.4195 4.28588 1.5214C4.19493 1.62331 4.13661 1.75705 4.12027 1.90121C4.11161 2.04316 4.11161 2.18563 4.12027 2.32759V2.83148C4.12061 2.85579 4.11622 2.87989 4.10742 2.90204C4.09861 2.92419 4.08562 2.94384 4.06937 2.95959C4.05311 2.97534 4.034 2.98679 4.0134 2.99312C3.9928 2.99945 3.97123 3.00051 3.95023 2.99622C3.49333 2.97687 3.0358 2.99631 2.58142 3.05436C2.47402 3.04453 2.36614 3.06468 2.2671 3.11307C2.16807 3.16145 2.08087 3.23661 2.01305 3.33204C1.94523 3.42747 1.89884 3.54029 1.87788 3.66076C1.85692 3.78122 1.86203 3.90569 1.89277 4.02339C1.99052 5.1188 1.99052 6.22269 1.89277 7.3181C1.89277 7.66386 1.87786 8.00963 1.86281 8.35845C1.85003 8.65485 1.83716 8.95347 1.83325 9.25617C1.83325 10.3027 1.83325 11.3493 1.93528 12.3958C1.95246 12.6603 1.96772 12.9258 1.98299 13.1917C2.01306 13.715 2.04321 14.2398 2.08831 14.7603C2.19884 15.9909 2.30086 17.2216 2.32636 18.4717C2.34148 18.9198 2.42193 19.3619 2.56442 19.7799C2.69236 20.1412 2.93102 20.4373 3.23607 20.6132C3.75527 20.9406 4.34368 21.0982 4.93646 21.0687H6.31377H8.45626H10.5307C10.6975 21.0882 10.8656 21.0882 11.0324 21.0687C11.4642 20.9766 11.9023 20.928 12.3417 20.9233C12.7157 20.9233 13.0898 20.8846 13.4639 20.807C13.5048 20.8074 13.5443 20.7901 13.5744 20.7586C14.36 20.6817 15.1374 20.7231 15.9159 20.7646C16.5107 20.7963 17.1062 20.828 17.7064 20.807C18.378 20.807 19.0582 20.7198 19.4068 19.993C19.7945 18.9037 20.0159 17.7468 20.0614 16.5724C20.238 15.2599 20.1919 13.921 19.9254 12.6284L19.9424 12.7059ZM15.387 10.747C15.1134 10.7116 14.8377 10.6759 14.5691 10.6322V10.6516C14.5135 10.6389 14.4607 10.6137 14.4138 10.5775C14.3669 10.5412 14.3268 10.4946 14.2959 10.4405C14.265 10.3863 14.2439 10.3256 14.2339 10.262C14.2239 10.1984 14.2251 10.1332 14.2376 10.0701C14.2475 9.96931 14.2862 9.87496 14.3476 9.80148C14.409 9.728 14.4898 9.67942 14.5776 9.66315C15.2246 9.54307 15.8869 9.58943 16.5161 9.79881H16.5841C16.6884 9.84968 16.778 9.93302 16.8427 10.0393C16.9074 10.1455 16.9444 10.2704 16.9497 10.3996C16.9187 10.524 16.851 10.6324 16.7581 10.7065C16.6652 10.7806 16.5527 10.816 16.4396 10.8066H15.8359C15.6879 10.786 15.5378 10.7665 15.387 10.747ZM10.9089 11.0764C10.8149 11.0864 10.7204 11.0965 10.6242 11.107V11.1264C10.5511 11.1412 10.4763 11.1412 10.4032 11.1264C10.3041 11.1097 10.2126 11.0559 10.1433 10.9735C10.0741 10.891 10.0309 10.7845 10.0206 10.6709C10.0087 10.5565 10.0329 10.4409 10.089 10.345C10.1451 10.2491 10.2294 10.1791 10.3267 10.1477C10.4894 10.0832 10.6575 10.0378 10.8283 10.012C11.0238 9.95385 11.2279 9.95385 11.4999 9.95385H11.4999C11.6726 9.9421 11.8458 9.9421 12.0185 9.95385C12.1366 9.98814 12.2467 10.0509 12.3416 10.138C12.3801 10.1829 12.4096 10.2368 12.4281 10.296C12.4466 10.3552 12.4537 10.4182 12.4489 10.4808C12.444 10.5434 12.4274 10.604 12.4 10.6586C12.3727 10.7131 12.3354 10.7603 12.2906 10.7969C12.1867 10.8723 12.0714 10.9249 11.9505 10.952C11.578 11.005 11.2471 11.0403 10.9089 11.0764ZM8.2437 10.138C8.14467 10.129 8.04517 10.129 7.94613 10.138H6.67084C6.56941 10.137 6.46863 10.1566 6.37328 10.1961C6.30166 10.2228 6.23775 10.2712 6.18834 10.336C6.13894 10.4009 6.10589 10.4798 6.09271 10.5643C6.08089 10.6512 6.08964 10.7402 6.11803 10.8219C6.14643 10.9037 6.19345 10.9753 6.25425 11.0295C6.37145 11.1324 6.5084 11.2021 6.65384 11.233C6.82984 11.233 7.00584 11.2384 7.18152 11.2438L7.18159 11.2438C7.53206 11.2545 7.88126 11.2652 8.2267 11.233C8.3513 11.2093 8.46375 11.1337 8.54228 11.0209C8.62081 10.9081 8.65984 10.7662 8.6518 10.6225C8.63889 10.496 8.59316 10.3768 8.52046 10.2801C8.44776 10.1834 8.35139 10.1137 8.2437 10.0798V10.138ZM12.3841 14.3242C12.4757 14.235 12.5361 14.1111 12.5542 13.9753C12.5542 13.8203 12.4606 13.7137 12.3416 13.6652C12.2041 13.5982 12.0574 13.5588 11.908 13.549H10.6327C10.5588 13.5486 10.4859 13.5685 10.4202 13.6071C10.3437 13.6652 10.2501 13.7525 10.2331 13.8397C10.2273 13.8946 10.2328 13.9503 10.249 14.0024C10.2652 14.0545 10.2918 14.1016 10.3267 14.1401C10.4082 14.2458 10.5143 14.323 10.6327 14.363C10.8228 14.4139 11.0166 14.4523 11.1609 14.4809C11.236 14.4958 11.2976 14.508 11.3384 14.518C11.6981 14.5865 12.0675 14.5112 12.3841 14.3048V14.3242ZM8.2777 17.0181C8.22983 17.0093 8.18103 17.0093 8.13316 17.0181H6.78986C6.59574 17.0501 6.41167 17.1367 6.25424 17.2701C6.18815 17.3139 6.13653 17.3813 6.10734 17.4618C6.07815 17.5424 6.07301 17.6316 6.0927 17.7158C6.11015 17.7985 6.14987 17.8728 6.20629 17.9285C6.26271 17.9841 6.33299 18.0182 6.40727 18.0259H7.25747C7.60604 18.0259 7.95462 18.0259 8.3032 17.9581C8.401 17.9328 8.4895 17.8735 8.5565 17.7885C8.6235 17.7034 8.6657 17.5968 8.67729 17.4833C8.6635 17.3711 8.62171 17.2657 8.55689 17.1798C8.49208 17.0939 8.40697 17.0311 8.31171 16.9987L8.2777 17.0181ZM7.15547 14.7265C6.86319 14.7265 6.57395 14.6588 6.30527 14.5277V14.5664C6.23633 14.5306 6.17885 14.4713 6.14078 14.3967C6.1027 14.322 6.08591 14.2357 6.09272 14.1498C6.08401 14.062 6.10325 13.9736 6.14695 13.9007C6.19065 13.8277 6.25589 13.7751 6.33078 13.7524C6.54921 13.7061 6.76764 13.6702 6.96068 13.6384L6.96069 13.6384C7.09074 13.617 7.20926 13.5975 7.3085 13.578H7.96315C8.05068 13.5887 8.13355 13.6283 8.20154 13.692C8.26953 13.7557 8.31966 13.8407 8.34574 13.9366C8.35614 14.021 8.34755 14.1071 8.32078 14.1868C8.29402 14.2665 8.24995 14.3371 8.1927 14.392C8.13918 14.4514 8.07552 14.4976 8.00566 14.5277C7.73699 14.6588 7.44775 14.7265 7.15547 14.7265ZM12.5542 16.9018C11.9991 16.7161 11.4089 16.7161 10.8538 16.9018C10.7964 16.9302 10.7461 16.9746 10.7076 17.0308C10.6692 17.0871 10.6437 17.1534 10.6335 17.2238C10.6234 17.2942 10.6289 17.3664 10.6495 17.4337C10.6702 17.501 10.7053 17.5614 10.7518 17.6092C10.8639 17.7193 10.9983 17.7959 11.1428 17.8321C11.3409 17.8515 11.54 17.8515 11.738 17.8321C11.8848 17.8516 12.0332 17.8516 12.1801 17.8321C12.3714 17.7701 12.5544 17.6788 12.7242 17.5608C12.7544 17.5362 12.7798 17.5046 12.7985 17.468C12.8173 17.4315 12.8291 17.3908 12.8331 17.3487C12.8371 17.3067 12.8333 17.2641 12.8218 17.2238C12.8104 17.1835 12.7916 17.1464 12.7667 17.115C12.7512 17.0974 12.7357 17.0782 12.72 17.0588C12.6668 16.993 12.6113 16.9243 12.5457 16.9018H12.5542ZM16.5841 16.4755H16.5076C16.0099 16.482 15.5142 16.5469 15.0282 16.6693H14.9602C14.8678 16.7136 14.7915 16.7925 14.7436 16.8928C14.6957 16.9932 14.6791 17.1091 14.6966 17.2216C14.7129 17.3191 14.7551 17.4086 14.8174 17.4779C14.8798 17.5473 14.9593 17.5931 15.0452 17.6092H15.6489C15.7191 17.5954 15.801 17.5808 15.8911 17.5648L15.8911 17.5648L15.8912 17.5648C16.1175 17.5245 16.3955 17.475 16.6691 17.4057C16.9072 17.3476 17.1112 17.0375 17.0772 16.8631C17.0415 16.7406 16.9764 16.6321 16.8892 16.5499C16.802 16.4676 16.6963 16.415 16.5841 16.3979V16.4755ZM16.6974 13.9579C16.6295 14.0618 16.5325 14.1363 16.4226 14.1692H16.4056C16.1471 14.2428 15.8837 14.2941 15.6043 14.3484C15.516 14.3656 15.4261 14.3831 15.3343 14.4017C15.2631 14.383 15.1902 14.3653 15.116 14.3473L15.116 14.3473L15.1159 14.3472C14.9599 14.3093 14.7985 14.2701 14.6372 14.2176C14.5634 14.1774 14.5011 14.1141 14.4575 14.0353C14.4139 13.9564 14.3908 13.8651 14.3908 13.7719C14.3908 13.6786 14.4139 13.5873 14.4575 13.5084C14.5011 13.4296 14.5634 13.3664 14.6372 13.3261C14.7029 13.2828 14.7749 13.2533 14.8497 13.2389L16.193 13.0741H16.2695C16.3964 13.0805 16.5176 13.1358 16.6133 13.2308C16.7091 13.3259 16.7737 13.4551 16.7967 13.5974C16.8004 13.7269 16.7654 13.854 16.6974 13.9579Z" fill="#673065"/>
</g>
</svg>
