<?xml version="1.0" encoding="UTF-8" standalone="no"?>
<svg
   width="136"
   height="16"
   viewBox="0 0 136 16"
   fill="none"
   version="1.1"
   id="svg1"
   sodipodi:docname="logo-six-senses-st.svg"
   inkscape:version="1.3.2 (091e20e, 2023-11-25, custom)"
   xmlns:inkscape="http://www.inkscape.org/namespaces/inkscape"
   xmlns:sodipodi="http://sodipodi.sourceforge.net/DTD/sodipodi-0.dtd"
   xmlns="http://www.w3.org/2000/svg"
   xmlns:svg="http://www.w3.org/2000/svg">
  <sodipodi:namedview
     id="namedview1"
     pagecolor="#ffffff"
     bordercolor="#000000"
     borderopacity="0.25"
     inkscape:showpageshadow="2"
     inkscape:pageopacity="0.0"
     inkscape:pagecheckerboard="true"
     inkscape:deskcolor="#d1d1d1"
     inkscape:zoom="5.6029412"
     inkscape:cx="68"
     inkscape:cy="7.9422572"
     inkscape:window-width="1366"
     inkscape:window-height="705"
     inkscape:window-x="-8"
     inkscape:window-y="-8"
     inkscape:window-maximized="1"
     inkscape:current-layer="g164" />
  <defs
     id="defs1">
    <clipPath
       id="clip0_4226_34874">
      <rect
         width="136"
         height="15"
         fill="white"
         transform="translate(0 0.5)"
         id="rect1" />
    </clipPath>
  </defs>
  <g
     id="g164"
     transform="matrix(0.34939731,0,0,0.34939731,-3.7533567,-0.65002243)"
     style="fill:#999999">
    <path
       style="font-size:58.4659px;line-height:0.3;font-family:'Times New Roman';-inkscape-font-specification:'Times New Roman, ';text-align:center;text-anchor:middle;fill:#999999;stroke:#ffffff;stroke-width:0"
       d="M 48.440649,31.653495 H 31.160693 l -3.028107,6.201227 c -0.746056,1.526156 -1.119081,2.665946 -1.119081,3.419367 0,0.598871 0.318168,1.130129 0.95451,1.593772 0.658284,0.444325 2.062624,0.734102 4.213017,0.869331 v 1.072175 H 18.126669 v -1.072175 c 4.912191,-0.609049 5.971839,-3.996613 7.339867,-6.780779 L 41.16661,4.6173147 h 1.151997 L 57.854108,37.304145 c 1.250741,2.62731 2.380796,4.336994 3.390164,5.129051 1.031313,0.772738 2.457594,1.207404 4.278846,1.303996 v 1.072175 L 52.456181,41.332043 c 0,-0.850011 -0.438856,-2.192645 -1.316567,-4.027898 z M 47.519051,29.509147 39.948785,13.629376 32.181032,29.509147 Z M 65.391465,5.5156233 H 77.503889 L 104.78976,34.98593 V 12.32538 c 0,-2.4148072 -0.30719,-3.9216474 -0.9216,-4.5205201 -0.81188,-0.8113746 -2.09553,-1.217062 -3.85096,-1.217062 H 98.470235 V 5.5156233 h 15.535495 v 1.0721746 h -1.57988 c -1.88708,0 -3.22559,0.5022799 -4.01553,1.5068382 -0.48274,0.6181912 -0.72411,2.0284399 -0.72411,4.2307439 V 45.446874 H 106.5013 L 77.076006,13.803241 V 37.99961 c 0,2.414807 0.296226,3.921646 0.888683,4.520519 0.833826,0.811375 2.117479,1.217063 3.850962,1.217063 h 1.57988 v 1.072175 H 67.860029 v -1.072175 h 1.546966 c 1.909025,0 3.258508,-0.502279 4.048449,-1.506841 0.48274,-0.61819 0.724111,-2.028436 0.724111,-4.230741 V 10.673652 C 72.88493,9.3406783 71.897504,8.4616873 71.217277,8.0366824 70.558994,7.6116765 69.582539,7.2156479 68.287913,6.8485966 67.651572,6.6747304 66.686088,6.5877979 65.391465,6.5877979 Z M 145.80087,31.653495 H 128.5209 l -3.02811,6.201227 c -0.74605,1.526156 -1.11908,2.665946 -1.11908,3.419367 0,0.598871 0.31817,1.130129 0.9545,1.593772 0.6583,0.444325 2.06263,0.734102 4.21303,0.869331 v 1.072175 h -14.05436 v -1.072175 c 1.86514,-0.289777 3.07198,-0.666487 3.62056,-1.13013 1.1191,-0.927285 2.35886,-2.810835 3.7193,-5.650649 L 138.52682,4.6173147 h 1.15199 l 15.53551,32.6868303 c 1.25074,2.62731 2.38079,4.336994 3.39015,5.129051 1.03132,0.772738 2.45761,1.207404 4.27887,1.303996 v 1.072175 l -13.06695,-3.477324 c 0,-0.850011 -0.43886,-2.192645 -1.31656,-4.027898 z m -0.92161,-2.144348 -7.57028,-15.879771 -7.76774,15.879771 z M 162.75167,5.5156233 h 12.11244 L 202.14998,34.98593 V 12.32538 c 0,-2.4148072 -0.30721,-3.9216474 -0.92159,-4.5205201 -0.8119,-0.8113746 -2.09555,-1.217062 -3.85097,-1.217062 h -1.54698 V 5.5156233 h 15.53551 v 1.0721746 h -1.57988 c -1.88708,0 -3.2256,0.5022799 -4.01553,1.5068382 -0.48275,0.6181912 -0.72411,2.0284399 -0.72411,4.2307439 v 33.121494 h -1.18491 L 174.43622,13.803241 V 37.99961 c 0,2.414807 0.29623,3.921646 0.88868,4.520519 0.83382,0.811375 2.11748,1.217063 3.85095,1.217063 h 1.57989 v 1.072175 h -15.5355 v -1.072175 h 1.54697 c 1.90901,0 3.2585,-0.502279 4.04845,-1.506841 0.48274,-0.61819 0.7241,-2.028436 0.7241,-4.230741 V 10.673652 c -1.29462,-1.3329737 -2.28203,-2.2119647 -2.96228,-2.6369696 -0.65827,-0.4250059 -1.63473,-0.8210345 -2.92935,-1.1880858 -0.63635,-0.1738662 -1.60182,-0.2607987 -2.89646,-0.2607987 z m 88.57212,0 0.49372,9.2149047 h -1.25074 c -0.24137,-1.622751 -0.57051,-2.781858 -0.98744,-3.477323 -0.68023,-1.120471 -1.59085,-1.941504 -2.73187,-2.4631026 -1.11908,-0.5409171 -2.60023,-0.8113757 -4.44342,-0.8113757 h -6.28661 V 37.99961 c 0,2.414807 0.29622,3.921646 0.88869,4.520519 0.83382,0.811375 2.11747,1.217063 3.85094,1.217063 h 1.54698 v 1.072175 h -18.92567 v -1.072175 h 1.57988 c 1.88709,0 3.2256,-0.502279 4.01555,-1.506841 0.48273,-0.61819 0.7241,-2.028436 0.7241,-4.230741 V 7.9787267 h -5.36502 c -2.08457,0 -3.5657,0.1352298 -4.44341,0.4056874 -1.14103,0.3670503 -2.11749,1.0721745 -2.92937,2.1153719 -0.81188,1.043197 -1.29463,2.453443 -1.44821,4.230742 h -1.25076 l 0.52665,-9.2149047 z m 27.61502,26.1378717 h -17.27997 l -3.0281,6.201227 c -0.74606,1.526156 -1.11908,2.665946 -1.11908,3.419367 0,0.598871 0.31817,1.130129 0.95451,1.593772 0.65828,0.444325 2.06261,0.734102 4.21301,0.869331 v 1.072175 h -14.05435 v -1.072175 c 1.86513,-0.289777 3.07199,-0.666487 3.62057,-1.13013 1.11906,-0.927285 2.35883,-2.810835 3.7193,-5.650649 L 271.66476,4.6173147 h 1.152 l 15.53551,32.6868303 c 1.25074,2.62731 2.38079,4.336994 3.39017,5.129051 1.0313,0.772738 2.45757,1.207404 4.27882,1.303996 v 1.072175 l -13.06691,-3.477324 c 0,-0.850011 -0.43887,-2.192645 -1.31659,-4.027898 z m -0.9216,-2.144348 -7.57026,-15.879771 -7.76777,15.879771 z m 64.31434,15.30022 H 330.41662 L 315.30899,26.437512 c -1.11907,0.03865 -2.0297,0.05796 -2.73187,0.05796 h -0.92159 c -0.32915,-0.01931 -0.66926,-0.03865 -1.02035,-0.05796 v 11.41721 c 0,2.472763 0.30719,4.00858 0.92159,4.607452 0.83383,0.850012 2.08458,1.275018 3.75222,1.275018 h 1.74446 v 1.072175 h -19.12316 v -1.072175 h 1.67862 c 1.88708,0 3.23657,-0.540917 4.04845,-1.622751 0.46081,-0.598873 0.69122,-2.018778 0.69122,-4.259719 V 12.470268 c 0,-2.4727623 -0.30722,-4.0085807 -0.92161,-4.6074515 -0.85578,-0.8500125 -2.12846,-1.2750186 -3.81806,-1.2750186 h -1.67862 V 5.5156233 h 16.25963 c 4.73963,0 8.22854,0.3090948 10.46671,0.9272859 2.26011,0.5988723 4.16911,1.7193432 5.72707,3.361413 1.57988,1.6227508 2.36981,3.5642538 2.36981,5.8245138 0,2.414806 -0.89965,4.510859 -2.69895,6.288158 -1.77737,1.777297 -4.54216,3.032999 -8.2944,3.767099 l 9.21599,11.27232 c 2.10651,2.588674 3.91679,4.308016 5.43086,5.158028 1.51403,0.850012 3.48889,1.390928 5.92454,1.622751 z M 310.63518,24.611919 c 0.41691,0 0.77896,0.0096 1.08617,0.02899 h 0.75702 c 4.25691,0 7.46055,-0.811376 9.61094,-2.434127 2.17234,-1.62275 3.25851,-3.689825 3.25851,-6.201224 0,-2.453445 -0.87771,-4.443245 -2.63313,-5.969404 -1.73349,-1.545475 -4.03749,-2.3182145 -6.91198,-2.3182145 -1.27269,0 -2.99519,0.1835256 -5.16753,0.5505759 z m 61.94451,7.041576 h -17.27995 l -3.0281,6.201227 c -0.74607,1.526156 -1.1191,2.665946 -1.1191,3.419367 0,0.598871 0.31817,1.130129 0.95452,1.593772 0.65827,0.444325 2.06262,0.734102 4.21303,0.869331 v 1.072175 h -14.05438 v -1.072175 c 1.86515,-0.289777 3.07199,-0.666487 3.62057,-1.13013 1.11908,-0.927285 2.35885,-2.810835 3.7193,-5.650649 L 365.30567,4.6173147 h 1.15198 l 15.53552,32.6868303 c 1.25072,2.62731 2.38077,4.336994 3.39015,5.129051 1.03131,0.772738 2.4576,1.207404 4.27884,1.303996 v 1.072175 l -13.06693,-3.477324 c 0,-0.850011 -0.43886,-2.192645 -1.31658,-4.027898 z m -0.92158,-2.144348 -7.57028,-15.879771 -7.76774,15.879771 z"
       id="text12"
       aria-label="ANANTARA"
       sodipodi:nodetypes="cccsccccccccccccccccccccccscsccccscscccscsccccscsccccccccscccccccccccccccccccccccscsccccscscccscsccccscsccccccccccscscsccccscscscscccccccscccccccccccccccccccccccsccscsccccscsscsccsccscccsccccscscscccccscccccccccccccccccccc" />
  </g>
</svg>
