 <svg xmlns="http://www.w3.org/2000/svg" width="42" height="24" viewBox="0 0 42 24" fill="none" aria-labelledby="visa">
    <title id="visa">Visa</title>
    <path fill-rule="evenodd" clip-rule="evenodd" d="M13.3814 16.6394H11.0832L9.35978 9.96927C9.27798 9.66244 9.1043 9.39119 8.84881 9.26335C8.21122 8.94207 7.50864 8.68638 6.74219 8.55742V8.30062H10.4445C10.9554 8.30062 11.3387 8.68638 11.4025 9.13439L12.2967 13.9458L14.5939 8.30062H16.8282L13.3814 16.6394ZM18.1056 16.6394H15.9351L17.7224 8.30062H19.8929L18.1056 16.6394ZM22.701 10.6108C22.7649 10.1617 23.1481 9.90489 23.5952 9.90489C24.2978 9.84042 25.0631 9.96937 25.7018 10.2895L26.085 8.49416C25.4463 8.23735 24.7437 8.1084 24.1062 8.1084C21.9995 8.1084 20.4666 9.26345 20.4666 10.8665C20.4666 12.086 21.5524 12.7264 22.3189 13.1121C23.1481 13.4968 23.4674 13.7536 23.4036 14.1382C23.4036 14.7152 22.7649 14.972 22.1273 14.972C21.3608 14.972 20.5944 14.7797 19.8929 14.4584L19.5097 16.2549C20.2761 16.5751 21.1053 16.704 21.8718 16.704C24.2339 16.7674 25.7018 15.6134 25.7018 13.8814C25.7018 11.7003 22.701 11.5724 22.701 10.6108ZM33.2982 16.6394L31.5748 8.30062H29.7236C29.3404 8.30062 28.9572 8.55742 28.8294 8.94207L25.6381 16.6394H27.8725L28.3185 15.421H31.0638L31.3193 16.6394H33.2982ZM30.0428 10.5466L30.6804 13.6894H28.8931L30.0428 10.5466Z" fill="#ffffff"></path>
  </svg>