<svg width="48" height="80" viewBox="0 0 48 80" fill="none" xmlns="http://www.w3.org/2000/svg">
<path d="M17.3061 47.0568H26.2486C29.323 47.0568 31.2735 45.1572 31.2735 42.2078C31.2735 38.6918 28.4635 37.7087 25.4551 37.7087H17.3061V47.0568ZM17.3061 34.6927H24.4468C28.4966 34.6927 30.1495 33.2097 30.1495 30.3769C30.1495 26.6277 27.5213 26.0945 24.4468 26.0945H17.3061V34.6927ZM13.7358 23.0618H23.4551C25.8188 23.0618 28.9429 23.0618 30.5462 24.0449C32.3149 25.1113 33.7033 27.0276 33.7033 29.6771C33.7033 32.5598 32.1992 34.7093 29.7197 35.7258V35.8091C33.0256 36.4923 34.8273 38.9918 34.8273 42.3244C34.8273 46.2903 32.0173 50.0895 26.6783 50.0895H13.7192L13.7358 23.0618Z" fill="white"/>
<path d="M23.5709 12.8972C10.5952 12.8972 0.0825195 23.495 0.0825195 36.5756C0.0825195 49.6562 10.5952 60.254 23.5709 60.254C36.5465 60.254 47.0592 49.6562 47.0592 36.5756C47.0592 23.5117 36.5465 12.8972 23.5709 12.8972ZM43.9682 36.5923C43.9682 47.9399 34.8439 57.1547 23.5709 57.1547C12.3143 57.1547 3.19005 47.9566 3.19005 36.5923C3.19005 25.2446 12.3143 16.0466 23.5709 16.0466C34.8274 16.0466 43.9682 25.2446 43.9682 36.5923Z" fill="white"/>
<path d="M47.0098 65.2532H0.132324V68.3525H47.0098V65.2532Z" fill="white"/>
<path d="M44.084 61.354C44.1666 61.1873 44.2658 61.0374 44.3815 60.9041C44.5137 60.7708 44.6625 60.6874 44.8278 60.6041C44.9931 60.5375 45.1749 60.5042 45.3733 60.5042C45.5716 60.5042 45.7534 60.5375 45.9187 60.6041C46.084 60.6708 46.2328 60.7708 46.3485 60.9041C46.4807 61.0374 46.5799 61.1707 46.646 61.354C46.7287 61.5206 46.7617 61.7039 46.7617 61.9205C46.7617 62.1205 46.7287 62.3038 46.646 62.4871C46.5799 62.6537 46.4642 62.8037 46.3485 62.937C46.2163 63.0703 46.084 63.1703 45.9187 63.2369C45.7534 63.3036 45.5716 63.3369 45.3733 63.3369C45.1914 63.3369 45.0096 63.3036 44.8278 63.2369C44.6625 63.1703 44.5137 63.0703 44.3815 62.937C44.2493 62.8037 44.1501 62.6704 44.084 62.4871C44.0013 62.3204 43.9683 62.1371 43.9683 61.9205C43.9683 61.7039 44.0013 61.5373 44.084 61.354ZM44.3154 62.3871C44.365 62.5371 44.4476 62.6704 44.5633 62.7703C44.6625 62.8703 44.7947 62.9703 44.927 63.0203C45.0592 63.0869 45.2245 63.1036 45.3733 63.1036C45.5386 63.1036 45.6873 63.0703 45.8196 63.0203C45.9518 62.9536 46.084 62.8703 46.1832 62.7703C46.2824 62.6704 46.365 62.5371 46.4312 62.3871C46.4973 62.2371 46.5138 62.0872 46.5138 61.9039C46.5138 61.7372 46.4807 61.5706 46.4312 61.4373C46.3816 61.2873 46.2989 61.1707 46.1832 61.054C46.084 60.9541 45.9518 60.8707 45.8196 60.8041C45.6873 60.7374 45.522 60.7208 45.3733 60.7208C45.208 60.7208 45.0592 60.7541 44.927 60.8041C44.7782 60.8707 44.6625 60.9541 44.5633 61.054C44.4641 61.154 44.3815 61.2873 44.3154 61.4373C44.2493 61.5873 44.2327 61.7372 44.2327 61.9039C44.2327 62.0872 44.2658 62.2538 44.3154 62.3871ZM45.4724 61.104C45.6708 61.104 45.803 61.1374 45.9022 61.2207C46.0014 61.304 46.051 61.4206 46.051 61.5706C46.051 61.7206 46.0014 61.8205 45.9187 61.9039C45.8361 61.9705 45.7369 62.0038 45.6047 62.0205L46.0675 62.7537H45.803L45.3567 62.0372H45.0923V62.7537H44.8443V61.104H45.4724ZM45.3567 61.8372C45.4229 61.8372 45.4724 61.8372 45.522 61.8372C45.5716 61.8372 45.6212 61.8205 45.6543 61.8039C45.6873 61.7872 45.7204 61.7539 45.7534 61.7206C45.77 61.6872 45.7865 61.6372 45.7865 61.5706C45.7865 61.5206 45.77 61.4706 45.7534 61.4373C45.7369 61.404 45.7039 61.3706 45.6708 61.354C45.6377 61.3373 45.6047 61.3206 45.5551 61.3206C45.5055 61.3206 45.4724 61.3206 45.4229 61.3206H45.0923V61.8372H45.3567Z" fill="white"/>
<path d="M5.81802 2.49948C5.70232 2.31618 5.57008 2.16622 5.40479 2.03291C5.23949 1.8996 5.05767 1.79962 4.84278 1.71631C4.6279 1.64966 4.41302 1.59967 4.18161 1.59967C3.76837 1.59967 3.40472 1.68298 3.10719 1.84961C2.80966 2.01625 2.57825 2.23287 2.39643 2.49948C2.2146 2.78275 2.08237 3.08269 1.99972 3.43262C1.91707 3.78255 1.86748 4.14914 1.86748 4.51573C1.86748 4.88232 1.90054 5.21558 1.99972 5.56551C2.08237 5.89877 2.2146 6.21537 2.39643 6.48198C2.57825 6.74859 2.80966 6.96521 3.10719 7.13185C3.40472 7.29848 3.75184 7.38179 4.18161 7.38179C4.74361 7.38179 5.1899 7.1985 5.52049 6.84857C5.85108 6.49865 6.0329 6.03208 6.11555 5.46553H7.91726C7.86767 5.99875 7.75197 6.48198 7.55361 6.91523C7.35526 7.34847 7.09079 7.71506 6.77673 8.015C6.46267 8.31493 6.06596 8.54822 5.6362 8.71485C5.20643 8.88148 4.72708 8.94814 4.19813 8.94814C3.55349 8.94814 2.95843 8.83149 2.44601 8.59821C1.9336 8.36492 1.48731 8.06499 1.14019 7.66507C0.776539 7.26515 0.512068 6.79858 0.313715 6.26536C0.115362 5.73214 0.0327148 5.14893 0.0327148 4.53239C0.0327148 3.89919 0.131891 3.29931 0.313715 2.74943C0.495539 2.19954 0.776539 1.73297 1.14019 1.31639C1.50384 0.916475 1.9336 0.583212 2.44601 0.349927C2.95843 0.116643 3.55349 0 4.19813 0C4.66096 0 5.10725 0.0666529 5.52049 0.199958C5.93373 0.333264 6.3139 0.533222 6.64449 0.799833C6.97508 1.06644 7.23955 1.38305 7.45444 1.7663C7.66932 2.14955 7.80156 2.5828 7.85114 3.08269H6.04943C5.99985 2.86607 5.9172 2.66611 5.81802 2.49948Z" fill="white"/>
<path d="M12.232 4.01581C12.0336 3.79918 11.7196 3.68254 11.3063 3.68254C11.0419 3.68254 10.8105 3.73253 10.6286 3.81585C10.4468 3.89916 10.3146 4.01581 10.1989 4.16577C10.0832 4.29908 10.017 4.44905 9.96745 4.59902C9.91786 4.74899 9.90134 4.88229 9.88481 4.99893H12.6287C12.5791 4.56569 12.4469 4.24909 12.232 4.01581ZM10.3311 7.26513C10.579 7.51508 10.9427 7.63172 11.422 7.63172C11.7692 7.63172 12.0502 7.5484 12.2981 7.36511C12.546 7.19848 12.6948 7.01518 12.7444 6.81522H14.232C14.0006 7.5484 13.637 8.08163 13.1411 8.41489C12.6452 8.74815 12.0502 8.89812 11.3559 8.89812C10.8766 8.89812 10.4303 8.81481 10.0501 8.66484C9.66992 8.51487 9.33933 8.28158 9.05833 7.99831C8.79386 7.71504 8.57898 7.36511 8.43022 6.96519C8.28145 6.56527 8.21533 6.13203 8.21533 5.6488C8.21533 5.18223 8.29798 4.74899 8.44674 4.34907C8.59551 3.94915 8.81039 3.59923 9.09139 3.31595C9.37239 3.01601 9.70298 2.79939 10.0832 2.63276C10.4633 2.46613 10.8931 2.38281 11.3559 2.38281C11.8849 2.38281 12.3312 2.48279 12.7279 2.68275C13.108 2.88271 13.4386 3.16598 13.6866 3.49925C13.9345 3.83251 14.1163 4.23243 14.232 4.66567C14.3478 5.09891 14.3808 5.56548 14.3478 6.04872H9.91787C9.93439 6.63193 10.0832 7.03184 10.3311 7.26513Z" fill="white"/>
<path d="M16.7113 2.56605V3.71581H16.7278C16.8104 3.51585 16.9096 3.34922 17.0419 3.18258C17.1741 3.01595 17.3394 2.88265 17.5047 2.76601C17.6865 2.64936 17.8683 2.56605 18.0667 2.49939C18.265 2.43274 18.4634 2.39941 18.6783 2.39941C18.794 2.39941 18.9097 2.41608 19.0419 2.46607V4.04907C18.9593 4.03241 18.8601 4.01574 18.7609 4.01574C18.6617 4.01574 18.546 3.99908 18.4469 3.99908C18.1328 3.99908 17.8849 4.04907 17.67 4.14905C17.4551 4.24903 17.2898 4.399 17.1576 4.58229C17.0253 4.76559 16.9261 4.96555 16.8766 5.21549C16.827 5.44878 16.7939 5.71539 16.7939 5.99866V8.78142H15.1079V2.56605H16.7113Z" fill="white"/>
<path d="M23.5711 2.56617V3.69927H22.3314V6.76529C22.3314 7.04857 22.381 7.24853 22.4802 7.33184C22.5794 7.43182 22.7612 7.48181 23.0422 7.48181C23.1414 7.48181 23.224 7.48181 23.3067 7.46515C23.3893 7.44848 23.472 7.44848 23.5546 7.43182V8.74821C23.4058 8.76488 23.2571 8.78154 23.0753 8.7982C22.8934 8.81487 22.7281 8.81487 22.5628 8.81487C22.2984 8.81487 22.0504 8.7982 21.819 8.76488C21.5876 8.73155 21.3893 8.6649 21.2074 8.56492C21.0256 8.46494 20.8934 8.31497 20.7777 8.11501C20.6785 7.91505 20.6289 7.66511 20.6289 7.36517V3.71593H19.6206V2.58283H20.6454V0.716553H22.3314V2.56617H23.5711Z" fill="white"/>
<path d="M26.2324 8.76477H24.5464V2.56606H26.2324V8.76477ZM24.5464 0.216553H26.2324V1.61626H24.5464V0.216553Z" fill="white"/>
<path d="M26.9102 3.71582V2.58273H27.9185V2.09949C27.9185 1.54961 28.0837 1.0997 28.4309 0.749776C28.778 0.399849 29.2904 0.216553 29.9681 0.216553C30.1169 0.216553 30.2656 0.216553 30.4144 0.233216C30.5632 0.24988 30.7119 0.24988 30.8442 0.266543V1.53295C30.6458 1.49962 30.4475 1.49962 30.2326 1.49962C30.0012 1.49962 29.8359 1.54961 29.7367 1.66625C29.6375 1.78289 29.5879 1.94952 29.5879 2.21614V2.58273H30.745V3.71582H29.5879V8.76477H27.9019V3.71582H26.9102Z" fill="white"/>
<path d="M33.5879 8.76477H31.9019V2.56606H33.5879V8.76477ZM31.9019 0.216553H33.5879V1.61626H31.9019V0.216553Z" fill="white"/>
<path d="M38.15 4.01581C37.9516 3.79918 37.6375 3.68254 37.2243 3.68254C36.9598 3.68254 36.7284 3.73253 36.5466 3.81585C36.3648 3.89916 36.2325 4.01581 36.1168 4.16577C36.0011 4.31574 35.935 4.44905 35.8854 4.59902C35.8358 4.74899 35.8193 4.88229 35.8028 4.99893H38.5467C38.4971 4.56569 38.3648 4.24909 38.15 4.01581ZM36.2491 7.26513C36.497 7.51508 36.8607 7.63172 37.34 7.63172C37.6871 7.63172 37.9681 7.5484 38.2161 7.36511C38.464 7.19848 38.6128 7.01518 38.6624 6.81522H40.15C39.9186 7.5484 39.555 8.08163 39.0591 8.41489C38.5632 8.73149 37.9681 8.89812 37.2739 8.89812C36.7945 8.89812 36.3482 8.81481 35.9681 8.66484C35.5714 8.51487 35.2573 8.28158 34.9763 7.99831C34.7118 7.71504 34.497 7.36511 34.3482 6.96519C34.1994 6.56527 34.1333 6.13203 34.1333 5.6488C34.1333 5.18223 34.216 4.74899 34.3647 4.34907C34.5135 3.94915 34.7284 3.59923 35.0094 3.31595C35.2904 3.01601 35.621 2.79939 36.0011 2.63276C36.3813 2.46613 36.8111 2.38281 37.2739 2.38281C37.8028 2.38281 38.2491 2.48279 38.6458 2.68275C39.0425 2.88271 39.3566 3.16598 39.6045 3.49925C39.8525 3.83251 40.0343 4.23243 40.15 4.66567C40.2657 5.09891 40.2988 5.56548 40.2657 6.04872H35.8358C35.8689 6.63193 36.0011 7.03184 36.2491 7.26513Z" fill="white"/>
<path d="M45.3074 4.91557C45.2578 4.68229 45.1752 4.46567 45.0594 4.29904C44.9437 4.1324 44.795 3.98243 44.6132 3.86579C44.4313 3.74915 44.1999 3.69916 43.9189 3.69916C43.6379 3.69916 43.4065 3.74915 43.2247 3.86579C43.0429 3.98243 42.8776 4.1324 42.7619 4.3157C42.6461 4.49899 42.5635 4.71562 42.5139 4.9489C42.4643 5.18219 42.4313 5.43213 42.4313 5.68208C42.4313 5.91537 42.4643 6.16531 42.5139 6.3986C42.5635 6.63188 42.6627 6.8485 42.7784 7.0318C42.9106 7.2151 43.0594 7.36506 43.2412 7.48171C43.423 7.59835 43.6544 7.64834 43.9189 7.64834C44.1999 7.64834 44.4313 7.59835 44.6132 7.48171C44.795 7.36506 44.9437 7.2151 45.0594 7.0318C45.1752 6.8485 45.2413 6.63188 45.2909 6.3986C45.3404 6.16531 45.357 5.91537 45.357 5.66542C45.39 5.39881 45.357 5.14886 45.3074 4.91557ZM45.39 7.96494C45.1917 8.2982 44.9272 8.54815 44.6132 8.68146C44.2991 8.81476 43.9354 8.89808 43.5222 8.89808C43.0594 8.89808 42.6627 8.81476 42.3156 8.63147C41.9684 8.44817 41.6709 8.21489 41.456 7.89829C41.2246 7.59835 41.0593 7.23176 40.9436 6.83184C40.8279 6.43193 40.7783 6.01535 40.7783 5.5821C40.7783 5.16552 40.8279 4.7656 40.9436 4.38235C41.0593 3.9991 41.2246 3.64917 41.456 3.3659C41.6874 3.06596 41.9684 2.83267 42.299 2.64938C42.6461 2.46608 43.0429 2.38277 43.4891 2.38277C43.8528 2.38277 44.1999 2.46608 44.5305 2.61605C44.8611 2.76602 45.1256 2.99931 45.3074 3.29924H45.3239V0.216553H47.0099V8.76477H45.4066V7.9816L45.39 7.96494Z" fill="white"/>
<path d="M4.24807 74.4511C4.16542 73.8513 3.60342 73.4013 2.94224 73.4013C1.76865 73.4013 1.32236 74.4178 1.32236 75.4676C1.32236 76.4674 1.76865 77.4838 2.94224 77.4838C3.73565 77.4838 4.19848 76.9339 4.29766 76.1341H5.57042C5.43819 77.6338 4.41336 78.6003 2.94224 78.6003C1.09094 78.6003 0 77.2172 0 75.4676C0 73.6846 1.09094 72.2849 2.94224 72.2849C4.24807 72.2849 5.35554 73.0681 5.52083 74.4511H4.24807Z" fill="white"/>
<path d="M8.31448 77.6672C9.12443 77.6672 9.37237 76.9673 9.37237 76.2841C9.37237 75.5843 9.12443 74.8844 8.31448 74.8844C7.52107 74.8844 7.27313 75.5843 7.27313 76.2841C7.2566 76.9673 7.50454 77.6672 8.31448 77.6672ZM8.31448 73.9846C9.6699 73.9846 10.5625 74.9011 10.5625 76.2841C10.5625 77.6672 9.68643 78.5837 8.31448 78.5837C6.95907 78.5837 6.08301 77.6672 6.08301 76.2841C6.08301 74.8844 6.95907 73.9846 8.31448 73.9846Z" fill="white"/>
<path d="M11.2729 74.0847H12.397V74.9012H12.4135C12.6284 74.3513 13.2234 73.968 13.802 73.968C13.8846 73.968 13.9838 73.9847 14.0664 74.0013V75.1178C13.9507 75.1011 13.7854 75.0844 13.6367 75.0844C12.7606 75.0844 12.4631 75.7176 12.4631 76.4842V78.4504H11.2729V74.0847Z" fill="white"/>
<path d="M17.736 76.2841C17.736 75.5843 17.455 74.8678 16.6947 74.8678C15.9178 74.8678 15.6698 75.5676 15.6698 76.2841C15.6698 76.984 15.9343 77.6672 16.7112 77.6672C17.4881 77.6672 17.736 76.984 17.736 76.2841ZM14.5293 74.1013H15.6533V74.6511H15.6698C15.9508 74.1846 16.4302 73.9846 16.9591 73.9846C18.3145 73.9846 18.9261 75.0844 18.9261 76.3341C18.9261 77.5006 18.298 78.5837 17.0252 78.5837C16.5128 78.5837 16.0169 78.3504 15.7359 77.9338H15.7194V80H14.5293V74.1013Z" fill="white"/>
<path d="M21.5376 77.6672C22.3476 77.6672 22.5955 76.9673 22.5955 76.2841C22.5955 75.5843 22.3476 74.8844 21.5376 74.8844C20.7277 74.8844 20.4963 75.5843 20.4963 76.2841C20.4797 76.9673 20.7277 77.6672 21.5376 77.6672ZM21.5376 73.9846C22.893 73.9846 23.7856 74.9011 23.7856 76.2841C23.7856 77.6672 22.9096 78.5837 21.5376 78.5837C20.1822 78.5837 19.3062 77.6672 19.3062 76.2841C19.3062 74.8844 20.1822 73.9846 21.5376 73.9846Z" fill="white"/>
<path d="M24.5131 74.0847H25.6371V74.9012H25.6536C25.8685 74.3513 26.4636 73.968 27.0256 73.968C27.1082 73.968 27.2074 73.9847 27.2901 74.0013V75.1178C27.1744 75.1011 27.0091 75.0844 26.8603 75.0844C25.9842 75.0844 25.6867 75.7176 25.6867 76.4842V78.4504H24.4966L24.5131 74.0847Z" fill="white"/>
<path d="M30.381 76.3175C30.1827 76.5008 29.7694 76.5008 29.3892 76.5675C29.0256 76.6508 28.695 76.7674 28.695 77.2007C28.695 77.6506 29.0421 77.7506 29.4223 77.7506C30.3479 77.7506 30.381 77.0007 30.381 76.7508V76.3175ZM27.6371 75.4344C27.7032 74.3179 28.695 73.968 29.6702 73.968C30.5298 73.968 31.5711 74.168 31.5711 75.2011V77.4673C31.5711 77.8672 31.6042 78.2671 31.7199 78.4338H30.5132C30.4802 78.3004 30.4306 78.1505 30.4306 78.0172C30.0504 78.4171 29.5049 78.5504 28.976 78.5504C28.1495 78.5504 27.5049 78.1338 27.5049 77.2507C27.5049 76.2675 28.2487 76.0343 28.976 75.9343C29.7033 75.8176 30.381 75.851 30.381 75.3677C30.381 74.8512 30.0339 74.7845 29.6041 74.7845C29.1578 74.7845 28.8603 74.9678 28.8107 75.4344H27.6371Z" fill="white"/>
<path d="M33.9682 74.1013H34.8443V74.9011H33.9682V77.0507C33.9682 77.4506 34.0674 77.5506 34.4641 77.5506C34.5963 77.5506 34.712 77.5506 34.8277 77.5173V78.4504C34.6294 78.4837 34.3649 78.4837 34.1335 78.4837C33.4062 78.4837 32.7781 78.3171 32.7781 77.4506V74.8845H32.0508V74.0846H32.7781V72.7849H33.9682V74.1013Z" fill="white"/>
<path d="M35.7367 74.1011H36.9269V78.4502H35.7367V74.1011ZM36.9103 73.4179H35.7202V72.4348H36.9103V73.4179Z" fill="white"/>
<path d="M39.9517 77.6672C40.7616 77.6672 41.0096 76.9673 41.0096 76.2841C41.0096 75.5843 40.7616 74.8844 39.9517 74.8844C39.1417 74.8844 38.9103 75.5843 38.9103 76.2841C38.8938 76.9673 39.1417 77.6672 39.9517 77.6672ZM39.9517 73.9846C41.3071 73.9846 42.1997 74.9011 42.1997 76.2841C42.1997 77.6672 41.3236 78.5837 39.9517 78.5837C38.5963 78.5837 37.7202 77.6672 37.7202 76.2841C37.7202 74.8844 38.5963 73.9846 39.9517 73.9846Z" fill="white"/>
<path d="M42.9598 74.1013H44.0838V74.7012H44.1003C44.3979 74.218 44.9268 73.968 45.4227 73.968C46.6789 73.968 46.993 74.6845 46.993 75.7676V78.4504H45.8029V75.9843C45.8029 75.2677 45.588 74.9178 45.0425 74.9178C44.3979 74.9178 44.1169 75.2844 44.1169 76.1676V78.4504H42.9268L42.9598 74.1013Z" fill="white"/>
<path d="M17.3061 47.0568H26.2486C29.323 47.0568 31.2735 45.1572 31.2735 42.2078C31.2735 38.6918 28.4635 37.7087 25.4551 37.7087H17.3061V47.0568ZM17.3061 34.6927H24.4468C28.4966 34.6927 30.1495 33.2097 30.1495 30.3769C30.1495 26.6277 27.5213 26.0945 24.4468 26.0945H17.3061V34.6927ZM13.7358 23.0618H23.4551C25.8188 23.0618 28.9429 23.0618 30.5462 24.0449C32.3149 25.1113 33.7033 27.0276 33.7033 29.6771C33.7033 32.5598 32.1992 34.7093 29.7197 35.7258V35.8091C33.0256 36.4923 34.8273 38.9918 34.8273 42.3244C34.8273 46.2903 32.0173 50.0895 26.6783 50.0895H13.7192L13.7358 23.0618Z" fill="white"/>
<path d="M23.5709 12.8972C10.5952 12.8972 0.0825195 23.495 0.0825195 36.5756C0.0825195 49.6562 10.5952 60.254 23.5709 60.254C36.5465 60.254 47.0592 49.6562 47.0592 36.5756C47.0592 23.5117 36.5465 12.8972 23.5709 12.8972ZM43.9682 36.5923C43.9682 47.9399 34.8439 57.1547 23.5709 57.1547C12.3143 57.1547 3.19005 47.9566 3.19005 36.5923C3.19005 25.2446 12.3143 16.0466 23.5709 16.0466C34.8274 16.0466 43.9682 25.2446 43.9682 36.5923Z" fill="white"/>
<path d="M47.0098 65.2532H0.132324V68.3525H47.0098V65.2532Z" fill="white"/>
<path d="M44.084 61.354C44.1666 61.1873 44.2658 61.0374 44.3815 60.9041C44.5137 60.7708 44.6625 60.6874 44.8278 60.6041C44.9931 60.5375 45.1749 60.5042 45.3733 60.5042C45.5716 60.5042 45.7534 60.5375 45.9187 60.6041C46.084 60.6708 46.2328 60.7708 46.3485 60.9041C46.4807 61.0374 46.5799 61.1707 46.646 61.354C46.7287 61.5206 46.7617 61.7039 46.7617 61.9205C46.7617 62.1205 46.7287 62.3038 46.646 62.4871C46.5799 62.6537 46.4642 62.8037 46.3485 62.937C46.2163 63.0703 46.084 63.1703 45.9187 63.2369C45.7534 63.3036 45.5716 63.3369 45.3733 63.3369C45.1914 63.3369 45.0096 63.3036 44.8278 63.2369C44.6625 63.1703 44.5137 63.0703 44.3815 62.937C44.2493 62.8037 44.1501 62.6704 44.084 62.4871C44.0013 62.3204 43.9683 62.1371 43.9683 61.9205C43.9683 61.7039 44.0013 61.5373 44.084 61.354ZM44.3154 62.3871C44.365 62.5371 44.4476 62.6704 44.5633 62.7703C44.6625 62.8703 44.7947 62.9703 44.927 63.0203C45.0592 63.0869 45.2245 63.1036 45.3733 63.1036C45.5386 63.1036 45.6873 63.0703 45.8196 63.0203C45.9518 62.9536 46.084 62.8703 46.1832 62.7703C46.2824 62.6704 46.365 62.5371 46.4312 62.3871C46.4973 62.2371 46.5138 62.0872 46.5138 61.9039C46.5138 61.7372 46.4807 61.5706 46.4312 61.4373C46.3816 61.2873 46.2989 61.1707 46.1832 61.054C46.084 60.9541 45.9518 60.8707 45.8196 60.8041C45.6873 60.7374 45.522 60.7208 45.3733 60.7208C45.208 60.7208 45.0592 60.7541 44.927 60.8041C44.7782 60.8707 44.6625 60.9541 44.5633 61.054C44.4641 61.154 44.3815 61.2873 44.3154 61.4373C44.2493 61.5873 44.2327 61.7372 44.2327 61.9039C44.2327 62.0872 44.2658 62.2538 44.3154 62.3871ZM45.4724 61.104C45.6708 61.104 45.803 61.1374 45.9022 61.2207C46.0014 61.304 46.051 61.4206 46.051 61.5706C46.051 61.7206 46.0014 61.8205 45.9187 61.9039C45.8361 61.9705 45.7369 62.0038 45.6047 62.0205L46.0675 62.7537H45.803L45.3567 62.0372H45.0923V62.7537H44.8443V61.104H45.4724ZM45.3567 61.8372C45.4229 61.8372 45.4724 61.8372 45.522 61.8372C45.5716 61.8372 45.6212 61.8205 45.6543 61.8039C45.6873 61.7872 45.7204 61.7539 45.7534 61.7206C45.77 61.6872 45.7865 61.6372 45.7865 61.5706C45.7865 61.5206 45.77 61.4706 45.7534 61.4373C45.7369 61.404 45.7039 61.3706 45.6708 61.354C45.6377 61.3373 45.6047 61.3206 45.5551 61.3206C45.5055 61.3206 45.4724 61.3206 45.4229 61.3206H45.0923V61.8372H45.3567Z" fill="white"/>
<path d="M5.81802 2.49948C5.70232 2.31618 5.57008 2.16622 5.40479 2.03291C5.23949 1.8996 5.05767 1.79962 4.84278 1.71631C4.6279 1.64966 4.41302 1.59967 4.18161 1.59967C3.76837 1.59967 3.40472 1.68298 3.10719 1.84961C2.80966 2.01625 2.57825 2.23287 2.39643 2.49948C2.2146 2.78275 2.08237 3.08269 1.99972 3.43262C1.91707 3.78255 1.86748 4.14914 1.86748 4.51573C1.86748 4.88232 1.90054 5.21558 1.99972 5.56551C2.08237 5.89877 2.2146 6.21537 2.39643 6.48198C2.57825 6.74859 2.80966 6.96521 3.10719 7.13185C3.40472 7.29848 3.75184 7.38179 4.18161 7.38179C4.74361 7.38179 5.1899 7.1985 5.52049 6.84857C5.85108 6.49865 6.0329 6.03208 6.11555 5.46553H7.91726C7.86767 5.99875 7.75197 6.48198 7.55361 6.91523C7.35526 7.34847 7.09079 7.71506 6.77673 8.015C6.46267 8.31493 6.06596 8.54822 5.6362 8.71485C5.20643 8.88148 4.72708 8.94814 4.19813 8.94814C3.55349 8.94814 2.95843 8.83149 2.44601 8.59821C1.9336 8.36492 1.48731 8.06499 1.14019 7.66507C0.776539 7.26515 0.512068 6.79858 0.313715 6.26536C0.115362 5.73214 0.0327148 5.14893 0.0327148 4.53239C0.0327148 3.89919 0.131891 3.29931 0.313715 2.74943C0.495539 2.19954 0.776539 1.73297 1.14019 1.31639C1.50384 0.916475 1.9336 0.583212 2.44601 0.349927C2.95843 0.116643 3.55349 0 4.19813 0C4.66096 0 5.10725 0.0666529 5.52049 0.199958C5.93373 0.333264 6.3139 0.533222 6.64449 0.799833C6.97508 1.06644 7.23955 1.38305 7.45444 1.7663C7.66932 2.14955 7.80156 2.5828 7.85114 3.08269H6.04943C5.99985 2.86607 5.9172 2.66611 5.81802 2.49948Z" fill="white"/>
<path d="M12.232 4.01581C12.0336 3.79918 11.7196 3.68254 11.3063 3.68254C11.0419 3.68254 10.8105 3.73253 10.6286 3.81585C10.4468 3.89916 10.3146 4.01581 10.1989 4.16577C10.0832 4.29908 10.017 4.44905 9.96745 4.59902C9.91786 4.74899 9.90134 4.88229 9.88481 4.99893H12.6287C12.5791 4.56569 12.4469 4.24909 12.232 4.01581ZM10.3311 7.26513C10.579 7.51508 10.9427 7.63172 11.422 7.63172C11.7692 7.63172 12.0502 7.5484 12.2981 7.36511C12.546 7.19848 12.6948 7.01518 12.7444 6.81522H14.232C14.0006 7.5484 13.637 8.08163 13.1411 8.41489C12.6452 8.74815 12.0502 8.89812 11.3559 8.89812C10.8766 8.89812 10.4303 8.81481 10.0501 8.66484C9.66992 8.51487 9.33933 8.28158 9.05833 7.99831C8.79386 7.71504 8.57898 7.36511 8.43022 6.96519C8.28145 6.56527 8.21533 6.13203 8.21533 5.6488C8.21533 5.18223 8.29798 4.74899 8.44674 4.34907C8.59551 3.94915 8.81039 3.59923 9.09139 3.31595C9.37239 3.01601 9.70298 2.79939 10.0832 2.63276C10.4633 2.46613 10.8931 2.38281 11.3559 2.38281C11.8849 2.38281 12.3312 2.48279 12.7279 2.68275C13.108 2.88271 13.4386 3.16598 13.6866 3.49925C13.9345 3.83251 14.1163 4.23243 14.232 4.66567C14.3478 5.09891 14.3808 5.56548 14.3478 6.04872H9.91787C9.93439 6.63193 10.0832 7.03184 10.3311 7.26513Z" fill="white"/>
<path d="M16.7113 2.56605V3.71581H16.7278C16.8104 3.51585 16.9096 3.34922 17.0419 3.18258C17.1741 3.01595 17.3394 2.88265 17.5047 2.76601C17.6865 2.64936 17.8683 2.56605 18.0667 2.49939C18.265 2.43274 18.4634 2.39941 18.6783 2.39941C18.794 2.39941 18.9097 2.41608 19.0419 2.46607V4.04907C18.9593 4.03241 18.8601 4.01574 18.7609 4.01574C18.6617 4.01574 18.546 3.99908 18.4469 3.99908C18.1328 3.99908 17.8849 4.04907 17.67 4.14905C17.4551 4.24903 17.2898 4.399 17.1576 4.58229C17.0253 4.76559 16.9261 4.96555 16.8766 5.21549C16.827 5.44878 16.7939 5.71539 16.7939 5.99866V8.78142H15.1079V2.56605H16.7113Z" fill="white"/>
<path d="M23.5711 2.56617V3.69927H22.3314V6.76529C22.3314 7.04857 22.381 7.24853 22.4802 7.33184C22.5794 7.43182 22.7612 7.48181 23.0422 7.48181C23.1414 7.48181 23.224 7.48181 23.3067 7.46515C23.3893 7.44848 23.472 7.44848 23.5546 7.43182V8.74821C23.4058 8.76488 23.2571 8.78154 23.0753 8.7982C22.8934 8.81487 22.7281 8.81487 22.5628 8.81487C22.2984 8.81487 22.0504 8.7982 21.819 8.76488C21.5876 8.73155 21.3893 8.6649 21.2074 8.56492C21.0256 8.46494 20.8934 8.31497 20.7777 8.11501C20.6785 7.91505 20.6289 7.66511 20.6289 7.36517V3.71593H19.6206V2.58283H20.6454V0.716553H22.3314V2.56617H23.5711Z" fill="white"/>
<path d="M26.2324 8.76477H24.5464V2.56606H26.2324V8.76477ZM24.5464 0.216553H26.2324V1.61626H24.5464V0.216553Z" fill="white"/>
<path d="M26.9102 3.71582V2.58273H27.9185V2.09949C27.9185 1.54961 28.0837 1.0997 28.4309 0.749776C28.778 0.399849 29.2904 0.216553 29.9681 0.216553C30.1169 0.216553 30.2656 0.216553 30.4144 0.233216C30.5632 0.24988 30.7119 0.24988 30.8442 0.266543V1.53295C30.6458 1.49962 30.4475 1.49962 30.2326 1.49962C30.0012 1.49962 29.8359 1.54961 29.7367 1.66625C29.6375 1.78289 29.5879 1.94952 29.5879 2.21614V2.58273H30.745V3.71582H29.5879V8.76477H27.9019V3.71582H26.9102Z" fill="white"/>
<path d="M33.5879 8.76477H31.9019V2.56606H33.5879V8.76477ZM31.9019 0.216553H33.5879V1.61626H31.9019V0.216553Z" fill="white"/>
<path d="M38.15 4.01581C37.9516 3.79918 37.6375 3.68254 37.2243 3.68254C36.9598 3.68254 36.7284 3.73253 36.5466 3.81585C36.3648 3.89916 36.2325 4.01581 36.1168 4.16577C36.0011 4.31574 35.935 4.44905 35.8854 4.59902C35.8358 4.74899 35.8193 4.88229 35.8028 4.99893H38.5467C38.4971 4.56569 38.3648 4.24909 38.15 4.01581ZM36.2491 7.26513C36.497 7.51508 36.8607 7.63172 37.34 7.63172C37.6871 7.63172 37.9681 7.5484 38.2161 7.36511C38.464 7.19848 38.6128 7.01518 38.6624 6.81522H40.15C39.9186 7.5484 39.555 8.08163 39.0591 8.41489C38.5632 8.73149 37.9681 8.89812 37.2739 8.89812C36.7945 8.89812 36.3482 8.81481 35.9681 8.66484C35.5714 8.51487 35.2573 8.28158 34.9763 7.99831C34.7118 7.71504 34.497 7.36511 34.3482 6.96519C34.1994 6.56527 34.1333 6.13203 34.1333 5.6488C34.1333 5.18223 34.216 4.74899 34.3647 4.34907C34.5135 3.94915 34.7284 3.59923 35.0094 3.31595C35.2904 3.01601 35.621 2.79939 36.0011 2.63276C36.3813 2.46613 36.8111 2.38281 37.2739 2.38281C37.8028 2.38281 38.2491 2.48279 38.6458 2.68275C39.0425 2.88271 39.3566 3.16598 39.6045 3.49925C39.8525 3.83251 40.0343 4.23243 40.15 4.66567C40.2657 5.09891 40.2988 5.56548 40.2657 6.04872H35.8358C35.8689 6.63193 36.0011 7.03184 36.2491 7.26513Z" fill="white"/>
<path d="M45.3074 4.91557C45.2578 4.68229 45.1752 4.46567 45.0594 4.29904C44.9437 4.1324 44.795 3.98243 44.6132 3.86579C44.4313 3.74915 44.1999 3.69916 43.9189 3.69916C43.6379 3.69916 43.4065 3.74915 43.2247 3.86579C43.0429 3.98243 42.8776 4.1324 42.7619 4.3157C42.6461 4.49899 42.5635 4.71562 42.5139 4.9489C42.4643 5.18219 42.4313 5.43213 42.4313 5.68208C42.4313 5.91537 42.4643 6.16531 42.5139 6.3986C42.5635 6.63188 42.6627 6.8485 42.7784 7.0318C42.9106 7.2151 43.0594 7.36506 43.2412 7.48171C43.423 7.59835 43.6544 7.64834 43.9189 7.64834C44.1999 7.64834 44.4313 7.59835 44.6132 7.48171C44.795 7.36506 44.9437 7.2151 45.0594 7.0318C45.1752 6.8485 45.2413 6.63188 45.2909 6.3986C45.3404 6.16531 45.357 5.91537 45.357 5.66542C45.39 5.39881 45.357 5.14886 45.3074 4.91557ZM45.39 7.96494C45.1917 8.2982 44.9272 8.54815 44.6132 8.68146C44.2991 8.81476 43.9354 8.89808 43.5222 8.89808C43.0594 8.89808 42.6627 8.81476 42.3156 8.63147C41.9684 8.44817 41.6709 8.21489 41.456 7.89829C41.2246 7.59835 41.0593 7.23176 40.9436 6.83184C40.8279 6.43193 40.7783 6.01535 40.7783 5.5821C40.7783 5.16552 40.8279 4.7656 40.9436 4.38235C41.0593 3.9991 41.2246 3.64917 41.456 3.3659C41.6874 3.06596 41.9684 2.83267 42.299 2.64938C42.6461 2.46608 43.0429 2.38277 43.4891 2.38277C43.8528 2.38277 44.1999 2.46608 44.5305 2.61605C44.8611 2.76602 45.1256 2.99931 45.3074 3.29924H45.3239V0.216553H47.0099V8.76477H45.4066V7.9816L45.39 7.96494Z" fill="white"/>
<path d="M4.24807 74.4511C4.16542 73.8513 3.60342 73.4013 2.94224 73.4013C1.76865 73.4013 1.32236 74.4178 1.32236 75.4676C1.32236 76.4674 1.76865 77.4838 2.94224 77.4838C3.73565 77.4838 4.19848 76.9339 4.29766 76.1341H5.57042C5.43819 77.6338 4.41336 78.6003 2.94224 78.6003C1.09094 78.6003 0 77.2172 0 75.4676C0 73.6846 1.09094 72.2849 2.94224 72.2849C4.24807 72.2849 5.35554 73.0681 5.52083 74.4511H4.24807Z" fill="white"/>
<path d="M8.31448 77.6672C9.12443 77.6672 9.37237 76.9673 9.37237 76.2841C9.37237 75.5843 9.12443 74.8844 8.31448 74.8844C7.52107 74.8844 7.27313 75.5843 7.27313 76.2841C7.2566 76.9673 7.50454 77.6672 8.31448 77.6672ZM8.31448 73.9846C9.6699 73.9846 10.5625 74.9011 10.5625 76.2841C10.5625 77.6672 9.68643 78.5837 8.31448 78.5837C6.95907 78.5837 6.08301 77.6672 6.08301 76.2841C6.08301 74.8844 6.95907 73.9846 8.31448 73.9846Z" fill="white"/>
<path d="M11.2729 74.0847H12.397V74.9012H12.4135C12.6284 74.3513 13.2234 73.968 13.802 73.968C13.8846 73.968 13.9838 73.9847 14.0664 74.0013V75.1178C13.9507 75.1011 13.7854 75.0844 13.6367 75.0844C12.7606 75.0844 12.4631 75.7176 12.4631 76.4842V78.4504H11.2729V74.0847Z" fill="white"/>
<path d="M17.736 76.2841C17.736 75.5843 17.455 74.8678 16.6947 74.8678C15.9178 74.8678 15.6698 75.5676 15.6698 76.2841C15.6698 76.984 15.9343 77.6672 16.7112 77.6672C17.4881 77.6672 17.736 76.984 17.736 76.2841ZM14.5293 74.1013H15.6533V74.6511H15.6698C15.9508 74.1846 16.4302 73.9846 16.9591 73.9846C18.3145 73.9846 18.9261 75.0844 18.9261 76.3341C18.9261 77.5006 18.298 78.5837 17.0252 78.5837C16.5128 78.5837 16.0169 78.3504 15.7359 77.9338H15.7194V80H14.5293V74.1013Z" fill="white"/>
<path d="M21.5376 77.6672C22.3476 77.6672 22.5955 76.9673 22.5955 76.2841C22.5955 75.5843 22.3476 74.8844 21.5376 74.8844C20.7277 74.8844 20.4963 75.5843 20.4963 76.2841C20.4797 76.9673 20.7277 77.6672 21.5376 77.6672ZM21.5376 73.9846C22.893 73.9846 23.7856 74.9011 23.7856 76.2841C23.7856 77.6672 22.9096 78.5837 21.5376 78.5837C20.1822 78.5837 19.3062 77.6672 19.3062 76.2841C19.3062 74.8844 20.1822 73.9846 21.5376 73.9846Z" fill="white"/>
<path d="M24.5131 74.0847H25.6371V74.9012H25.6536C25.8685 74.3513 26.4636 73.968 27.0256 73.968C27.1082 73.968 27.2074 73.9847 27.2901 74.0013V75.1178C27.1744 75.1011 27.0091 75.0844 26.8603 75.0844C25.9842 75.0844 25.6867 75.7176 25.6867 76.4842V78.4504H24.4966L24.5131 74.0847Z" fill="white"/>
<path d="M30.381 76.3175C30.1827 76.5008 29.7694 76.5008 29.3892 76.5675C29.0256 76.6508 28.695 76.7674 28.695 77.2007C28.695 77.6506 29.0421 77.7506 29.4223 77.7506C30.3479 77.7506 30.381 77.0007 30.381 76.7508V76.3175ZM27.6371 75.4344C27.7032 74.3179 28.695 73.968 29.6702 73.968C30.5298 73.968 31.5711 74.168 31.5711 75.2011V77.4673C31.5711 77.8672 31.6042 78.2671 31.7199 78.4338H30.5132C30.4802 78.3004 30.4306 78.1505 30.4306 78.0172C30.0504 78.4171 29.5049 78.5504 28.976 78.5504C28.1495 78.5504 27.5049 78.1338 27.5049 77.2507C27.5049 76.2675 28.2487 76.0343 28.976 75.9343C29.7033 75.8176 30.381 75.851 30.381 75.3677C30.381 74.8512 30.0339 74.7845 29.6041 74.7845C29.1578 74.7845 28.8603 74.9678 28.8107 75.4344H27.6371Z" fill="white"/>
<path d="M33.9682 74.1013H34.8443V74.9011H33.9682V77.0507C33.9682 77.4506 34.0674 77.5506 34.4641 77.5506C34.5963 77.5506 34.712 77.5506 34.8277 77.5173V78.4504C34.6294 78.4837 34.3649 78.4837 34.1335 78.4837C33.4062 78.4837 32.7781 78.3171 32.7781 77.4506V74.8845H32.0508V74.0846H32.7781V72.7849H33.9682V74.1013Z" fill="white"/>
<path d="M35.7367 74.1011H36.9269V78.4502H35.7367V74.1011ZM36.9103 73.4179H35.7202V72.4348H36.9103V73.4179Z" fill="white"/>
<path d="M39.9517 77.6672C40.7616 77.6672 41.0096 76.9673 41.0096 76.2841C41.0096 75.5843 40.7616 74.8844 39.9517 74.8844C39.1417 74.8844 38.9103 75.5843 38.9103 76.2841C38.8938 76.9673 39.1417 77.6672 39.9517 77.6672ZM39.9517 73.9846C41.3071 73.9846 42.1997 74.9011 42.1997 76.2841C42.1997 77.6672 41.3236 78.5837 39.9517 78.5837C38.5963 78.5837 37.7202 77.6672 37.7202 76.2841C37.7202 74.8844 38.5963 73.9846 39.9517 73.9846Z" fill="white"/>
<path d="M42.9598 74.1013H44.0838V74.7012H44.1003C44.3979 74.218 44.9268 73.968 45.4227 73.968C46.6789 73.968 46.993 74.6845 46.993 75.7676V78.4504H45.8029V75.9843C45.8029 75.2677 45.588 74.9178 45.0425 74.9178C44.3979 74.9178 44.1169 75.2844 44.1169 76.1676V78.4504H42.9268L42.9598 74.1013Z" fill="white"/>
</svg>
