<svg width="20" height="20" viewBox="0 0 20 20" fill="none" xmlns="http://www.w3.org/2000/svg">
<path d="M14.943 13.5308C16.1047 12.0729 16.7426 10.2278 16.7426 8.35991C16.7426 3.75854 12.984 0 8.35991 0C3.73576 0 0 3.75854 0 8.35991C0 12.9613 3.75854 16.7199 8.35991 16.7199C10.205 16.7199 12.0501 16.082 13.5308 14.9202L18.5649 19.9545L20 18.5194L14.943 13.5308ZM8.35991 14.738C4.87471 14.738 2.02734 11.8907 2.02734 8.40546C2.02734 4.92027 4.87471 2.07289 8.35991 2.07289C11.8451 2.07289 14.6925 4.92027 14.6925 8.40546C14.6925 11.8907 11.8451 14.738 8.35991 14.738Z" fill="#333333"/>
</svg>
