<svg width="24" height="17" viewBox="0 0 24 17" fill="none" xmlns="http://www.w3.org/2000/svg">
<path d="M5.67441 16.5502C4.85801 16.5502 4.158 16.2584 3.5744 15.6748C2.9912 15.0916 2.6996 14.3834 2.6996 13.5502H0.924805V0.5002H17.0246V4.6252H19.7996L23.0744 8.9752V13.5502H21.1994C21.1994 14.3834 20.9036 15.0916 20.312 15.6748C19.7204 16.2584 19.0162 16.5502 18.1994 16.5502C17.383 16.5502 16.6872 16.2584 16.112 15.6748C15.5372 15.0916 15.2498 14.3834 15.2498 13.5502H8.67441C8.67441 14.3834 8.37861 15.0916 7.787 15.6748C7.19541 16.2584 6.49121 16.5502 5.67441 16.5502ZM5.6996 14.8498C6.0496 14.8498 6.34961 14.7208 6.59961 14.4628C6.84961 14.2044 6.97461 13.9002 6.97461 13.5502C6.97461 13.2002 6.84961 12.9002 6.59961 12.6502C6.34961 12.4002 6.0496 12.2752 5.6996 12.2752C5.33281 12.2752 5.02441 12.4002 4.77441 12.6502C4.52441 12.9002 4.39941 13.2002 4.39941 13.5502C4.39941 13.9002 4.52441 14.2044 4.77441 14.4628C5.02441 14.7208 5.33281 14.8498 5.6996 14.8498ZM2.5994 11.875H3.2744C3.558 11.475 3.9038 11.1584 4.3118 10.9252C4.7202 10.6916 5.17441 10.5748 5.67441 10.5748C6.15801 10.5748 6.61221 10.6956 7.037 10.9372C7.4622 11.1792 7.80801 11.4918 8.07441 11.875H15.3248V2.2H2.5994V11.875ZM18.1994 14.8498C18.5662 14.8498 18.8746 14.7208 19.1246 14.4628C19.3746 14.2044 19.4996 13.9002 19.4996 13.5502C19.4996 13.2002 19.3746 12.9002 19.1246 12.6502C18.8746 12.4002 18.5662 12.2752 18.1994 12.2752C17.8494 12.2752 17.5494 12.4002 17.2994 12.6502C17.0494 12.9002 16.9244 13.2002 16.9244 13.5502C16.9244 13.9002 17.0494 14.2044 17.2994 14.4628C17.5494 14.7208 17.8494 14.8498 18.1994 14.8498ZM17.0246 9.775H21.5744L18.9494 6.325H17.0246V9.775Z" fill="#333333"/>
</svg>
