<svg width="18" height="18" viewBox="0 0 18 18" fill="none" xmlns="http://www.w3.org/2000/svg">
<path d="M9.00048 17.4884C7.84782 17.4884 6.76098 17.2697 5.73998 16.8324C4.71932 16.3947 3.83048 15.8009 3.07348 15.0509C2.31648 14.3009 1.72265 13.4156 1.29198 12.3949C0.861651 11.3739 0.646484 10.2801 0.646484 9.1134C0.646484 7.96073 0.861651 6.87406 1.29198 5.8534C1.72265 4.8324 2.31648 3.9469 3.07348 3.1969C3.83048 2.4469 4.71932 1.85656 5.73998 1.4259C6.76098 0.995562 7.84782 0.780396 9.00048 0.780396C10.1532 0.780396 11.24 0.995562 12.261 1.4259C13.2817 1.85656 14.1705 2.4469 14.9275 3.1969C15.6845 3.9469 16.2783 4.8324 16.709 5.8534C17.1393 6.87406 17.3545 7.96073 17.3545 9.1134C17.3545 10.2801 17.1393 11.3739 16.709 12.3949C16.2783 13.4156 15.6845 14.3009 14.9275 15.0509C14.1705 15.8009 13.2817 16.3947 12.261 16.8324C11.24 17.2697 10.1532 17.4884 9.00048 17.4884ZM9.00048 16.0929C9.47282 15.5372 9.86165 14.9469 10.167 14.3219C10.4727 13.6969 10.7297 12.9886 10.938 12.1969H7.06298C7.27132 12.9886 7.53182 13.7039 7.84448 14.3429C8.15682 14.9816 8.54215 15.5649 9.00048 16.0929ZM7.43798 15.8634C7.09065 15.4051 6.77815 14.8601 6.50048 14.2284C6.22282 13.5964 6.00065 12.9192 5.83398 12.1969H2.75048C3.22282 13.1692 3.85132 13.9574 4.63598 14.5614C5.42065 15.1657 6.35465 15.5997 7.43798 15.8634ZM10.563 15.8634C11.563 15.6414 12.4797 15.2074 13.313 14.5614C14.1463 13.9157 14.7992 13.1276 15.2715 12.1969H12.188C11.9937 12.9192 11.7575 13.5964 11.4795 14.2284C11.2018 14.8601 10.8963 15.4051 10.563 15.8634ZM2.31298 11.0094H5.62548C5.56982 10.6761 5.53515 10.3531 5.52148 10.0404C5.50748 9.72806 5.50048 9.41906 5.50048 9.1134C5.50048 8.79406 5.50748 8.48156 5.52148 8.1759C5.53515 7.87056 5.56982 7.56506 5.62548 7.2594H2.31298C2.21565 7.53706 2.14615 7.82873 2.10448 8.1344C2.06282 8.44006 2.04198 8.7664 2.04198 9.1134C2.04198 9.46073 2.06282 9.79073 2.10448 10.1034C2.14615 10.4157 2.21565 10.7177 2.31298 11.0094ZM6.83398 11.0094H11.188C11.2437 10.6484 11.2818 10.3186 11.3025 10.0199C11.3235 9.72123 11.334 9.41906 11.334 9.1134C11.334 8.80806 11.3235 8.51306 11.3025 8.2284C11.2818 7.9434 11.2437 7.6204 11.188 7.2594H6.83398C6.76432 7.6204 6.71915 7.9434 6.69848 8.2284C6.67748 8.51306 6.66698 8.80806 6.66698 9.1134C6.66698 9.41906 6.67748 9.72123 6.69848 10.0199C6.71915 10.3186 6.76432 10.6484 6.83398 11.0094ZM12.3965 11.0094H15.709C15.7923 10.7177 15.8548 10.4157 15.8965 10.1034C15.9382 9.79073 15.959 9.46073 15.959 9.1134C15.959 8.7664 15.9382 8.44006 15.8965 8.1344C15.8548 7.82873 15.7923 7.53706 15.709 7.2594H12.3965C12.4382 7.6484 12.4693 7.98873 12.49 8.2804C12.511 8.57206 12.5215 8.84973 12.5215 9.1134C12.5215 9.41906 12.511 9.72123 12.49 10.0199C12.4693 10.3186 12.4382 10.6484 12.3965 11.0094ZM12.167 6.0719H15.2715C14.7992 5.09956 14.1568 4.29406 13.3445 3.6554C12.5318 3.0164 11.6047 2.59273 10.563 2.3844C10.9103 2.8704 11.2193 3.42256 11.49 4.0409C11.761 4.6589 11.9867 5.3359 12.167 6.0719ZM7.06298 6.0719H10.959C10.7643 5.34956 10.5038 4.65506 10.1775 3.9884C9.85115 3.32173 9.45882 2.69673 9.00048 2.1134C8.56982 2.6274 8.20182 3.1934 7.89648 3.8114C7.59082 4.4294 7.31298 5.1829 7.06298 6.0719ZM2.75048 6.0719H5.85448C6.02115 5.34956 6.23648 4.6829 6.50048 4.0719C6.76448 3.4609 7.07698 2.8984 7.43798 2.3844C6.38232 2.60673 5.45182 3.0304 4.64648 3.6554C3.84082 4.2804 3.20882 5.0859 2.75048 6.0719Z" fill="#333333"/>
</svg>
