<svg width="17" height="18" viewBox="0 0 17 18" fill="none" xmlns="http://www.w3.org/2000/svg">
<path d="M2.4002 15.0252C1.667 14.2916 1.0962 13.4374 0.687795 12.4626C0.279395 11.4874 0.0751953 10.4916 0.0751953 9.4752C0.0751953 8.3752 0.283595 7.3084 0.700395 6.2748C1.1168 5.2416 1.75 4.3166 2.6 3.4998C3.2836 2.7998 4.14619 2.2458 5.1878 1.8378C6.22939 1.4294 7.371 1.1334 8.61259 0.949803C9.85419 0.766603 11.171 0.666603 12.563 0.649803C13.9546 0.633403 15.3336 0.666802 16.7 0.750002C16.8 2.0832 16.85 3.4374 16.85 4.8126C16.85 6.1874 16.7542 7.504 16.5626 8.7624C16.371 10.0208 16.071 11.1834 15.6626 12.2502C15.2542 13.3166 14.7 14.1998 14 14.8998C13.1668 15.7334 12.2544 16.3584 11.2628 16.7748C10.2712 17.1916 9.25039 17.4 8.20039 17.4C7.10039 17.4 6.0628 17.2124 5.08759 16.8372C4.11279 16.4624 3.217 15.8584 2.4002 15.0252ZM4.85 14.7498C5.31679 15.0666 5.84599 15.3042 6.43759 15.4626C7.02919 15.621 7.61679 15.7002 8.20039 15.7002C9.01679 15.7002 9.825 15.5334 10.625 15.1998C11.425 14.8666 12.15 14.3666 12.8 13.6998C13.2336 13.2498 13.6086 12.6624 13.925 11.9376C14.2418 11.2124 14.4918 10.3666 14.675 9.4002C14.8586 8.4334 14.9878 7.3542 15.0626 6.1626C15.1378 4.971 15.1504 3.6918 15.1004 2.325C13.9336 2.2918 12.7836 2.3002 11.6504 2.3502C10.5168 2.4002 9.4458 2.5168 8.4374 2.7C7.4294 2.8832 6.5336 3.1332 5.75 3.45C4.96679 3.7668 4.33359 4.1668 3.85039 4.65C3.1168 5.3668 2.5834 6.121 2.2502 6.9126C1.917 7.7042 1.7504 8.475 1.7504 9.225C1.7504 10.0582 1.9212 10.8832 2.2628 11.7C2.6044 12.5168 3.0336 13.1668 3.5504 13.65C4.15039 12.2668 4.97539 10.9918 6.02539 9.825C7.07539 8.6582 8.38359 7.6332 9.95 6.75C8.66679 7.8832 7.60439 9.0956 6.76279 10.3872C5.9212 11.6792 5.2836 13.1334 4.85 14.7498Z" fill="#333333"/>
</svg>
