<svg width="12" height="21" viewBox="0 0 12 21" fill="none" xmlns="http://www.w3.org/2000/svg">
<path d="M2.0998 20.1C1.5998 20.1 1.17501 19.9248 0.825405 19.5744C0.475005 19.2248 0.299805 18.8 0.299805 18.3V10.8504C0.299805 9.43361 0.749805 8.19201 1.6498 7.12561C2.5498 6.05841 3.69981 5.40801 5.09981 5.17441V2.70001H3.2998V0.900009H8.69981C9.25021 0.900009 9.79181 0.979209 10.3246 1.13761C10.8582 1.29601 11.3498 1.54161 11.7994 1.87441L10.4998 3.17521C10.2166 3.02481 9.92501 2.90801 9.62501 2.82481C9.32501 2.74161 9.01661 2.70001 8.69981 2.70001H6.89981V5.15041C8.31661 5.38321 9.49181 6.03721 10.4254 7.11241C11.3582 8.18761 11.8246 9.43361 11.8246 10.8504V18.3C11.8246 18.8 11.6454 19.2248 11.287 19.5744C10.9286 19.9248 10.5078 20.1 10.0246 20.1H2.0998ZM2.0998 18.3H9.89981V10.8C9.89981 9.71681 9.52061 8.79601 8.76221 8.03761C8.00381 7.27921 7.083 6.90001 5.9998 6.90001C4.89981 6.90001 3.97501 7.27921 3.22541 8.03761C2.47501 8.79601 2.0998 9.71681 2.0998 10.8V18.3Z" fill="#333333"/>
</svg>
