<svg width="24" height="24" viewBox="0 0 24 24" fill="none" xmlns="http://www.w3.org/2000/svg">
<path d="M11.9682 4.10854L11.9592 4.10033L11.9502 4.10854C9.84499 6.03687 8.25673 7.81526 7.18584 9.44371C6.11502 11.0721 5.57855 12.5338 5.57855 13.8286C5.57855 15.7242 6.18102 17.2973 7.38636 18.547C8.59175 19.7967 10.1164 20.4214 11.9592 20.4214C13.802 20.4214 15.3266 19.7967 16.532 18.547C17.7374 17.2973 18.3398 15.7242 18.3398 13.8286C18.3398 12.5338 17.8034 11.0721 16.7325 9.44371C15.6617 7.81526 14.0734 6.03687 11.9682 4.10854ZM11.9573 21.9867C9.6885 21.9867 7.79772 21.2075 6.28402 19.6489C4.77026 18.0904 4.01327 16.1506 4.01327 13.8286C4.01327 12.1859 4.67072 10.384 5.98755 8.42271C7.30292 6.46356 9.29331 4.32851 11.9592 2.01755C14.6251 4.32851 16.6155 6.46356 17.9308 8.42271C19.2477 10.384 19.9051 12.1859 19.9051 13.8286C19.9051 16.1506 19.1475 18.0904 17.6325 19.6489C16.1175 21.2075 14.2261 21.9867 11.9573 21.9867Z" fill="white" stroke="#FFFEF2" stroke-width="0.0265307"/>
</svg>