<svg xmlns="http://www.w3.org/2000/svg" xmlns:xlink="http://www.w3.org/1999/xlink" id="Layer_1" x="0px" y="0px" viewBox="0 0 1920 500.3" style="enable-background:new 0 0 1920 500.3;" xml:space="preserve"><style type="text/css">	.st0{fill:#ADDEDF;}	.st1{fill:none;stroke:#ADDEDF;stroke-width:3;stroke-miterlimit:10;}	.st2{fill:none;stroke:#ADDEDF;stroke-width:2.6;stroke-miterlimit:10;}	.st3{fill:none;stroke:#ADDEDF;stroke-width:2.5;stroke-miterlimit:10;}	.st4{opacity:3.000000e-02;}	.st5{fill="#d2b48c";}	.st6{opacity:3.000000e-02;fill="#d2b48c";}	.st7{clip-path:url(#SVGID_00000057827682596590458530000002058306954786946187_);}</style><g>	<defs>		<rect id="SVGID_1_" x="0" y="0.1" width="1926.5" height="500.2"></rect>	</defs>	<clipPath id="SVGID_00000106148071071842620290000000773922115327702460_">		<use xlink:href="#SVGID_1_" style="overflow:visible;"></use>	</clipPath>	<g style="clip-path:url(#SVGID_00000106148071071842620290000000773922115327702460_);">		<g>			<path class="st5" d="M2035.1-326.6c-24.9,19.9-49.6,39.9-73.4,60.4c-20.8,18-38,37.7-47.7,60.5c-4.4,10.3-6.1,20.6-6.1,30.7    c0,14,3.4,27.8,8,41.6c14.3,42,17.2,84.9,21.9,127.9c1.9,17.6,5.9,35.3,17.8,51.3c10.6,14.2,22.7,27.7,33.5,41.7    c14.6,18.9,28.6,38.1,30.6,59.9c1.7,18,1.6,36.1,3.2,54.1c1.3,14.1,8,27.2,19.2,39c4.2,4.4,9,7.9,14.7,10.3    c5.7,2.4,12.3,3.7,19.7,3.7c1.1,0,2.3,0,3.5-0.1c13.7-0.7,27.3-1.9,40.8-1.9h0l0.2,0c8.2,0,17,0.8,24.3,3.1    c5.9,1.8,10.3,4.4,13.3,7.5c3,3.1,4.5,6.6,4.5,10.4c0,5.3-3,11.2-9.4,16.8c-13.8,12.1-32,18.4-53.9,18.4c-0.7,0-1.4,0-2.1,0    c-2.5,0-5-0.1-7.5-0.1h0c-17.8,0-35.3,1.5-50.5,9.8c-11.3,6.2-21.7,13.1-32.4,19.7c-23,14.2-45.7,28.7-69.1,42.6    c-29.4,17.5-56.9,36.2-75,60.8c-19.9,26.9-43.8,51.8-73.5,73.5c-38.3,28-51.2,62.9-57.3,99.6c-3.5,21.2-5,42.4-9.2,63.4    c-2.5,12.8-8.8,23.2-19,31c-10.2,7.9-24.3,13.3-42.8,16.3c-17.5,2.8-35.1,4.2-52.5,4.2c-13.7,0-27.3-0.8-40.9-2.5    c-44.6-5.4-82-19.7-109.4-46.2c-21.2-20.6-43.8-40.5-66-60.4c-9.9-8.9-20.7-16.9-33.3-23c-12.6-6.1-26.9-10.4-43.8-12    c-4.8-0.5-9-1.8-12.8-3.8c-3.8-2.1-7.2-5-10.2-8.7c-20.4-25.2-27.5-51.6-27.5-78.8c0-12,1.4-24.1,3.6-36.3    c1.8-9.6,2.8-19.2,2.8-28.6c0-18.1-3.8-35.8-13.9-53c-5.4-9.2-10.9-16.7-18.1-22c-7.2-5.3-16.4-8.2-28.5-8.2h-0.1    c-8.9,0-19.5,1.5-32.3,4.8c-18.2,4.6-35.7,10.6-53,16.6c-24.7,8.6-49.6,12.8-74.9,12.8c-20,0-40.2-2.6-60.6-7.8    c-24.2-6.1-47.9-13.2-72-19.7c-12.9-3.5-26.2-4.7-39.5-4.7c-5.6,0-11.2,0.2-16.8,0.6c-10.5,0.6-19.1,4.3-25,9.9    c-5.9,5.6-9.1,13.1-9.1,21.6c0,3.9,0.7,8,2.1,12.3c12.4,36.8,13.3,74.7,18.9,112.3c2.5,16.6,4,33.3,6,49.9    c2.9,25,6.7,49.9,8.5,74.9c0.6,8,0.8,16.1,0.8,24.1c0,10.3-0.3,20.6-0.7,31c-0.6,20.5-9.3,38.8-30.4,53.4    c-14.3,9.9-29.7,19.1-43.9,29.3c-44.3,31.8-88.2,63.8-132.2,95.7c-2.3,1.7-4,3.7-6,5.2c-7.2,5.5-11.3,11.7-11.3,17.8    c0,4.1,1.9,8.1,5.8,11.7c3.9,3.6,9.8,6.8,17.9,9.4c29,9.3,59.7,12,91.5,12l0.3,0h0c15,0,28.2-2,39.6-6.2    c11.4-4.2,20.9-10.7,28.6-19.6c16.2-18.6,34.5-35.9,57.1-50.7c6.3-4.1,13.4-7.9,19.1-12.6c34-28,71.1-52.9,118.4-69.7    c40.1-14.3,76.6-33.1,107.4-56.3c22.2-16.7,41.3-35.4,62.1-52.9c21.5-18.1,45.3-34.1,77.2-42.4c6.2-1.6,11.1-2.4,15.2-2.4h0    c4.4,0,7.7,0.9,10.8,2.8c3.1,2,6,5.1,8.9,9.4c17.7,26.4,18.8,55.3,21.4,83.9c0.4,4.9,0.6,9.8,0.6,14.7c0,13.1-1.4,26.2-3.5,39.2    c-1.8,11.5-5.6,22.5-12.4,32.2c-6.8,9.8-16.7,18.4-30.8,25.3c-15.2,7.4-30.8,14.4-46.9,20.8c-16.2,6.4-27.7,13.7-35,22.1    c-7.4,8.4-10.6,17.7-10.6,28.1c0,8.3,2.1,17.3,5.8,27c3.2,8.2,8.4,13.6,14.9,17c6.5,3.4,14.3,4.6,22.3,4.6c4.6,0,9.2-0.4,13.9-1    c12.2-1.7,24.5-3.4,36.7-5.2c43.2-6.6,83.9-17.4,116.6-39.8c48.4-33.1,106.5-51,172.5-58.2c5.7-0.6,11.2-0.9,16.6-0.9    c25.7,0,47.5,7,67.5,19.6c26.3,16.6,44.9,37.4,60.9,59.2c10.6,14.3,16.1,28.8,16.1,43.5c0,13.1-4.5,26.4-13.9,39.9    c-11.6,16.6-21.2,34.3-27.8,52.2c-2.2,5.9-3.4,12-3.4,18c0,11.4,4.4,22.6,15,32.6c8.8,8.3,19.6,15.5,29.2,23.1    c13.4,10.6,19.4,21.6,19.4,31.8c0,8-3.7,15.6-10.5,22.2c-6.8,6.6-16.7,12.1-29.2,15.9c-9.5,2.9-19.4,4.1-29.5,4.1    c-12.6,0-25.6-1.9-38.4-4.7c-46.6-10.3-88.3-26.7-125.8-48.8c-21.2-12.4-44.7-21.6-72.4-25.4c-4-0.5-8.1-0.8-12.3-0.8    c-11.1,0-22.5,2-31.6,6.3c-9.1,4.3-15.9,11.1-17.4,20.5c-0.6,3.5-0.9,7.1-0.9,10.6c0,14.6,5.2,28.6,16.6,40    c11.4,11.4,29.1,20.2,53.8,24.4c26.1,4.4,53,7.7,77.4,14.9c18.1,5.3,34.9,12,48.9,20.8c12.7,7.9,23.2,17.5,30.5,29.4h3    c-7.5-12.5-18.5-22.6-31.7-30.9c-14.4-9-31.4-15.7-49.7-21.1c-24.8-7.2-51.7-10.6-77.8-15c-24.1-4.1-41.1-12.6-52.2-23.6    c-11-11-16.1-24.6-16.1-38.9c0-3.4,0.3-6.9,0.9-10.4c1.5-8.8,7.7-15,16.2-19.1c8.5-4.1,19.5-6,30.1-6h0c4,0,8,0.3,11.8,0.8    c27.2,3.8,50.3,12.7,71.2,25c37.8,22.2,79.7,38.8,126.7,49.2c12.9,2.9,26.2,4.8,39.2,4.8h0c10.4,0,20.7-1.3,30.6-4.3    c12.8-4,23.2-9.7,30.3-16.6c7.1-6.9,11-14.9,11-23.4c0-10.8-6.3-22.2-20.1-33.1c-9.8-7.7-20.5-14.8-29.1-22.9    c-10.2-9.6-14.4-20.4-14.4-31.4c0-5.8,1.2-11.7,3.3-17.5c6.6-17.8,16.1-35.3,27.6-51.8c9.6-13.7,14.2-27.4,14.2-40.8    c0-15-5.7-29.9-16.5-44.4c-16.1-21.8-34.9-42.9-61.6-59.8c-20.4-12.8-42.9-20.1-69.3-20.1h0c-5.5,0-11.1,0.3-17,0.9    c-66.5,7.3-125.2,25.3-174,58.7c-32.2,22-72.3,32.7-115.3,39.3c-12.2,1.9-24.4,3.5-36.7,5.2c-4.5,0.6-9,1-13.3,1    c-7.6,0-14.7-1.2-20.7-4.2c-5.9-3.1-10.8-8.1-13.9-15.9c-3.7-9.5-5.7-18.3-5.7-26.4c0-10,3.1-19,10.2-27c7.1-8,18.1-15.1,34-21.4    c16.2-6.4,31.9-13.4,47.1-20.9c14.5-7.1,24.7-16,31.7-26c7-10,10.8-21.2,12.7-32.9c2-13,3.5-26.3,3.5-39.4    c0-4.9-0.2-9.9-0.7-14.8c-2.6-28.5-3.7-57.7-21.7-84.7c-3-4.5-6-7.8-9.6-10.1c-3.5-2.2-7.7-3.3-12.5-3.3h-0.1    c-4.6,0-9.8,0.9-16.2,2.5c-32.5,8.4-56.7,24.7-78.4,42.9c-20.9,17.6-40,36.2-62,52.8c-30.6,23.1-66.8,41.7-106.7,55.9    c-47.7,17-85.2,42-119.3,70.2c-5.5,4.5-12.4,8.3-18.9,12.5c-22.9,15-41.3,32.4-57.6,51.2c-7.5,8.7-16.7,14.9-27.6,18.9    c-10.9,4.1-23.6,6-38.4,6l-0.3,0c-31.6-0.1-61.9-2.7-90.4-11.9c-7.8-2.5-13.3-5.5-16.8-8.8c-3.5-3.3-5.2-6.8-5.2-10.5    c0-5.4,3.7-11.2,10.6-16.5c2.2-1.7,3.9-3.7,5.9-5.1c44-31.9,87.9-64,132.2-95.7c14.1-10.1,29.5-19.3,43.9-29.2    c21.6-15,30.6-33.9,31.2-54.8c0.3-10.3,0.7-20.7,0.7-31c0-8.1-0.2-16.2-0.8-24.2c-1.9-25.1-5.6-50-8.5-75c-2-16.6-3.5-33.3-6-50    c-5.6-37.5-6.5-75.4-19-112.5c-1.4-4.1-2-8.1-2-11.8c0-8.1,3.1-15.2,8.6-20.4c5.5-5.2,13.3-8.5,23.1-9.1    c5.5-0.3,11.1-0.6,16.6-0.6c13.1,0,26.1,1.2,38.5,4.5c24,6.4,47.8,13.5,72,19.7c20.7,5.2,41.2,7.9,61.5,7.9h0    c25.7,0,51-4.3,76.1-13c17.3-6,34.7-12,52.7-16.5c12.7-3.2,22.9-4.7,31.4-4.7h0c11.6,0,19.8,2.7,26.6,7.6    c6.8,5,12.2,12.3,17.6,21.4c9.9,16.9,13.7,34.4,13.7,52.2c0,9.3-1,18.8-2.8,28.4c-2.2,12.2-3.6,24.4-3.6,36.5    c0,27.4,7.2,54.3,27.9,79.8c3.1,3.9,6.7,7,10.9,9.3c4.2,2.3,8.9,3.7,14.1,4.2c16.5,1.6,30.4,5.7,42.7,11.7    c12.3,6,22.9,13.8,32.7,22.6c22.2,20,44.7,39.9,65.9,60.4c27.8,27,66,41.5,111.2,47c13.8,1.7,27.6,2.5,41.4,2.5    c17.7,0,35.4-1.4,53.1-4.2c18.8-3,33.6-8.6,44.2-16.8c10.6-8.2,17.1-19,19.7-32.1c4.1-21.1,5.7-42.4,9.2-63.5    c6.1-36.6,18.9-70.9,56.6-98.4c29.9-21.9,54-46.9,73.9-74c17.9-24.2,45.1-42.7,74.4-60.2c23.4-13.9,46.1-28.4,69.1-42.6    c10.8-6.6,21.1-13.6,32.3-19.7c14.4-7.9,31.2-9.4,48.8-9.4c2.5,0,5,0,7.5,0.1c0.7,0,1.5,0,2.2,0h0.1c22.6,0,41.7-6.7,56-19.1    c6.7-5.9,10.1-12.2,10.1-18c0-4.2-1.7-8.1-5-11.5c-3.3-3.4-8.1-6.2-14.4-8.2c-7.8-2.4-16.9-3.2-25.4-3.2h-0.2    c-13.8,0-27.4,1.2-41,1.9c-1.1,0.1-2.2,0.1-3.3,0.1c-7,0-13-1.2-18.3-3.5c-5.3-2.2-9.9-5.5-13.9-9.7    c-10.9-11.5-17.4-24.3-18.7-38c-1.6-18-1.6-36.1-3.2-54.1c-2.1-22.4-16.3-41.8-30.9-60.8c-10.9-14.1-23-27.6-33.5-41.7    c-11.7-15.6-15.6-33-17.5-50.6c-4.7-42.9-7.7-85.9-22-128.2c-4.6-13.7-8-27.4-8-41.1c0-10,1.8-20.1,6-30.2    c9.5-22.5,26.5-42,47.1-59.9c23.7-20.5,48.4-40.5,73.3-60.4c27.1-21.6,60.3-36.6,99.1-45.6c15.1-3.5,30.6-6.5,45.5-10.5    c15.9-4.4,28.6-11,39.2-19.1c6.8-5.2,12.7-11.1,18-17.4h-3.2c-5,5.8-10.5,11.2-16.8,16c-10.3,8-22.7,14.4-38.1,18.6    c-14.8,4-30.2,7-45.4,10.5C2096.2-363.7,2062.5-348.4,2035.1-326.6z"></path>		</g>		<g>			<path class="st5" d="M-664.1,677.3c31.6,7.5,60.1,18.7,83.1,36.1c45,33.8,97.1,61.9,146.6,91.9c37.8,22.9,73.4,47.7,108.7,72.7    c30.6,21.6,67.3,34.7,108,42.7c39,7.7,78.1,15.2,117.5,21.8c24.7,4.2,45.6,11.2,63,21.3c17.4,10.1,31.3,23.2,41.8,39.6    c15.6,24.3,40.1,43.5,74,55.6c22.5,8,45.4,12,68.2,12c22.1,0,44.3-3.7,66.4-10.9c23.2-7.6,46.6-15.5,63.7-30.3    c16.9-14.5,25.7-30.5,25.7-47.7c0-6.4-1.2-13-3.7-19.8c-7.4-20.3-15-40.7-25.3-60.4c-8.8-16.9-26.7-30.1-47.3-39.9    c-59.1-28.4-94.9-69-122.6-114.3c-29.5-48.3-43.8-100-63.1-150.8c-9.2-24.2-18-49.1-41.7-68.8c-14.1-11.8-31.3-21.8-48.4-31.4    c-25.8-14.5-52.9-27.8-79.1-41.8c-28.2-15.1-58.3-23.2-92.1-23.2c-9.1,0-18.4,0.6-28,1.7c-15.3,1.9-30.7,3.2-45.7,3.2    c-30.1,0-58.7-5.3-83.7-22.2c-12.3-8.3-25.3-16.2-38.2-24c-24.3-14.7-51.2-24.8-84.3-27.8c-7.9-0.7-15.7-1-23.5-1    c-22.4,0-44.3,2.3-66.5,3.2c-18.6,0.7-37.3,1.2-56.1,1.2c-17,0-34-0.4-50.9-1.3c-35.8-1.9-71.6-6.3-107-11.3    c-11.9-1.7-22.2-4.7-31-9v2.4c8.8,4,18.9,6.9,30.5,8.5c35.4,5,71.3,9.4,107.3,11.3c16.9,0.9,34,1.3,51.1,1.3    c18.8,0,37.5-0.5,56.2-1.2c22.3-0.9,44.1-3.2,66.3-3.2h0c7.7,0,15.4,0.3,23.1,1c32.5,2.9,58.8,12.8,82.9,27.3    c12.9,7.8,25.8,15.6,38.1,23.9c25.6,17.3,55.1,22.7,85.5,22.7h0.1c15.3,0,30.7-1.3,46.2-3.2c9.5-1.1,18.6-1.7,27.5-1.7    c33.2,0,62.6,7.8,90.5,22.8c26.3,14.1,53.3,27.4,79,41.8c17.1,9.6,34.1,19.6,48,31.2c23.2,19.3,32,43.8,41.2,68.1    c19.3,50.6,33.6,102.4,63.3,151c27.8,45.4,63.8,86.5,123.5,115.1c20.2,9.7,37.7,22.6,46.2,39c10.2,19.6,17.8,39.9,25.2,60.2    c2.4,6.6,3.6,13,3.6,19.3c0,16.8-8.5,32.2-25.1,46.5c-16.7,14.4-39.6,22.2-62.8,29.8c-21.7,7.1-43.5,10.7-65.2,10.7    c-22.5,0-44.8-3.9-67-11.8c-33.3-11.9-57.4-30.7-72.7-54.6c-10.6-16.6-24.8-30-42.6-40.3c-17.8-10.3-39.2-17.5-64.1-21.7    c-39.3-6.7-78.4-14.1-117.4-21.8c-40.4-7.9-76.6-20.8-106.8-42.2c-35.3-25-71-49.8-108.8-72.8c-49.6-30.1-101.5-58.1-146.4-91.8    c-23.5-17.6-52.4-29-84.3-36.6c-27.8-6.6-56.8-11-83.3-19.1c-30.2-9.2-59.2-20.5-88.7-31v2.2c29.1,10.4,57.7,21.5,87.6,30.6    C-720.7,666.3-691.7,670.7-664.1,677.3z"></path>		</g>		<g>			<path class="st5" d="M1316.3-295.1c9.3,8,21.6,14,36.9,17.5c55.2,12.4,103.8,34.3,155.4,52.2c28.4,9.8,55.4,20.6,78.7,35.5    c23,14.7,33.8,32.3,33.8,52.7c0,4.9-0.6,9.9-1.8,15c-4.4,18.6-8.4,37.2-8.4,55.9c0,15.2,2.7,30.4,10.1,45.5    c18.1,36.7,40.1,72.5,85.8,96.9c15.3,8.2,35.2,11.8,52.8,17.1c8.2,2.5,16.8,4.1,24.9,6.4c4.7,1.3,9.3,2.6,12.6,4.6    c1.7,1,3,2.1,4,3.4c0.9,1.3,1.5,2.9,1.5,4.9c0,0.2,0,0.4,0,0.7v0c-0.3,3.8-2.4,6.4-5.7,8.5c-3.3,2.1-7.7,3.7-12.4,5.3    c-12.1,4.1-24.6,5.5-37.1,5.5c-11.3,0-22.7-1.2-33.9-2.8c-11.1-1.6-21.8-2.4-32-2.4h0c-21.7,0-41.4,3.5-59.3,10.4    c-17.8,6.9-33.7,17-47.8,30.2c-11.5,10.8-20.4,23.2-28.1,35.5c-5.6,9-8.1,17.8-8.1,26.4c0,15.4,8.1,30.1,21,44.2    c10.3,11.3,20.5,22.9,27.5,35.3c3.8,6.7,5.8,13.3,5.8,19.5c0,10.8-5.9,20.2-18.5,26.7c-11.4,5.8-26.3,9.9-40.2,11.2    c-25,2.3-50.6,1.8-76.1,2.5c-22.5,0.6-45,1.3-67.5,2.1c-14.5,0.5-26.1,3.7-35.1,9.2c-8.9,5.5-15.1,13.2-18.9,22.7    c-5.9,14.9-9.2,29.9-9.2,45c0,10.1,1.5,20.2,4.6,30.4c4.2,13.8,13.4,26.1,27.2,35.7c35.7,24.8,60.5,54.7,84.8,85.3    c18,22.6,39.3,43.9,67.9,60.6c22.6,13.2,47.2,21.3,73.8,21.3h0c13.5,0,27.5-2.1,41.9-6.6c13.8-4.4,24.4-10.9,32.7-18.8    c8.3-7.8,14.4-16.9,19.4-26.4c15.1-28.7,29.8-57.5,44-86.4c8-16.3,21.9-29.8,38.2-42.2c23.7-18.1,46.8-36.4,63.1-58.6    c9.1-12.4,18.7-24.7,26.3-37.6c12-20.4,32.2-36.5,52.6-52.9c13.8-11.1,27.6-22.7,38.1-35.6c10.3-12.5,14.5-25.5,14.5-38.6    c0-12.3-3.7-24.7-9.6-37c-8.3-17.4-17.9-34.5-24.5-52.1c-5.4-14.5-9.6-29.6-10-44.4c-0.5-18.7-8.2-36.3-10.4-54.2    c-0.9-7.3-1.2-14.7-1.2-22c0-9.9,0.6-19.9,1-29.9c0.4-10,3.1-20,4.1-30.1c1.3-12.9,2.1-25.8,2.1-38.6c0-33.6-5.4-66.8-22.3-99.3    c-8.1-15.7-15.1-32.2-17-48.6c-0.2-1.5-0.3-3.1-0.3-4.6c0-13.7,6.8-27.5,18.3-39.4c21.8-22.6,44.3-45,65.9-67.7    c18.5-19.5,39.6-38.4,53.7-59.7c8.7-13.2,20.3-23.4,34.1-31.6c13.9-8.2,30.1-14.5,48.1-19.9c17.4-5.2,34.6-10.7,51.7-16.6h-6.4    c-15.3,5.2-30.7,10.1-46.3,14.8c-18.2,5.4-34.6,11.8-48.8,20.2c-14.1,8.4-26,18.8-34.9,32.3c-13.9,21-34.9,39.8-53.5,59.4    c-21.6,22.7-44.1,45.1-65.9,67.7c-11.7,12.2-18.7,26.3-18.8,40.5c0,1.6,0.1,3.2,0.3,4.8c1.9,16.7,9,33.4,17.2,49.1    c16.7,32.2,22.1,65.2,22.1,98.6c0,12.8-0.8,25.6-2,38.4c-1,10-3.7,20-4.1,30.2c-0.4,9.9-1,19.9-1,29.9c0,7.4,0.3,14.8,1.3,22.2    c2.3,18.2,9.9,35.7,10.4,54.1c0.4,15.1,4.7,30.3,10.1,44.9c6.6,17.7,16.3,34.9,24.6,52.2c5.8,12.2,9.4,24.4,9.4,36.4    c0,12.8-4.1,25.4-14.1,37.6c-10.4,12.6-24,24.2-37.8,35.3c-20.4,16.4-40.9,32.6-53.1,53.4c-7.5,12.8-17.1,25-26.2,37.4    c-16.1,21.9-39,40.2-62.7,58.2c-16.4,12.5-30.6,26.2-38.8,42.9c-14.2,28.9-28.9,57.7-44,86.4c-4.9,9.4-10.9,18.3-19,25.9    c-8.1,7.6-18.3,13.9-31.6,18.1c-14.1,4.5-27.7,6.5-40.8,6.5c-25.8,0-49.8-7.9-72.1-20.9c-28.2-16.5-49.3-37.5-67.2-60    c-24.3-30.6-49.2-60.7-85.3-85.7c-13.4-9.3-22.3-21.2-26.4-34.7c-3.1-10-4.5-20-4.5-30c0-14.9,3.2-29.8,9.1-44.5    c3.6-9.2,9.6-16.6,18-21.7c8.4-5.2,19.4-8.2,33.4-8.8c22.5-0.8,45-1.5,67.5-2.1c25.4-0.7,51.1-0.2,76.4-2.6    c14.4-1.3,29.6-5.5,41.4-11.5c13.4-6.8,19.7-17,19.7-28.3c0-6.5-2.1-13.4-6-20.3c-7.2-12.5-17.5-24.3-27.8-35.6    c-12.7-14-20.5-28.3-20.5-43.2c0-8.3,2.4-16.9,7.9-25.6c7.6-12.3,16.5-24.5,27.8-35.1c13.9-13,29.5-23,46.9-29.7    c17.4-6.7,36.7-10.2,58-10.2c10,0,20.5,0.8,31.5,2.3c11.3,1.6,22.9,2.9,34.5,2.9h0c12.8,0,25.7-1.5,38.3-5.7    c4.7-1.6,9.4-3.2,13.1-5.6c3.7-2.4,6.3-5.6,6.6-9.9v0c0-0.3,0-0.5,0-0.8c0-2.2-0.6-4.1-1.8-5.7c-1.7-2.4-4.5-4.2-7.7-5.6    c-3.2-1.4-6.8-2.4-10.3-3.4c-8.3-2.3-16.9-3.9-24.9-6.3c-17.9-5.4-37.5-9-52.2-16.9c-45-24-66.8-59.4-84.9-96    c-7.3-14.8-10-29.8-10-44.8c0-18.4,4-37,8.4-55.6c1.2-5.3,1.9-10.4,1.9-15.4c0-20.8-11.2-39.1-34.8-54.2    c-23.6-15.1-50.9-26-79.3-35.8c-51.5-17.8-100.1-39.8-155.8-52.3c-14.8-3.3-26.6-9.1-35.6-16.8c-9-7.7-15-17.5-18.2-28.8    c-8.6-31-17.1-62.1-27.8-92.7h-2.8c10.7,30.8,19.3,62,27.9,93.1C1300.8-313.2,1307-303.1,1316.3-295.1z"></path>		</g>		<g>			<path class="st5" d="M-772.8,332.8c23,6,46.6,9.3,70.7,11.6c12.6,1.2,25,1.7,37.4,1.7c29,0,57.6-2.8,86.4-5.8    c25.8-2.7,52.2-4.2,78.4-4.2c3.6,0,7.2,0,10.9,0.1c36.2,0.6,68.2,11.6,97.6,26.5c18.2,9.3,36.2,18.7,54.3,28.1    c18.1,9.3,37.8,11.9,58,11.9h0.1c9.8,0,19.7-0.6,29.5-1.3c23-1.7,46-3.3,69-5.2c13.2-1.1,26.8-1.8,39.8-4.4    c9.4-1.9,16-4.5,20.2-8.5c4.2-4,5.8-9.2,5.8-16.1c0-0.4,0-0.8,0-1.2v0c-0.5-19.4-1.6-38.9-2.9-58.3c-0.1-1.4-0.1-2.7-0.1-4    c0-19.7,9.7-37.2,24.9-53.7C-43,196.3,6.7,142.5,56.9,88.8c21-22.4,42.4-44.7,64.7-66.5C137.2,7,155.2-7.2,171.1-22.6    c16.3-15.8,22.6-34.5,25.2-53.5c4.2-31.5,15.4-60.9,39.1-88.3c17.5-20.2,35.4-40.9,40.7-65.7c0.6-2.7,0.9-5.3,0.9-7.8    c0-12.2-6.7-22.5-19.6-30.4c-24.9-15.3-58-24.6-91.8-24.6h0c-26.9,0-54.3,5.9-78.4,19.2c-19,10.5-36.4,22.4-56,31.9    c-11.9,5.7-25.2,7.6-39.2,7.6c-7,0-14.1-0.5-21.2-1.1c-30.7-2.9-61.6-6.8-92.6-6.9h-0.7c-28.3,0-56.5,4.3-84.6,6.8    c-17.2,1.5-34.2,3-51.1,3c-19.1,0-38.1-1.9-57-7.9c-13.4-4.2-22.7-10.5-28.8-17.9c-6.1-7.4-8.9-15.9-8.9-24.4    c0-9.3,3.3-18.5,9.1-26.4c12.7-17,33.4-28.6,55.5-39.1c28.5-13.5,57.2-26.9,80.9-45c10.4-8,20.2-16.3,29.2-24.9h-3.4    c-8.6,8.1-17.9,16-27.8,23.6c-23.4,17.9-51.8,31.2-80.4,44.7c-22.1,10.5-43.3,22.3-56.4,39.8c-6.1,8.1-9.5,17.7-9.5,27.3    c0,8.8,2.9,17.6,9.2,25.4c6.4,7.7,16.2,14.4,30.1,18.7c19.4,6.1,38.7,8.1,58.1,8.1c17.1,0,34.2-1.5,51.4-3    c28.2-2.5,56.3-6.8,84.2-6.8h0h0.7c30.7,0.1,61.5,4,92.3,6.9c7.2,0.7,14.5,1.1,21.6,1.1h0c14.3,0,28.3-1.9,40.7-7.9    c19.9-9.6,37.3-21.6,56.2-32c23.6-13,50.4-18.8,76.7-18.8c33.1,0,65.6,9.1,90,24.1c12.3,7.6,18.6,17.3,18.6,28.9    c0,2.4-0.3,4.9-0.8,7.5c-5.1,24.3-22.8,44.7-40.3,64.9c-24,27.7-35.3,57.4-39.5,89.1c-2.5,18.8-8.8,37.1-24.7,52.5    c-15.8,15.3-33.8,29.5-49.6,44.9C97.1,43,75.6,65.3,54.6,87.7C4.4,141.4-45.3,195.2-95.2,249c-15.5,16.7-25.4,34.6-25.4,54.8    c0,1.4,0,2.7,0.1,4.1c1.3,19.4,2.4,38.8,2.9,58.3v0c0,0.4,0,0.8,0,1.1c0,6.7-1.6,11.4-5.2,14.9c-3.7,3.5-9.6,5.9-18.7,7.8    c-12.6,2.5-26,3.2-39.3,4.3c-22.9,1.9-46,3.6-69,5.2c-9.8,0.7-19.6,1.3-29.2,1.3c-19.9,0-38.9-2.5-56.4-11.5    c-18.1-9.3-36.1-18.8-54.3-28.1c-29.6-15.1-62.2-26.3-99.1-26.9c-3.6-0.1-7.3-0.1-10.9-0.1c-26.3,0-52.8,1.5-78.8,4.2    c-28.8,3-57.3,5.8-86,5.8c-12.3,0-24.6-0.5-37.1-1.7c-24.1-2.4-47.4-5.6-70.2-11.5c-24.7-6.5-44.3-17.5-54.5-34.1    c-3.3-5.4-6.3-10.8-8.8-16.3v5.9c1.9,3.7,4,7.4,6.3,11.1C-818.3,314.9-798,326.2-772.8,332.8z"></path>		</g>		<g>			<path class="st5" d="M616.2-324c0,8.2,3.6,16.4,9.6,24.4c14.3,19.1,29.2,38,45.6,56.2c22.9,25.4,32.8,53.6,39.4,83    c5.2,23,11.5,46,19.2,68.7c3,8.8,8.5,16.3,15.2,21.6c6.8,5.3,14.9,8.4,23.3,8.4c1.7,0,3.5-0.1,5.2-0.4    c18.2-2.9,36.8-7.1,53.1-13.6c35.5-14.3,57-37.7,75.9-62.4c8.1-10.6,19.1-20.1,29-30.2c5.8-5.8,12.9-9.8,21-12.3    c8.1-2.5,17-3.6,26.4-3.6c0.5,0,0.9,0,1.4,0c28.3,0.3,56.7,2.3,85,4c13.7,0.8,27.5,2.1,40.9,4.2c11.2,1.7,20.4,5.4,27,10.6    c6.6,5.2,10.6,11.8,11.4,19.6c0.3,2.6,0.4,5.1,0.4,7.6c0,15.4-4.8,30.2-12.8,45.2c-15.9,29.7-45.8,51.7-75.1,74.5    c-10.7,8.4-21.9,16.7-30.8,26.2c-9.9,10.5-14.1,21.6-14.1,32.6c0,11,4.2,22,11.2,32.7c23.3,35.8,47.7,71.2,73.5,106.2    c12.7,17.3,32,31.2,52.4,44.4c23.9,15.4,45.3,33,67.8,49.6c7.2,5.3,14.4,11.1,22.6,15.6c8.2,4.5,17.5,7.7,28.7,7.7    c2.3,0,4.6-0.1,7.1-0.4c27.6-3.1,55.2-6.8,80.4-14.2c25.2-7.3,47.9-18.4,65.4-36.2c16.4-16.7,27.6-35.8,40.1-54    c13.2-19.3,34.1-34.1,55.8-48.5c22.8-15.1,46.7-29.3,70.3-43.8c20.8-12.8,30-27.9,30-44.6c0-7.1-1.6-14.4-4.7-22    c-7.7-19.1-16.8-38-23-57.3c-4.5-13.8-6.1-28.2-7.5-42.5c-1.8-17.9-0.4-36.2-3.6-54.1c-2.3-13.2-8.8-24.6-18.8-34.3    c-10-9.7-23.6-17.6-40.2-23.9c-40.3-15.3-79.9-31.6-120.6-46.6c-25.3-9.3-53.1-13.7-81-16.9c-7.9-0.9-15.7-1.8-23.4-3.1    c-13.9-2.5-23.4-6-29.5-11.2c-6.1-5.2-8.9-12.1-8.9-21.8c0-0.8,0-1.6,0.1-2.4c1-23.2,5.2-46.4,5.2-69.7c0-0.4,0-0.8,0-1.1v0    c-0.1-22.5-6.5-44.4-15.7-65.8h-2.9c9.3,21.5,15.7,43.4,15.8,65.8v0c0,0.4,0,0.7,0,1.1c0,23.1-4.2,46.3-5.2,69.6    c0,0.8-0.1,1.7-0.1,2.5c0,9.9,2.9,17.4,9.6,23c6.7,5.6,16.8,9.3,31,11.8c7.8,1.4,15.7,2.3,23.6,3.2c27.8,3.2,55.3,7.6,80.2,16.8    c40.6,14.9,80.2,31.3,120.6,46.6c16.3,6.2,29.5,13.9,39.3,23.3c9.7,9.4,16,20.4,18.3,33.3c3.1,17.7,1.7,35.9,3.5,54    c1.4,14.3,3,28.8,7.6,42.8c6.3,19.4,15.4,38.3,23.1,57.4c3,7.4,4.6,14.6,4.6,21.4c0,16.2-8.8,30.7-29.1,43.1    c-23.6,14.5-47.5,28.7-70.4,43.8c-21.7,14.4-42.9,29.4-56.4,49c-12.5,18.3-23.8,37.4-39.9,53.8c-17.1,17.4-39.3,28.2-64.2,35.5    c-24.8,7.2-52.3,10.9-79.8,14c-2.3,0.3-4.5,0.4-6.6,0.4c-10.5,0-19.1-3-27.1-7.3c-7.9-4.3-15.1-10-22.3-15.4    c-22.5-16.6-43.9-34.2-67.9-49.7c-20.4-13.1-39.3-26.9-51.8-43.9c-25.8-34.9-50.1-70.3-73.4-106.1c-6.8-10.5-10.9-21.2-10.9-31.8    c0-10.7,4.1-21.3,13.7-31.5c8.7-9.3,19.8-17.6,30.5-26c29.2-22.8,59.4-45,75.6-75.1c8.1-15.1,13-30.2,13-45.9    c0-2.6-0.1-5.2-0.4-7.8c-0.8-8.2-5.1-15.3-12.1-20.8c-7-5.5-16.7-9.4-28.4-11.2c-13.6-2.1-27.4-3.4-41.3-4.2    c-28.3-1.7-56.8-3.7-85.2-4c-0.5,0-1,0-1.4,0c-9.6,0-19,1.1-27.5,3.8c-8.5,2.7-16.1,6.9-22.1,13c-9.8,10-20.9,19.6-29.2,30.4    c-18.9,24.6-40.1,47.7-74.9,61.6C809.6-71,791.2-66.9,773.1-64c-1.5,0.2-3.1,0.4-4.6,0.4h0c-7.4,0-14.9-2.8-21.3-7.8    c-6.4-5-11.7-12.1-14.6-20.7c-7.7-22.6-14-45.6-19.1-68.6c-6.6-29.5-16.6-57.9-39.8-83.7c-16.3-18.1-31.2-37-45.5-56.1    c-5.8-7.8-9.2-15.6-9.2-23.4c0-7.5,3.1-14.9,10.4-22.3c7.2-7.3,12.5-15.5,20.7-21.6c19.9-15,33.5-31.7,41.1-50h-2.9    c-7.5,17.7-20.7,34-40.2,48.6c-8.5,6.5-14,14.7-21,21.8C619.5-339.7,616.2-331.8,616.2-324z"></path>		</g>		<g>			<path class="st5" d="M1321.6-355.9c13.2,26.2,39.5,43.6,76.8,52.8c33.1,8.1,66.3,16.1,98.1,26.1c44.9,14.2,82.5,37,121.7,58    c12.2,6.5,24.1,13.4,35.1,20.8c15.3,10.3,22.2,21.9,22.2,34.7c0,6.1-1.6,12.6-4.7,19.4c-9.1,19.9-18.9,39.9-24.7,60.5    c-2,7.1-3,14.4-3,21.8c0,21.8,8.6,44.1,25,62.5c16.3,18.4,40.4,32.9,71.2,39.1c13.4,2.7,26.7,4.1,39.4,4.1h0    c22.1,0,42.5-4.4,59-14.3c16.5-9.9,28.9-25.4,35.3-47.3c3-10.2,4.3-20.2,4.3-30c0-32-14.9-61.8-38.2-90.5    c-7.8-9.6-14.1-19.9-20.6-30.1c-4.2-6.7-6.2-13.2-6.2-19.4c0-11.5,6.6-22.4,17.8-32.5c22.8-20.5,47.5-39.9,70-60.6    c12.8-11.7,24.1-24.5,33.7-37.6c5-6.8,7.5-15.3,7.5-23.1c0-0.4,0-0.8,0-1.2c-0.2-7.9-4.8-14.3-12.6-18.9    c-7.8-4.5-18.9-7.3-32.2-8.1c-39.7-2.6-79.7-3.9-118.7-8.7c-38.4-4.8-76.7-11.7-111.2-25.5c-9.2-3.7-16.6-8.4-21.9-13.9h-3.3    c5.6,6.3,13.7,11.6,23.8,15.6c34.9,14,73.5,20.9,112.1,25.7c39.2,4.9,79.3,6.1,118.9,8.8c13,0.9,23.5,3.5,30.7,7.7    c7.2,4.2,11.3,10,11.6,17.4c0,0.4,0,0.7,0,1.1c0,7.5-2.4,15.7-7.2,22.2c-9.6,13.1-20.7,25.7-33.4,37.4    c-22.5,20.6-47.2,40.1-70,60.6c-11.5,10.4-18.4,21.7-18.4,33.8c0,6.5,2,13.3,6.4,20.2c6.4,10.2,12.8,20.5,20.7,30.2    c23.2,28.5,37.8,57.9,37.8,89.5c0,9.6-1.4,19.5-4.3,29.6c-6.2,21.6-18.4,36.6-34.3,46.2c-15.9,9.6-35.7,13.9-57.3,13.9    c-12.4,0-25.5-1.4-38.7-4.1c-30.1-6-53.6-20.2-69.7-38.3c-16-18.1-24.6-40-24.6-61.5c0-7.2,1-14.4,2.9-21.4    c5.8-20.4,15.6-40.3,24.7-60.3c3.1-6.9,4.8-13.6,4.8-20c0-13.4-7.3-25.6-23.1-36.2c-11.1-7.5-23.1-14.4-35.3-20.9    c-39.1-20.9-76.8-43.8-122.2-58.2c-32-10.1-65.3-18.1-98.3-26.2c-36.7-9.1-62.1-26-75.2-51.6c-9.3-18.3-17-37.1-23.5-56.1    c-0.6-1.7-1.2-3.4-1.7-5.2h-2.8c0.6,1.9,1.2,3.8,1.9,5.7C1304.5-393.2,1312.3-374.3,1321.6-355.9z"></path>		</g>		<g>			<path class="st5" d="M2662.4,1170.4c-3.3-7.4-7.8-15.2-15.1-21c-12.4-9.9-26-19.5-41.2-27.2c-15.2-7.7-25.6-16.9-32.9-27.3    c-7.3-10.4-11.3-22-13.5-34.7c-3.6-20.9-6.5-42.1-20.2-61.8c-12.2-17.7-30.3-30.5-55.2-38.9c-12.3-4.2-24-9.7-36.9-13.4    c-13.5-3.9-24.3-11.6-31.8-21.1c-7.4-9.5-11.4-20.8-11.4-31.7c0-9.6,3.1-18.8,9.6-26.3c7.3-8.3,16.2-13.6,26.4-17.3    c10.2-3.7,21.6-5.9,33.5-8c15.1-2.6,30.3-5,45.5-7.3c11.7-1.7,20.9-5.4,27.9-10.6c7.1-5.2,12-11.8,15.5-19.3    c4.9-10.7,7-21.8,12.1-32.1c12.6-25.5,25.4-50.9,39.6-75.9c13.6-23.9,25.8-48.3,27.4-74.3c0.1-1.8,0.2-3.6,0.2-5.3    c0-30.5-16.2-58-38.3-83.6c-25.6-29.8-41.1-61.4-47.3-96.4c-5.3-30.3-20.6-55.6-44.2-76.4c-23.6-20.8-55.5-37-94.1-49.2    c-33.1-10.5-68.9-14.7-104.6-16.6c-3-0.2-5.9-0.2-8.8-0.2h0c-31.1,0-58.2,9-81.8,24.1c-19,12.2-38.5,24.1-58.7,35.3    c-22.8,12.7-49.2,20.5-77.2,26c-48,9.5-93.6,23.3-136.7,40.8c-35.7,14.5-57.7,38.2-78.9,62.3c-16.7,19-36.5,36.8-57,54.1    c-24.4,20.5-38.1,43.5-38.1,70.2c0,0.5,0,0.9,0,1.3c0.5,29.4,2.5,58.8,2.5,88.1c0,2.5,0,5.1,0,7.6c-0.1,9.6-1.6,19.1-5.6,28    c-3.9,8.9-10.3,17.1-20.3,24.2c-10.7,7.6-23.2,14.4-36.3,19.6c-8.8,3.5-15.3,7.1-19.7,11.4c-4.4,4.2-6.6,8.9-6.5,14.3    c0,6.3,2.9,13.3,8.5,21.6c15.3,22.8,36.2,43.1,64.9,58.6c7.5,4.1,15.4,6.1,23.3,6.1h0c9.9,0,19.7-3.2,28.3-9.2    c8.7-6,17.5-11.8,26.4-17.7c10.2-6.8,22.9-9.7,36-9.7h0c16.8,0,34.1,4.9,47.1,13c17.9,11.1,28,24.6,28,42.4c0,0.2,0,0.3,0,0.5v0    c-0.2,15.8-3.3,31-10.9,45.4c-6.7,12.6-9.5,25.2-9.5,37.8c0,11.8,2.4,23.7,6.4,35.8c3.7,11.3,7.2,22.5,7.2,34.1    c0,4.4-0.5,8.8-1.7,13.4c-2.1,8-6.1,14.3-11.9,19.7c-5.7,5.4-13.2,9.8-22,13.8c-14,6.3-29,11.8-42.5,18.9    c-20.6,10.9-32.7,26.7-41.4,43c-14.8,27.7-41,47.5-75.9,63.1c-17.7,7.9-34.6,17.1-49.9,27.3c-4,2.7-6.6,6.2-8.8,9.8    c-1.6,2.6-3,5.2-4.5,7.7h3c1.4-2.3,2.6-4.7,4-6.9c2.2-3.6,4.7-6.8,8.2-9.2c15.1-10.1,31.9-19.2,49.4-27.1    c35.2-15.7,62.1-35.9,77-64.1c8.6-16.2,20.5-31.6,40.5-42.2c13.2-7,28.2-12.5,42.3-18.9c9-4.1,16.8-8.7,22.8-14.3    c6-5.6,10.2-12.3,12.4-20.6c1.2-4.7,1.7-9.3,1.7-13.7c0-11.9-3.6-23.3-7.3-34.6c-3.9-11.9-6.3-23.7-6.3-35.3    c0-12.4,2.7-24.7,9.3-37.1c7.7-14.7,11-30.1,11.1-46c0-0.2,0-0.3,0-0.5c0-18.3-10.7-32.5-29-43.9c-13.5-8.3-31.4-13.5-49-13.5h0    c-13.6,0-27,3.1-37.8,10.2c-8.9,5.9-17.7,11.7-26.4,17.7c-8.3,5.7-17.4,8.6-26.5,8.6c-7.2,0-14.5-1.8-21.6-5.7    c-28.2-15.3-48.9-35.3-64-57.9c-5.5-8.1-8.2-14.9-8.2-20.8c0-4.9,1.9-9.2,6-13.1c4.1-3.9,10.3-7.4,18.8-10.8    c13.4-5.3,26.1-12.2,36.9-19.9c10.3-7.3,17-15.9,21-25c4.1-9.1,5.6-18.9,5.7-28.6c0-2.5,0-5.1,0-7.6c0-29.4-2-58.8-2.5-88.1    c0-0.4,0-0.9,0-1.3c0-26.2,13.5-48.7,37.5-69c20.5-17.3,40.3-35.2,57.2-54.3c21.2-24.1,43-47.5,78-61.7    c42.9-17.4,88.3-31.2,136.1-40.7c28.2-5.6,55-13.5,78.1-26.4c20.2-11.3,39.7-23.2,58.8-35.4c23.3-14.9,49.7-23.6,80-23.6    c2.8,0,5.7,0.1,8.6,0.2c35.6,1.9,71,6.1,103.7,16.5c38.2,12.1,69.7,28.1,93,48.6c23.3,20.5,38.4,45.4,43.6,75.4    c6.2,35.2,21.8,67.2,47.6,97.2c22,25.5,37.9,52.6,37.9,82.6c0,1.7-0.1,3.5-0.2,5.2c-1.6,25.6-13.6,49.8-27.2,73.6    c-14.3,25.1-27.1,50.5-39.7,76c-5.2,10.6-7.4,21.8-12.1,32.2c-3.3,7.3-8.1,13.6-14.8,18.5c-6.7,4.9-15.3,8.4-26.5,10.1    c-15.2,2.3-30.4,4.7-45.5,7.3c-12,2.1-23.6,4.3-34.1,8.2c-10.5,3.9-20,9.4-27.5,18c-6.8,7.8-10,17.4-10,27.3    c0,11.2,4.1,22.8,11.8,32.7c7.7,9.8,18.9,17.9,33.1,22c12.6,3.6,24.2,9.1,36.7,13.3c24.3,8.2,41.9,20.7,53.9,38    c13.4,19.3,16.3,40.3,19.9,61.2c2.2,12.8,6.3,24.7,13.8,35.3c7.5,10.7,18.3,20.1,33.8,28c14.9,7.6,28.4,17.1,40.7,26.9    c6.8,5.4,11.3,13,14.5,20.3c1.5,3.3,2.1,6.5,2.1,9.7c0,9.9-6.2,19.4-11.9,29.2c-12.7,22.1-29.4,43.4-36.1,67.5h2.8    c6.6-23.5,23.1-44.6,35.8-66.7c5.6-9.7,12.1-19.4,12.1-29.9C2664.7,1177.3,2664,1173.9,2662.4,1170.4z"></path>		</g>		<g>			<path class="st5" d="M2556.4,1161.5c-13.7-5.6-27.6-10.9-41-16.7c-7.7-3.4-12.6-7.3-15.7-11.8c-3.1-4.5-4.3-9.4-4.3-14.8    c0-3.5,0.5-7.1,1.3-10.9c3.4-15.5,6.7-31.2,7.3-46.9c0-0.9,0.1-1.7,0.1-2.6c0-16.8-6.4-29.8-17.5-39.5    c-11.1-9.7-26.7-16.2-44.9-20.3c-22.7-5.1-40.9-13-54.6-23.7c-13.8-10.7-23.2-24.3-28.5-41.1c-4.3-13.6-6.9-27-6.9-40.3    c0-16,3.8-31.9,12.9-47.7c7.2-12.4,17.6-21.7,30.7-28.6c13-6.9,28.7-11.5,46.3-14.6c10.9-1.9,21.6-4.1,32.3-6.2    c21.9-4.3,39.3-13.4,52.1-26.4c32-32.8,59.2-67.4,78.2-105.3c8.2-16.3,12.2-32.3,12.2-47.9c0-26.6-11.5-52.1-33-76.9    c-22.1-25.4-42.5-51.2-51.5-80.8c-5.8-19.3-11.7-39.1-22.4-57.3c-12.7-21.8-30.7-39.3-53.8-52.3c-23.1-13-51.4-21.6-84.7-25.7    c-8.9-1.1-17.6-1.6-26-1.6h0c-41.8,0-76.8,13-108.8,33.2c-21.8,13.7-43.3,27.7-66.1,40.4c-23.1,12.9-51.2,19.6-78.7,27.2    c-40,10.9-81.5,19.5-119.4,35.1c-23.6,9.7-41.2,22.7-52.8,39.4c-17.4,24.9-39.7,47-66,67.4c-16.8,13-26.8,28.9-26.8,46.8v0.6v0    c0.5,39.6,1.4,79.1,3.1,118.7c0.5,10.9,4.1,21.8,7.2,32.4c2.6,9.1,8.4,16.6,16,23.1c7.6,6.5,17,12,26.9,17.1    c27.1,14.1,55.5,27.2,80.2,42.9c24.5,15.6,36.7,36.2,36.7,59.7c0,1.2,0,2.5-0.1,3.7c-1.5,28.2-5.3,56.4-5.3,84.6    c0,2.7,0,5.4,0.1,8c0.8,29.6,11,58.2,27.1,85.8c12.1,20.7,27,40,50.6,55.4c20.1,13.2,44,20.4,71.1,23.3    c11.7,1.3,23.3,1.8,34.9,1.8c21.9,0,43.6-1.8,65.4-3.7c25.8-2.2,52-4.4,77.8-4.4h0c7.3,0,14.5,0.2,21.6,0.6    c11.2,0.6,20.9,1.4,29,2.9c12.2,2.2,21.2,5.7,27.9,12.2c6.7,6.5,11.2,16,14.1,30.2c4.4,22,10.6,43.8,15.9,65.6    c0.4,1.8,0.7,3.7,1,5.6h2.8c-0.3-2-0.5-3.9-1-5.9c-5.3-21.9-11.5-43.6-15.9-65.6c-1.9-9.6-4.6-17.1-8.3-23.2    c-5.5-9.1-13.4-14.7-24.1-18.1c-10.7-3.5-24.1-4.8-41.1-5.8c-7.3-0.4-14.5-0.6-21.9-0.6c-26,0-52.3,2.2-78.1,4.4    c-21.8,1.9-43.4,3.7-65,3.7c-11.5,0-22.9-0.5-34.5-1.7c-26.7-2.9-50-9.9-69.7-22.8c-23.1-15.2-37.8-34.1-49.9-54.7    c-16-27.4-26.1-55.8-26.9-85.1c-0.1-2.7-0.1-5.3-0.1-8c0-28.1,3.8-56.3,5.3-84.6c0.1-1.3,0.1-2.5,0.1-3.8    c0-24-12.6-45.3-37.6-61.2c-25-15.9-53.4-29-80.4-43c-9.8-5.1-19.1-10.5-26.4-16.8c-7.4-6.3-12.9-13.5-15.4-22.2    c-3.1-10.7-6.7-21.4-7.1-32.1c-1.7-39.5-2.6-79.1-3.1-118.6v0c0-0.2,0-0.4,0-0.6c0-17.4,9.7-32.7,26.1-45.5    c26.5-20.6,48.9-42.8,66.4-67.9c11.4-16.3,28.6-29,51.7-38.5c37.5-15.4,78.8-24,119-34.9c27.5-7.5,55.8-14.3,79.4-27.4    c22.9-12.8,44.5-26.8,66.3-40.5c31.7-20,66.1-32.7,107-32.7c8.2,0,16.7,0.5,25.5,1.6c32.9,4,60.7,12.5,83.4,25.3    c22.7,12.8,40.3,30,52.9,51.5c10.5,18,16.4,37.6,22.2,57c9.1,30,29.8,56,51.9,81.4c21.3,24.5,32.6,49.7,32.6,75.8    c0,15.4-3.9,31.1-12,47.2c-18.9,37.6-46,72.1-77.9,104.8c-12.4,12.7-29.3,21.5-50.5,25.7c-10.8,2.1-21.5,4.3-32.3,6.2    c-17.8,3.1-33.9,7.8-47.3,14.9c-13.4,7.1-24.2,16.7-31.6,29.4c-9.3,16.1-13.1,32.2-13.1,48.4c0,13.4,2.6,27,6.9,40.7    c5.3,17,15,31,29.1,42c14.1,11,32.7,19.1,55.8,24.3c17.9,4,32.9,10.3,43.6,19.7c10.6,9.3,16.9,21.8,16.9,38.2c0,0.8,0,1.7,0,2.5    c-0.6,15.6-3.8,31.2-7.2,46.7c-0.8,3.8-1.4,7.6-1.4,11.2c0,5.6,1.3,10.9,4.6,15.7c3.3,4.8,8.7,9.1,16.8,12.6    c13.5,5.9,27.4,11.2,41.1,16.7c13.2,5.4,22,10.9,27.4,16.9c5.5,6,7.7,12.7,7.7,20.6c0,3.5-0.5,7.3-1.3,11.4    c-4.4,22-13.9,43.5-21.6,65.3h2.8c7.6-21.5,17-43,21.5-65c0.8-4.1,1.3-8,1.3-11.7c0-8.1-2.3-15.2-8.1-21.6    C2579,1172.6,2569.8,1167,2556.4,1161.5z"></path>		</g>		<g>			<path class="st5" d="M232.2,437L232.2,437c-6,0-12.1,0.7-18.3,2.3c-19,4.7-34.1,11.8-44.9,21.4c-10.9,9.6-17.4,21.7-19.5,36.4    c-0.6,3.9-0.8,7.8-0.8,11.6c0,21.9,9.5,41.6,30.7,58.9c3.9,3.2,8,5.6,12.7,7.3c4.6,1.7,9.7,2.6,15.3,2.6c1.8,0,3.7-0.1,5.7-0.3    c0.2,0,0.4-0.1,0.5-0.1c0.2,0.1,0.5,0.2,0.7,0.2c0.3,0,0.6-0.1,0.9-0.2c4.6-2.6,9.8-4.9,14.7-7.4c4.9-2.5,9.6-5.2,13.1-8.6    c24.7-24.6,41.8-51.6,41.8-82.6c0-1,0-2.1-0.1-3.2C283.8,453.2,260.3,437,232.2,437z M240.6,560c-3.2,3.1-7.6,5.7-12.4,8.2    c-4.8,2.4-10,4.7-14.7,7.4c-0.2-0.1-0.5-0.1-0.7-0.1c-0.1,0-0.1,0-0.2,0c-1.8,0.2-3.6,0.3-5.3,0.3c-5.2,0-9.8-0.8-14-2.4    c-4.3-1.6-8.2-3.9-11.8-6.9c-20.8-17-30-36.1-30-57.6c0-3.7,0.3-7.5,0.8-11.4c2-14.4,8.4-26.1,18.9-35.4    c10.5-9.3,25.1-16.2,43.7-20.8c5.9-1.5,11.7-2.2,17.4-2.2c26.6,0,48.9,15.3,49.7,36.5c0,1,0.1,2.1,0.1,3.1    C281.9,509,265.1,535.5,240.6,560z"></path>		</g>		<g>			<path class="st5" d="M1482,443.5c-7.9,3.2-13.2,7.3-16.4,12c-3.3,4.7-4.5,9.9-4.5,15.1c0,3.7,0.6,7.5,1.6,11.1    c7.7,28.1,20.6,55.4,43.7,79.5c7.9,8.3,17.2,15,28,19.5c10.8,4.6,23.2,7.1,37.3,7.1c2.1,0,4.2-0.1,6.4-0.2c0.2,0,0.5-0.1,0.6-0.2    c0.2,0.1,0.5,0.2,0.7,0.2c0.1,0,0.2,0,0.3,0h0c19.9-3.4,34.6-10.6,46-19.9c11.4-9.3,19.6-20.8,26.7-32.8    c8.3-14,15.8-28.3,22-42.8c8.6-20.2,27-35.7,47.1-50.4c23.6-17.3,34.6-37.7,37-61.1c1.9-18.6,10-35.8,24.3-51.7    c9.2-10.2,18.3-21,23.3-32.5c1.8-4.2,2.8-8.5,2.8-12.8c0-6.3-2.1-12.5-7.1-18.1c-5-5.6-12.7-10.4-23.7-14c-6.4-2.1-13.1-3-19.6-3    c-12.8,0-25.2,3.7-34.3,9.8c-9.1,6.1-15.1,14.8-15.1,24.6c0,0.3,0,0.6,0,0.8l0,0c0.6,16.2,7.5,32.1,9.3,48    c0.3,2.8,0.5,5.8,0.5,8.8c0,6.7-1.2,13.4-5,18.6c-12.1,16.5-27.3,30.5-46.2,41.1c-18.8,10.6-41.3,17.9-68.2,21.1    c-27,3.2-54.1,6.2-80.7,10.7C1506.1,434.2,1493.6,438.8,1482,443.5z M1600.3,423.3c27.3-3.3,50.2-10.7,69.4-21.5    c19.2-10.8,34.6-25,46.9-41.7c4.1-5.6,5.3-12.6,5.3-19.5c0-3-0.2-6.1-0.6-8.9c-1.8-16.2-8.8-32-9.3-47.9l0,0c0-0.3,0-0.5,0-0.8    c0-9.3,5.6-17.3,14.2-23.1c8.6-5.8,20.3-9.3,32.4-9.3h0c6.2,0,12.4,0.9,18.5,2.8c10.6,3.4,17.9,8,22.5,13.2    c4.6,5.2,6.7,11.1,6.7,17c0,4.1-1,8.2-2.7,12.2c-4.8,11.2-13.9,21.9-23,32c-14.6,16.2-22.8,33.7-24.8,52.6    c-2.4,23.1-13.1,43-36.2,59.9c-20.1,14.7-39,30.5-47.8,51.2c-6.1,14.4-13.6,28.7-21.9,42.6c-7.1,11.9-15.1,23.2-26.2,32.2    c-11.1,9.1-25.2,16-44.6,19.3c-0.2,0-0.3,0.1-0.4,0.1c-0.2-0.1-0.5-0.2-0.7-0.2c0,0-0.1,0-0.1,0c-2.1,0.1-4.1,0.2-6.2,0.2    c-13.7,0-25.5-2.4-35.9-6.8c-10.4-4.4-19.4-10.8-27.1-19c-22.9-23.9-35.6-50.8-43.3-78.8c-1-3.6-1.6-7.2-1.6-10.8    c0-5,1.2-9.9,4.2-14.2c3-4.3,7.9-8.2,15.3-11.2c11.5-4.6,23.7-9.1,36.3-11.2C1546.2,429.6,1573.3,426.6,1600.3,423.3z"></path>		</g>		<g>			<path class="st5" d="M1181.6-79.7c-10.2,22-22.2,43.7-42.4,62.1c-10.7,9.7-23.4,18.6-36.4,27c-19.6,12.6-29.3,27.4-29.3,43.8    c0,6.4,1.5,13,4.3,19.8c17.6,41.7,41,81.9,87,112.7c30.4,20.3,65.1,36.6,106,45.1c9.2,1.9,18.8,2.2,28,3.3c0.1,0,0.1,0,0.2,0    c0.3,0,0.5-0.1,0.7-0.2c0.2,0.1,0.5,0.2,0.7,0.2c0.1,0,0.2,0,0.3,0c17.5-2.4,35.1-4.9,50.5-12.6c22.4-11.2,35.4-27.3,45.7-44.2    c15.5-25.4,39.1-44.2,74.2-57c29-10.6,56.4-23.6,78.6-41.5c16.5-13.3,23.8-28.2,23.8-44.5c0-4.4-0.5-9-1.6-13.6    c-6.3-28.1-12.2-56.3-19.2-84.3c-2.8-11.2-4.3-22.8-7.8-34c-3.5-11.2-9-22.2-19.8-32.2c-12-11.1-27.2-18.4-43.4-25    c-33.6-13.7-66.8-28.1-101.5-40.4c-19.9-7.1-40.5-10.4-61.2-10.4c-19,0-38.2,2.9-57,8.3c-24.1,7-39.1,21.1-46.5,38.9    C1204.4-132.3,1193.7-105.8,1181.6-79.7z M1263.1-195.8c18.5-5.4,37.3-8.1,56-8.1c20.3,0,40.4,3.3,60,10.2    c34.6,12.2,67.7,26.6,101.4,40.3c16.1,6.5,30.9,13.7,42.6,24.5c10.5,9.7,15.8,20.4,19.3,31.4c3.5,11.1,5,22.6,7.8,33.9    c7,28,12.9,56.2,19.2,84.3c1,4.6,1.5,9,1.5,13.3c0,15.8-7,30.2-23.1,43.2c-21.9,17.6-48.9,30.5-77.8,41    c-35.7,13-59.9,32.2-75.5,58c-10.2,16.8-23,32.5-44.7,43.4c-14.8,7.4-31.9,9.9-49.4,12.3c-0.2,0-0.3,0.1-0.5,0.1    c-0.2-0.1-0.3-0.1-0.5-0.1c-9.4-1-18.9-1.4-27.7-3.2c-40.4-8.3-74.8-24.5-104.9-44.6c-45.5-30.4-68.6-70.2-86.2-111.8    c-2.8-6.6-4.2-13-4.2-19.2c0-15.8,9.2-30,28.4-42.3c13.1-8.4,25.9-17.3,36.7-27.2c20.5-18.7,32.6-40.5,42.9-62.7    c12.1-26.2,22.8-52.7,33.9-79.1C1225.5-175.5,1239.8-189,1263.1-195.8z"></path>		</g>		<g>			<path class="st5" d="M1157.1,92.6c0,29.2,22.3,55.8,53.1,72.3c19.6,10.6,41.3,17.1,66,17.1c2.7,0,5.5-0.1,8.3-0.2    c0.2,0,0.4-0.1,0.6-0.1c0.2,0.1,0.5,0.2,0.7,0.2c0.1,0,0.2,0,0.3,0v0c15.1-2.6,26.7-7.9,36.1-14.8c9.4-6.9,16.8-15.3,23.7-24.1    c15.2-19.4,31-38.8,58.3-50.4c17.7-7.6,37.7-12.8,56.9-18.9c8-2.6,17.1-4.2,25-7.5c14.4-6,25.1-13.4,32.4-22.4    c7.2-9,10.9-19.5,11.2-31.4c0.1-2.6,0.1-5.2,0.1-7.8c0-29.2-3.9-58-15.4-86.1c-6.8-16.7-20.5-31-41.3-41.2    c-32-15.6-65.4-29.2-101.4-39.8c-14.6-4.3-28.7-6.4-41.7-6.4h0c-17.1,0-32.7,3.6-45.9,10.1c-13.2,6.6-24,16.1-31.9,28.1    c-19.4,29.5-32.2,60.4-42.3,91.9c-10.3,31.9-18.4,64-39.5,93.5C1161.2,67.3,1157.1,80.2,1157.1,92.6z M1212.5-38.5    c10.1-31.4,22.9-62.1,42.1-91.5c7.7-11.7,18.2-21,31-27.3c12.7-6.3,27.7-9.8,44.3-9.8c12.7,0,26.3,2,40.7,6.3    c35.8,10.6,69.1,24.1,100.9,39.6c20.3,9.9,33.6,23.8,40.2,40.1c11.3,27.9,15.3,56.5,15.3,85.5c0,2.6,0,5.2-0.1,7.8    c-0.3,11.7-3.9,21.8-10.8,30.4c-7,8.6-17.4,15.9-31.4,21.7c-7.5,3.1-16.4,4.7-24.7,7.4c-19.1,6.1-39.1,11.3-57.2,19    c-28,12-44,31.8-59.2,51.2c-6.9,8.8-14.1,17-23.3,23.7c-9.1,6.7-20.2,11.8-34.7,14.3c-0.2,0-0.3,0.1-0.4,0.1    c-0.2-0.1-0.5-0.2-0.7-0.2c0,0-0.1,0-0.1,0c-2.7,0.2-5.4,0.2-8.1,0.2c-23.9,0-45-6.4-64.3-16.7c-30.2-16.2-52-42.3-52-70.8    c0-12.1,3.9-24.7,12.9-37.2C1194,25.6,1202.2-6.7,1212.5-38.5z"></path>		</g>		<g>			<path class="st5" d="M1061.7,503.5c-6.9-2.5-14.4-3.6-22.2-3.6c-3.9,0-8,0.3-12.1,0.8c-9.8,1.2-17.5,4.5-23,9.1    c-5.5,4.7-8.9,10.7-10.3,17.4c-1.2,5.8-2,11.6-2,17.4c0,11.1,3.2,22.1,13.5,32.4c4.3,4.3,9,7.5,14.4,9.6    c5.4,2.1,11.5,3.2,18.4,3.2h0c0.8,0,1.7,0,2.5,0c0.2,0,0.5-0.1,0.7-0.2c0.2,0.1,0.5,0.2,0.7,0.2c0.1,0,0.2,0,0.3,0h0    c14.5-2.1,26.7-8.8,35.4-17.7c8.6-8.8,13.7-19.9,13.7-30.9c0-9.1-3.5-18.2-11.3-26C1074.8,509.9,1068.5,506,1061.7,503.5z     M1075.6,571c-8.3,8.5-20,14.8-33.7,16.9c-0.2,0-0.3,0.1-0.5,0.1c-0.2-0.1-0.5-0.2-0.7-0.2c0,0,0,0-0.1,0c-0.8,0-1.6,0-2.4,0    c-6.5,0-12.1-1-17.1-2.9c-5-2-9.4-4.9-13.5-9c-9.9-9.9-13-20.4-13-31.3c0-5.6,0.8-11.3,2-17.1c1.3-6.5,4.5-12.1,9.6-16.4    c5.1-4.3,12.2-7.3,21.4-8.5c4-0.5,7.8-0.8,11.6-0.8c7.5,0,14.5,1,21,3.4c6.5,2.3,12.4,5.9,17.6,11.1c7.5,7.4,10.8,16.1,10.8,24.8    C1088.8,551.8,1083.9,562.5,1075.6,571z"></path>		</g>		<g>			<path class="st5" d="M1082.2,477.1c-15.5-6.7-32.4-10-49.7-10c-13,0-26.2,1.8-39.1,5.5c-13.7,3.8-22.8,10.3-28.7,18    c-5.9,7.7-8.6,16.6-9.6,25.5c-0.9,7.6-1.4,15.2-1.4,22.8c0,21.6,4.6,43,20.1,63c6.5,8.4,14.7,15.3,24.8,20.1    c10.1,4.8,22.2,7.5,36.5,7.5h0c0.3,0,0.5-0.1,0.7-0.2c0.2,0.1,0.5,0.2,0.7,0.2c0.1,0,0.3,0,0.4,0h0c27.2-5.8,47.5-15.8,62.1-29.1    c14.6-13.3,23.6-29.8,28.4-48.7c1.4-5.6,2.2-11.1,2.2-16.4c0-12.2-3.9-23.3-11.7-33.1C1109.8,492.3,1098,483.9,1082.2,477.1z     M1124.5,551.2c-4.7,18.7-13.6,34.9-27.8,47.8c-14.3,12.9-34,22.7-60.8,28.4c-0.1,0-0.2,0.1-0.3,0.1c-0.2-0.1-0.5-0.2-0.7-0.2    c-13.8-0.1-25.3-2.6-35-7.2c-9.7-4.6-17.6-11.2-23.9-19.4c-15.2-19.6-19.7-40.6-19.7-62c0-7.5,0.6-15.1,1.4-22.7    c1-8.7,3.6-17.3,9.3-24.7c5.7-7.4,14.3-13.4,27.3-17.1c12.7-3.5,25.5-5.3,38.1-5.3c16.8,0,33.2,3.2,48.3,9.7    c15.5,6.7,26.9,14.9,34.5,24.3c7.6,9.5,11.4,20.2,11.4,32.1C1126.6,540.3,1125.9,545.7,1124.5,551.2z"></path>		</g>		<g>			<path class="st5" d="M1588,389.4c-26.2,6.6-53.4,8.3-80.6,11.2c-22,2.3-44.8,3-66.1,7.7c-16.9,3.7-29.8,9.4-38.4,16.8    c-8.7,7.4-13,16.4-13,26.6c0,9.5,3.8,20.1,11.3,31.4c21.7,32.4,47.2,63.5,71.7,94.9c6.6,8.5,14.7,16.7,23.6,24.1    c20.7,17.1,45.9,28.1,77.5,28.1h0c4.2,0,8.6-0.2,13-0.6c0.2,0,0.4-0.1,0.6-0.1c0.2,0.1,0.5,0.2,0.7,0.2c0.1,0,0.3,0,0.4,0h0    c34.1-6.9,56.3-23.6,71.2-45.3c12.3-17.8,25.6-35.6,34.9-54.3c11.6-23.3,32.4-41.8,56.3-58.6c27.9-19.5,47.6-42.2,58.4-68.4    c11.5-28,31-52.5,55.5-75.8c15.4-14.6,26.7-30.6,26.7-48.5c0-6.1-1.3-12.4-4.2-18.8c-6.8-15-20-31.4-38.9-44    c-18.9-12.6-43.6-21.5-73.1-21.5c-1.7,0-3.5,0-5.3,0.1c-21.1,0.8-42.5-0.5-63.5,4.3c-32.1,7.3-54.7,22.2-66.8,44.4    c-4,7.3-5.5,14.7-5.5,22c0,9.9,2.6,19.7,5.3,29.5c3,10.9,8.4,21.5,9.9,32.2c0.3,1.9,0.4,3.8,0.4,5.7    C1650.1,356.6,1628.3,379.2,1588,389.4z M1652.9,332.4c0-1.9-0.1-3.9-0.4-5.9c-1.6-11.1-6.9-21.7-9.9-32.4    c-2.7-9.7-5.3-19.4-5.3-29.1c0-7.2,1.4-14.3,5.3-21.3c11.9-21.7,33.6-36,65-43.2c20.3-4.7,41.5-3.5,62.8-4.2    c1.7-0.1,3.4-0.1,5.1-0.1c28.7,0,52.7,8.6,71.2,21c18.5,12.3,31.5,28.4,38.1,43.1c2.8,6.3,4.1,12.3,4.1,18.2    c0,17.2-10.9,32.9-26.1,47.3c-24.7,23.4-44.4,48.1-56,76.4c-10.6,25.9-30.1,48.2-57.7,67.6c-24,16.8-45.2,35.6-57,59.3    c-9.2,18.6-22.5,36.2-34.8,54.1c-14.8,21.4-36.2,37.5-69.5,44.3c-0.1,0-0.3,0.1-0.4,0.1c-0.2-0.1-0.5-0.2-0.7-0.2    c-0.1,0-0.1,0-0.2,0c-4.4,0.4-8.6,0.6-12.7,0.6c-30.7,0-55-10.6-75.5-27.4c-8.8-7.3-16.8-15.3-23.3-23.7    c-24.5-31.4-50-62.4-71.6-94.7c-7.4-11.1-11.1-21.4-11.1-30.5c0-9.8,4.2-18.3,12.4-25.3c8.2-7,20.6-12.5,37.1-16.1    c20.8-4.6,43.6-5.3,65.7-7.6c27.1-2.8,54.5-4.5,81.1-11.3C1630.1,380.8,1652.9,357.4,1652.9,332.4z"></path>		</g>		<g>			<path class="st5" d="M1268.6,77.6c1.9,2.9,4.6,4.9,8.2,6.3c3.6,1.3,8,2,13.4,2.2c0,0,0.1,0,0.1,0c0.3,0,0.5-0.1,0.7-0.2    c0.2,0.1,0.5,0.2,0.7,0.2c0.3,0,0.5-0.1,0.8-0.2v0c15.1-7.3,31.1-13.9,45.4-22c32.4-18.6,69.6-31.2,107.2-43.1    c15.7-5,26.4-14.4,33-25.1c6.7-10.7,9.5-22.6,9.5-32.8c0-2.4-0.2-4.8-0.5-7c-3.5-25.2-18.2-42.7-39.1-55.3    c-21-12.6-48.2-20.3-76.9-26.1c-12.5-2.5-23-3.8-32.3-3.8h-0.1c-13.1,0-23.6,2.7-33,8c-9.4,5.4-17.6,13.3-26.5,24    c-15.4,18.3-21.9,39.2-26,60.5c-1.7,8.9-2.4,17.7-2.4,26.4c0,27.4,7.2,54.3,14.7,81.1C1266.3,73.4,1267.3,75.7,1268.6,77.6z     M1256.1-36.6c4-21.2,10.6-41.8,25.6-59.7c8.9-10.6,16.9-18.3,25.9-23.4c8.9-5.1,18.7-7.6,31.3-7.6c8.9,0,19.2,1.3,31.5,3.8    c28.6,5.8,55.4,13.5,75.9,25.8c20.5,12.3,34.7,29.2,38.2,53.9c0.3,2.1,0.5,4.4,0.5,6.8c0,9.9-2.7,21.6-9.2,32    c-6.5,10.4-16.7,19.4-31.6,24.1c-37.7,11.9-75.1,24.6-107.8,43.4c-14.1,8.1-30,14.6-45.2,21.9c-0.2-0.1-0.4-0.1-0.6-0.2    c-7-0.3-11.7-1.3-15.1-3.4c-1.7-1-3.1-2.3-4.2-4c-1.2-1.7-2.1-3.8-2.8-6.4c-7.4-26.8-14.6-53.6-14.6-80.7    C1253.7-19.1,1254.4-27.8,1256.1-36.6z"></path>		</g>		<g>			<path class="st5" d="M296.8,423.7c-9.4-6.2-21.3-10.3-35.4-12.5c-7.2-1.1-14.5-1.7-22-1.7c-28,0-57.2,7.5-81.1,19.9    c-23.8,12.4-42.3,29.9-48.7,49.8c-2.6,8-3.6,15.9-3.6,23.7c0,15.1,4,29.8,8.9,44.4c13.3,39.3,41.1,73.3,83.9,100.3    c7.9,5,18.8,7.3,27.9,10.7c0.2,0.1,0.4,0.1,0.6,0.1c0.3,0,0.5-0.1,0.7-0.2c0.2,0.1,0.5,0.2,0.7,0.2c0.1,0,0.2,0,0.3,0    c12.6-1.6,21.3-6.1,27.5-11.9c6.2-5.8,9.9-13,12.9-20.1c16.2-38.3,31.7-76.8,45.4-115.6c4.3-12,7.5-24.2,7.5-36.7    c0-8.3-1.4-16.7-4.9-25.3C313.2,438.3,306.2,430,296.8,423.7z M312.3,510.5c-13.7,38.7-29.2,77.2-45.4,115.5    c-3,7-6.6,14-12.4,19.5c-5.9,5.5-13.8,9.6-25.8,11.1c-0.2,0-0.3,0.1-0.5,0.1c0,0-0.1,0-0.1,0c-9.5-3.5-20.1-5.8-27.4-10.5    c-42.4-26.8-69.9-60.4-83-99.3c-4.9-14.5-8.9-29.1-8.9-43.9c0-7.7,1-15.4,3.5-23.3c6.2-19.3,24.2-36.4,47.6-48.6    c23.4-12.2,52.1-19.6,79.4-19.6h0c7.3,0,14.5,0.5,21.4,1.6c13.7,2.1,25.1,6.1,34.1,12.1c9,6,15.7,14,19.9,24.3    c3.4,8.4,4.8,16.6,4.8,24.7C319.7,486.5,316.5,498.5,312.3,510.5z"></path>		</g>		<g>			<path class="st5" d="M1754.9-129.6c-10.9,0-21.1,3.2-32.3,10c-25.3,15.4-38.3,35.4-40.2,58.9c-0.1,1.2-0.1,2.3-0.1,3.5    c0,15.5,8.4,31.6,23.2,43.9c14.8,12.3,35.9,20.8,61.4,20.8c3.6,0,7.3-0.2,11.1-0.5c0.2,0,0.4-0.1,0.6-0.1    c0.2,0.1,0.5,0.2,0.7,0.2c0.1,0,0.2,0,0.3,0h0c21.8-3.5,37.3-11.9,47.2-22.7c10-10.8,14.4-23.9,14.4-37c0-10.5-2.9-20.9-8.2-30    c-10-17.1-25.6-32.3-50.2-41.2C1772.6-127.5,1763.6-129.6,1754.9-129.6L1754.9-129.6z M1830.4-82c5.2,8.8,8,19,8,29.3    c0,12.7-4.4,25.5-14,35.9c-9.6,10.4-24.4,18.5-45.6,21.9c-0.2,0-0.3,0.1-0.4,0.1c-0.2-0.1-0.5-0.2-0.7-0.2c-0.1,0-0.1,0-0.2,0    c-3.7,0.3-7.3,0.5-10.8,0.5c-24.6,0-45-8.2-59.3-20.1c-14.3-11.9-22.5-27.7-22.5-42.6c0-1.1,0-2.2,0.1-3.4    c1.9-23.1,14.5-42.5,39.3-57.5c10.9-6.6,20.5-9.5,30.6-9.5c8.1,0,16.7,1.9,26.6,5.5C1805.3-113.5,1820.5-98.8,1830.4-82z"></path>		</g>		<g>			<path class="st5" d="M1109.1,459.7c-12.8-5.6-27.6-8.9-43.2-11c-17.7-2.3-35.5-4.4-53.7-4.4c-8.6,0-17.3,0.5-26.1,1.6    c-12.5,1.6-23.1,4.5-31.7,9.1c-8.5,4.6-14.9,10.9-18.8,19.1c-6.3,13.3-10.7,26.9-10.7,41c0,5.8,0.8,11.8,2.5,17.8    c3.2,11.3,1.6,23.4,3.5,35.2c2.1,13.4,5,26.6,10.9,39c5.9,12.5,14.8,24.2,28.9,34.5c15.7,11.5,34.5,17.2,56.1,17.2h0.1    c2.7,0,5.4-0.1,8.1-0.3c0.2,0,0.4-0.1,0.6-0.1c0.2,0.1,0.5,0.2,0.7,0.2c0.1,0,0.2,0,0.4,0h0c28.3-5.5,49.9-16,67-29.4    c17.1-13.4,29.9-29.8,40.6-47.2c9.3-15,13.8-30.2,13.8-45.4c0-17.5-6-34.9-17.8-52.1C1132.8,473.2,1121.9,465.3,1109.1,459.7z     M1141.8,581c-10.7,17.3-23.3,33.5-40.1,46.7c-16.9,13.2-37.9,23.5-65.7,28.9c-0.1,0-0.3,0.1-0.4,0.1c-0.2-0.1-0.5-0.2-0.7-0.2    c0,0-0.1,0-0.1,0c-2.7,0.2-5.3,0.2-7.9,0.2c-21,0-38.8-5.3-54.2-16.6c-13.7-10.1-22.5-21.5-28.3-33.7    c-5.8-12.2-8.7-25.3-10.8-38.6c-1.8-11.6-0.2-23.7-3.5-35.4c-1.7-5.9-2.4-11.7-2.4-17.4c0-13.8,4.3-27.2,10.6-40.4    c3.7-7.8,9.7-13.8,17.8-18.2c8.1-4.4,18.3-7.2,30.5-8.8c8.6-1.1,17.2-1.5,25.6-1.5c17.9,0,35.6,2,53.2,4.3    c15.4,2,29.9,5.3,42.3,10.7c12.4,5.4,22.9,13,30.2,23.8c11.6,16.9,17.5,34.1,17.5,51.2C1155.4,551.3,1150.9,566.2,1141.8,581z"></path>		</g>		<g>			<path class="st5" d="M1175.4,477.3c-4.9-14.6-14.6-25.6-28.1-33.4c-13.5-7.8-30.8-12.3-50.7-14c-42.9-3.7-86.1-6.5-129.3-8.3    c-1.5-0.1-3-0.1-4.5-0.1h0c-15.1,0-27.1,3.3-36,8.6c-8.9,5.4-14.8,12.8-18.1,21.1c-5.9,14.7-10.1,29.6-10.1,44.8    c0,6.3,0.7,12.7,2.3,19.2c3,12.1,2.2,24.8,3.3,37.3c2.6,28.3,6.8,56.5,20.7,83.5c6.5,12.6,15.2,23.7,27.2,32.5    c12,8.8,27.4,15.1,47.1,18c7.8,1.2,15.9,0.8,23.6,1.2c0,0,0.1,0,0.1,0c0.3,0,0.5-0.1,0.7-0.2c0.2,0.1,0.5,0.2,0.7,0.2    c0.1,0,0.2,0,0.3,0h0c31.2-4.1,55.4-14.3,75.5-27.8c20.1-13.5,36.3-30.2,51.6-47.6c15.3-17.4,29-35.7,32.3-56.6    c1.2-7.7,2-15.6,2-23.4c0-4.1-0.2-8.1-0.7-12.1C1183.8,505.7,1180.1,491.3,1175.4,477.3z M1181.5,555.4    c-3.2,20.5-16.6,38.4-31.9,55.8c-15.3,17.3-31.3,33.9-51.1,47.2c-19.8,13.3-43.5,23.2-74.2,27.3c-0.2,0-0.3,0.1-0.5,0.1    c-0.2-0.1-0.4-0.1-0.6-0.2c-7.9-0.3-15.9,0-23.3-1.1c-19.2-2.9-34-9-45.7-17.5c-11.7-8.5-20.2-19.4-26.6-31.8    c-13.7-26.7-18-54.7-20.6-83c-1.1-12.4-0.3-25.1-3.4-37.5c-1.6-6.4-2.3-12.6-2.3-18.9c0-14.9,4.1-29.6,10-44.2    c3.2-8,8.8-15,17.2-20.1c8.4-5.1,19.6-8.2,34.2-8.2c1.4,0,2.9,0,4.4,0.1c43.1,1.8,86.2,4.5,129.1,8.3    c19.5,1.7,36.3,6.1,49.3,13.6c13,7.5,22.4,18.1,27.1,32.3c4.7,14,8.3,28.3,10.1,42.5c0.5,4,0.7,7.9,0.7,12    C1183.5,540,1182.7,547.7,1181.5,555.4z"></path>		</g>		<g>			<path class="st5" d="M1196.4,414.1c-11.4-7.7-27.9-11.4-48.8-11.4c-0.4,0-0.8,0-1.2,0c-17.2,0.1-34.4,1.2-51.5,2    c-6.4,0.3-12.7,0.5-19,0.5c-40.6,0-80.3-5.9-120.1-11.8c-7.9-1.2-16.3-2.4-24.5-2.4c-2.8,0-5.5,0.1-8.2,0.5    c-13.8,1.7-24.5,5.4-31.9,11.2c-7.5,5.8-11.7,13.7-13.1,23.7c-2.7,19.4-5.6,38.9-5.6,58.3c0,1.4,0,2.8,0,4.2    c0.5,20.3,5.5,40.4,8.2,60.5c1.4,10.3,1.6,20.8,3.1,31.2c4.9,33.9,9.3,67.9,27.8,100.2c7.5,13.1,17.6,23.3,30.7,30.2    c13,6.9,28.9,10.4,47.8,10.4h0c4.1,0,8.2-0.2,12.6-0.5c0.2,0,0.4-0.1,0.6-0.1c0.2,0.1,0.5,0.2,0.7,0.2c0.1,0,0.2,0,0.3,0h0    c32.9-5.2,64.5-13.4,89.9-29.6c18.3-11.7,35.2-24.7,50-38.6c21.5-20.1,41.9-40.9,60.1-62.6c9.2-11.1,14.2-24.1,14.2-37.6    c0-0.7,0-1.5,0-2.3c-1.4-34-1.2-68-3.3-102C1214.1,433.2,1207.8,421.8,1196.4,414.1z M1215.7,552.6c0,13.2-4.8,25.8-13.8,36.6    c-18,21.6-38.5,42.4-59.9,62.4c-14.7,13.8-31.6,26.8-49.7,38.3c-24.9,15.9-56,24-88.6,29.2c-0.2,0-0.3,0.1-0.4,0.1    c-0.2-0.1-0.5-0.2-0.7-0.2c0,0-0.1,0-0.1,0c-4.2,0.3-8.3,0.5-12.3,0.5c-18.5,0-33.7-3.4-46.2-10c-12.5-6.6-22.3-16.4-29.7-29.3    c-18.3-31.9-22.7-65.8-27.6-99.7c-1.5-10.3-1.7-20.8-3.1-31.2c-2.7-20.2-7.7-40.3-8.2-60.3c0-1.4,0-2.8,0-4.2    c0-19.3,2.9-38.8,5.6-58.2c1.3-9.7,5.4-17.1,12.4-22.6c7-5.4,17-8.9,30.4-10.6c2.5-0.3,5.1-0.4,7.8-0.4h0c7.8,0,16,1.2,23.9,2.3    c39.8,5.9,79.7,11.8,120.7,11.8c6.4,0,12.8-0.1,19.2-0.5c17.1-0.8,34.2-1.9,51.3-2c0.4,0,0.8,0,1.2,0c20.5,0,36.1,3.7,46.9,10.9    c10.8,7.2,16.8,18.1,17.8,32.8c2.2,33.9,2,68,3.3,102C1215.7,551.1,1215.7,551.8,1215.7,552.6z"></path>		</g>		<g>			<path class="st5" d="M333,411.1c-13.5-11.5-32.8-19.3-56.8-23c-8.4-1.3-17.5-1.9-27-1.9c-30.6,0-65.5,6.3-96.3,16.8    C122,413.6,95.2,428.5,81,445.8c-10,12.2-15.4,24.8-15.4,38.7c0,3.9,0.4,7.8,1.2,11.9c6.4,31.4,16.6,62.1,32.2,91.6    c23,43.6,52.3,85.4,89.4,124.1c5.6,5.8,12,11.2,19.8,15.1c7.8,3.9,17,6.3,27.9,6.3h0c1,0,2.1,0,3.2-0.1c0.2,0,0.5-0.1,0.7-0.2    c0.2,0.1,0.5,0.2,0.7,0.2c0.2,0,0.3,0,0.5-0.1c21-5.6,35.5-14.9,46.2-26.2c10.7-11.3,17.5-24.5,23.3-38    c4.3-10.1,5.7-20.9,6.1-31.4c1.5-38.5,9.7-76.2,25-113.2c8.4-20.2,13.8-40.9,13.8-62.1c0-2.3-0.1-4.6-0.2-6.9    C354.2,437.6,346.5,422.6,333,411.1z M339,524c-15.3,37.2-23.5,75-25.1,113.7c-0.4,10.4-1.8,21.1-5.9,30.9    c-5.8,13.5-12.5,26.5-22.9,37.5c-10.4,11-24.4,19.9-44.8,25.4c-0.1,0-0.2,0.1-0.3,0.1c-0.2-0.1-0.5-0.2-0.7-0.2c0,0-0.1,0-0.1,0    c-1,0-2,0.1-3,0.1c-10.4,0-19-2.3-26.4-6c-7.4-3.7-13.6-8.9-19.1-14.6c-36.9-38.5-66.1-80.2-89.1-123.7    c-15.4-29.3-25.7-59.9-32-91.2c-0.8-4-1.2-7.9-1.2-11.7c0-13.6,5.2-25.7,15-37.7c13.8-16.8,40.2-31.5,70.7-41.9    c30.5-10.4,65-16.6,95.1-16.6h0c9.4,0,18.3,0.6,26.5,1.8c23.5,3.6,42.2,11.2,55.3,22.3c13.1,11.1,20.6,25.7,21.6,43.3    c0.1,2.3,0.2,4.5,0.2,6.8C352.7,483.5,347.3,503.9,339,524z"></path>		</g>		<g>			<path class="st5" d="M-23.1-70.9c-17.2-4-34.2-8.5-51.4-12.4c-13.2-3-24.4-7.4-33.2-13.4c-8.8-6-15.2-13.6-18.7-23.4    c-2.5-7.1-6.3-13.7-12.1-19c-5.8-5.4-13.6-9.5-24.2-11.6c-5.5-1.1-10.9-1.6-16.3-1.6c-12.7,0-25.1,2.5-37.3,5.5    c-44.6,10.8-83.1,29.4-121.9,47.2c-45,20.7-93.6,34.7-145.1,44.5c-12.4,2.3-25,4.5-37,7.8c-12,3.3-23.2,7.9-32.7,15.3    c-15.7,12.1-21.2,27.3-26.6,42.1c-20.4,56.3-55.5,107-108.3,151.6c-16.4,13.8-30,29.1-35.6,47.2c-1.3,4.2-1.9,8.3-1.9,12.4    c0,12.8,6.3,24.5,17.9,33.1c11.6,8.7,28.6,14.3,49.8,15c3.1,0.1,6.2,0.1,9.2,0.1c5.3,0,10.6-0.1,15.8-0.1c0.3,0,0.5-0.1,0.7-0.2    c0.2,0.1,0.5,0.2,0.7,0.2c0.1,0,0.2,0,0.3,0v0c43.6-8.3,86.8-17.5,130.7-24.6c21.6-3.5,44.6-3.8,67.2-4.3    c29.3-0.7,56.5-5.9,82.8-14.8c23.8-8,47.3-16.5,71.9-22.6c21-5.2,43.5-8.3,65.7-10.5c48-4.7,85.2-22.7,113.4-48.7    C-53.8,101.8-19.7,55.1,5.3,5.2C11.2-6.5,15.8-19,16.8-31.4c0.1-1,0.1-1.9,0.1-2.9c0-7.1-2.2-14.4-8.3-20.9    C2.5-61.7-7.6-67.3-23.1-70.9z M14.1-31.5C13.1-19.4,8.5-7,2.7,4.6c-24.9,49.7-58.9,96.2-104.2,138    c-27.9,25.7-64.4,43.3-111.7,48c-22.3,2.2-44.9,5.4-66.2,10.6c-24.8,6.1-48.5,14.7-72.2,22.7c-26,8.8-52.8,13.9-81.7,14.6    c-22.5,0.5-45.7,0.8-67.7,4.4c-44,7.1-87.3,16.3-130.8,24.6c-0.1,0-0.3,0.1-0.4,0.1c-0.2-0.1-0.5-0.2-0.7-0.2    c-5.3,0-10.5,0.1-15.7,0.1h-0.1c-3,0-6.1,0-9.1-0.1c-20.6-0.7-36.8-6.1-47.9-14.4c-11.1-8.3-17.2-19.5-17.2-31.8    c0-3.9,0.6-7.9,1.8-11.9c5.4-17.7,18.8-32.7,35-46.3C-632.8,118-597.5,67-577,10.5c5.4-14.8,10.8-29.6,25.9-41.3    c9.1-7.1,20-11.5,31.7-14.8c11.7-3.3,24.3-5.4,36.7-7.7c51.8-9.8,100.6-23.9,145.9-44.7c38.8-17.8,77.2-36.3,121.3-47    c12.1-2.9,24.2-5.4,36.4-5.4h0c5.2,0,10.4,0.4,15.6,1.5c10,2,17.3,5.9,22.8,10.9c5.5,5.1,9.1,11.4,11.6,18.3    c3.6,10.1,10.3,18.1,19.5,24.4c9.2,6.2,20.8,10.7,34.3,13.8c17.2,4,34.2,8.4,51.4,12.4c15.1,3.6,24.6,8.9,30.4,14.9    c5.8,6.1,7.8,13,7.8,19.8C14.2-33.4,14.1-32.5,14.1-31.5z"></path>		</g>		<g>			<path class="st5" d="M758.5,683.2c22.3-18.2,32.8-39.4,34-63.1c0.2-5,0.4-10,0.4-14.9c0-37.5-6.7-74.5-17.9-111.3    c-4.5-14.8-11.8-27.4-25.3-36.8c-13.4-9.4-32.8-15.4-61.1-17.2c-22.6-1.5-45.3-4.2-67.2-8.4c-6.7-1.3-13.1-1.9-19.3-1.9h0    c-13.7,0-26.2,3.2-37.7,9.7c-43.2,24.4-76.3,54.8-103.2,88.7c-21.1,26.6-33,54.7-33,85c0,3,0.1,6.1,0.3,9.2    c1.8,22.8,1.3,45.8,3.4,68.7c1.4,14.7,3.4,29.7,9,43.8c5.2,13.3,14.3,22.7,26.8,28.9c12.5,6.2,28.5,9.1,47.4,9.4h0    c0.3,0,0.5-0.1,0.7-0.2c0.2,0.1,0.5,0.2,0.7,0.2c0.1,0,0.1,0,0.2,0c51.2-4.9,94.8-23.6,139.7-38.9    C694,721.3,730.3,706.3,758.5,683.2z M516.5,771c-0.2,0-0.4,0.1-0.6,0.1c-0.2-0.1-0.4-0.1-0.7-0.2c-18.6-0.3-34-3.1-45.9-9    c-12-5.9-20.6-14.9-25.7-27.8c-5.5-13.9-7.6-28.8-8.9-43.4c-2.1-22.8-1.6-45.7-3.4-68.7c-0.2-3.1-0.4-6.1-0.4-9.1    c0-30,11.7-57.7,32.6-84.1c26.8-33.8,59.7-63.9,102.5-88.1c11.2-6.3,23-9.3,36.1-9.3c5.9,0,12.1,0.6,18.6,1.8    c22.1,4.2,44.9,7,67.7,8.4c27.9,1.8,46.5,7.7,59.4,16.7c12.9,9,20.1,21.2,24.5,35.8c11.2,36.6,17.9,73.5,17.9,110.8    c0,4.9-0.1,9.9-0.4,14.9c-1.1,23.3-11.4,44-33.3,61.9c-27.8,22.8-63.7,37.6-101.2,50.4C610.3,747.7,567,766.2,516.5,771z"></path>		</g>		<g>			<path class="st5" d="M392.9,437.9c-1.8-15.6-6.5-28.1-16.4-38.5c-9.9-10.4-25-18.6-47.3-25.7c-22.7-7.2-46-10.4-69.8-10.4    c-15,0-30.1,1.3-45.5,3.6c-44.8,6.8-90.1,12.7-130.7,28.8c-27.2,10.7-52.8,23.5-78,36.4c-5.3,2.7-9.2,5.6-11.8,8.7    c-2.6,3.1-3.9,6.5-3.9,10.1c0,4.8,2.2,9.9,6.3,15.6c11.6,16.1,25.5,31.4,34.7,47.9c15.4,27.6,27.7,56,41.6,84.1    c11,22.3,21.7,44.6,33.9,66.6c16.4,29.7,32.8,59.5,51.7,88.4c13.9,21.4,33.8,40.6,65,51.3c10.4,3.6,22.8,3.8,33.9,5.6    c0.1,0,0.2,0,0.3,0c0.3,0,0.5-0.1,0.7-0.2c0.2,0.1,0.5,0.2,0.7,0.2c0.1,0,0.2,0,0.3,0c12.6-2.1,22.5-6.4,30.3-12.1    c7.8-5.7,13.4-12.9,17.4-20.9c14.1-27.9,28-55.9,39.4-84.4c6-15.1,7.8-31.3,9.1-47c2.1-25-0.1-50.2,4-74.8    c3.2-19.9,12.9-39.4,19.8-59.3c7.3-21,14.9-42.2,14.9-64C393.5,444.7,393.3,441.3,392.9,437.9z M375.9,511.6    c-6.9,19.7-16.6,39.3-19.9,59.5c-4,24.8-1.9,50.1-4,74.9c-1.3,15.7-3.1,31.7-9,46.5c-11.3,28.4-25.2,56.4-39.3,84.3    c-3.9,7.8-9.4,14.7-16.8,20.1c-7.4,5.5-16.9,9.5-29,11.6c-0.2,0-0.3,0.1-0.4,0.1c-0.1-0.1-0.3-0.1-0.4-0.1    c-11.4-1.7-23.6-2-33.3-5.4c-30.5-10.5-50-29.3-63.7-50.4c-18.8-28.9-35.2-58.6-51.6-88.3c-12.1-21.9-22.9-44.3-33.9-66.5    c-13.9-28-26.2-56.5-41.6-84.2c-9.3-16.8-23.3-32.1-34.8-48.1c-4-5.5-6-10.4-6-14.7c0-3.3,1.1-6.2,3.5-9.1c2.3-2.8,6-5.5,11-8.1    c25.2-12.9,50.7-25.6,77.7-36.3c40.1-15.9,85.1-21.8,130-28.6c15.2-2.3,30.2-3.5,44.9-3.5c23.5,0,46.3,3.1,68.7,10.2    c22,7,36.6,15,46.1,25c9.5,10,14.1,22.2,15.9,37.5c0.4,3.4,0.6,6.7,0.6,10.1C390.7,469.5,383.2,490.6,375.9,511.6z"></path>		</g>		<g>			<path class="st5" d="M633.1,800.5c39.2-29.5,85.8-52.3,131.1-76.5c29.1-15.5,52.2-34,60.5-60c5-15.7,8.7-31.4,8.7-47.5    c0-7.1-0.7-14.3-2.4-21.6c-2.9-12.5-1.6-25.5-3.4-38.4c-2.9-20.9-6.4-41.7-10.2-62.5c-2.4-13.2-4.7-26.6-9-39.6    c-8.4-25.2-30.1-44.7-54.4-63c-11.6-8.8-20.7-18.2-23.5-30.6c-0.7-3.1-1-6.1-1-9c0-8.7,3.1-16.2,9.3-22.6    c6.2-6.4,15.4-11.5,27.9-15.2c19.4-5.8,39.4-7.7,59.6-7.7c12.1,0,24.4,0.7,36.6,1.6c44.3,3.4,84.3,16.6,124.4,29.9    c16.5,5.5,32,8.1,46.5,8.1h0c14,0,27-2.5,38.6-7.3c11.7-4.8,22.1-11.8,31-20.9c8.5-8.6,12.2-17.3,12.2-26    c0-10.2-5.2-20.3-13.6-30.2c-15.6-18.5-32.8-36.2-46.4-55.3c-11.5-16-17.9-34-28.6-50.7c-16.1-25-34.8-49.1-50.9-74    c-12.1-18.7-18.6-35.1-18.6-50.7c0-20.9,11.5-40.6,37.1-62.8c13.2-11.4,25-23.8,35.2-36.6c4-5.1,6.9-10.8,6.9-16.8    c0-3.6-1-7.3-3.4-11c-7-11.1-21.1-17.4-37.5-17.4h-0.1c-10.5,0-22,2.6-33.2,8c-16.3,7.9-29,19.2-43.1,28.9    c-28.4,19.4-56.2,39.3-85.2,58.2C767.3,24.8,713.9,74.3,694.6,139c-2.6,8.6-3.3,17.4-4.6,26.1c-3,20.8-4.4,41.8-9.5,62.3    c-2.1,8.6-9.6,18-18.5,24.2c-5.8,4-12.4,5.7-19.1,5.7h0c-13.8,0-28-7.7-33.5-19.6c-5.2-11.3-9.2-23.3-10.1-35.1    c-0.6-8.4-0.8-16.7-0.8-25.1c0-10.6,0.3-21.2,0.3-31.9c0-3.2,0-6.4-0.1-9.6c-0.2-10.8-1.9-21.6-2.8-32.3    c-0.3-3.8-0.4-7.6-0.4-11.4c0-28.8,8.3-56.9,16.8-85.1c9.8-32.4,22.1-64.4,31.9-96.9c3.1-10.4,4.7-20.6,4.7-30.6    c0-28.5-12.8-55.3-38.8-79.3c-39.6-36.7-95.7-54.9-157.7-63.7c-5.8-0.8-11.5-1.2-17.1-1.2H435c-22,0-42,6.6-57.4,20.1    c-35.9,31.4-69.8,63.7-95.8,100c-17.6,24.6-28.1,50.6-35.1,77.4c-8.9,34.1-31.1,63.2-61.3,90.2c-24.2,21.6-47.6,43.7-68.9,66.7    c-16,17.3-34.7,32.4-55.8,46.6c-33.7,22.7-63.5,47.9-85.4,77.2C-38,231.7-51.2,250-61.1,269.1c-4.7,9.1-7.1,18.2-7.1,27    c0,16.8,8.5,32.9,24.6,47.6c6.1,5.6,13.2,9.8,21.4,12.8c8.2,2.9,17.5,4.5,27.9,4.6c1.1,0,2.2,0,3.4,0c28.1,0,54.9-4.7,82-7.5    c18.5-1.9,37.2-3.3,55.8-5.3c23.1-2.5,46.1-5.3,69-8.3c16.4-2.2,32.7-3.4,49.1-3.4c15.3,0,30.5,1.1,45.8,3.4    c35.1,5.3,69.7,10.6,102.8,21.3c13,4.2,22.5,11.8,28.8,20.9c6.3,9,9.3,19.4,9.3,28.8c0,2.8-0.3,5.6-0.8,8.2    c-8.7,42-29.9,81.5-48.3,121.7c-7.3,16-12.3,32.5-12.3,49.6c0,0.9,0,1.8,0,2.7c0.4,13,0.7,26,0.7,39c0,10.9-0.2,21.8-0.9,32.7    c-1.2,19-6.6,38-8.1,57.3c-0.8,10.7-2,21.7-2,32.5c0,8,0.6,16,2.5,23.8c3.6,14.9,13.5,26.1,27.3,34.2    c13.8,8.1,31.6,13.2,50.9,16.3c20.7,3.3,42.2,3.1,63.2,4.5c0,0,0.1,0,0.1,0c0.3,0,0.5-0.1,0.7-0.2c0.2,0.1,0.5,0.2,0.7,0.2    c0.1,0,0.2,0,0.3,0c13.6-1.7,27.6-2.8,41.1-5.4C592.3,823.2,615.5,813.7,633.1,800.5z M525.2,831.4c-0.2,0-0.3,0.1-0.5,0.1    c-0.2-0.1-0.4-0.1-0.6-0.1c-21.1-1.4-42.6-1.3-62.9-4.5c-19-3-36.3-8.1-49.7-15.9c-13.4-7.9-22.9-18.5-26.3-33    c-1.8-7.7-2.5-15.5-2.5-23.5c0-10.7,1.1-21.6,2-32.4c1.5-19,6.9-38,8.1-57.3c0.7-10.9,0.9-21.9,0.9-32.8c0-13-0.3-26.1-0.8-39.1    c0-0.9,0-1.8,0-2.6c0-16.9,4.9-33.2,12.2-49c18.4-40.1,39.6-79.7,48.5-122c0.6-2.7,0.8-5.6,0.8-8.5c0-9.7-3.1-20.3-9.6-29.6    c-6.5-9.3-16.4-17.4-30.1-21.8c-33.5-10.8-68.3-16.1-103.4-21.4c-15.5-2.4-31-3.4-46.4-3.4c-16.5,0-33,1.2-49.6,3.4    c-22.9,3-45.9,5.8-68.9,8.3c-18.5,2-37.2,3.4-55.8,5.3c-27.3,2.9-54,7.5-81.6,7.5h0c-1.1,0-2.2,0-3.3,0    c-10.1-0.1-19-1.6-26.8-4.4c-7.8-2.8-14.6-6.8-20.4-12.2c-15.8-14.4-24-30.1-24-46.4c0-8.6,2.2-17.4,6.9-26.3    c9.8-18.9,22.9-37.2,36.4-55.1c21.8-29,51.3-54.1,84.9-76.7c21.2-14.3,40.1-29.5,56.2-47c21.2-23,44.6-45.1,68.7-66.6    c30.4-27.1,52.9-56.6,61.8-91.1c6.9-26.6,17.4-52.5,34.8-76.8c25.8-36.1,59.6-68.3,95.5-99.7c15-13.1,34.1-19.3,55.4-19.3    c5.4,0,11,0.4,16.6,1.2c61.7,8.7,117,26.7,156.1,63c25.6,23.8,38.2,50,38.2,78.1c0,9.9-1.6,19.9-4.7,30.2    c-9.8,32.4-22.1,64.4-31.9,96.9C601,35,592.6,63.3,592.6,92.4c0,3.8,0.1,7.7,0.4,11.5c0.9,10.8,2.6,21.5,2.8,32.2    c0.1,3.2,0.1,6.4,0.1,9.6c0,10.6-0.3,21.2-0.3,31.9c0,8.4,0.2,16.8,0.8,25.2c0.9,12,5,24.2,10.2,35.6c5.9,12.7,20.9,21,36.2,21h0    c7.4,0,14.8-2,21-6.3c9.4-6.5,17-16.1,19.3-25.3c5.1-20.6,6.5-41.7,9.5-62.4c1.3-8.7,2-17.5,4.5-25.9    C716.4,75.3,769.3,26.1,836-17.3c29.1-18.9,56.9-38.8,85.3-58.2c14.3-9.8,26.9-21,42.7-28.7c10.9-5.2,21.8-7.7,31.7-7.7h0    c15.5,0,28.5,5.8,35.1,16.2c2.2,3.5,3.1,6.9,3.1,10.2c0,5.6-2.7,11-6.5,15.8c-10.1,12.7-21.8,25-34.9,36.3    c-25.8,22.4-37.7,42.6-37.7,64c0,16,6.6,32.7,18.8,51.6c16.2,25,34.9,49.1,50.9,74c10.6,16.4,17,34.5,28.6,50.8    c13.7,19.2,31,37,46.5,55.4c8.2,9.7,13.2,19.5,13.2,29.2c0,8.2-3.5,16.5-11.7,24.8c-8.7,8.9-18.8,15.7-30.1,20.3    c-11.3,4.6-23.7,7-37.3,7c-14,0-29.1-2.6-45.3-7.9c-40.1-13.3-80.4-26.6-125.3-30.1c-12.3-1-24.6-1.6-36.9-1.6    c-20.5,0-40.8,1.9-60.6,7.8c-12.8,3.8-22.6,9.2-29.1,15.9c-6.5,6.7-9.8,14.7-9.8,23.7c0,3,0.4,6.1,1.1,9.4    c2.9,12.9,12.4,22.8,24.2,31.7c24.1,18.2,45.5,37.5,53.7,62.1c4.3,12.9,6.5,26.2,8.9,39.4c3.8,20.8,7.3,41.6,10.2,62.4    c1.8,12.7,0.5,25.8,3.4,38.5c1.7,7.2,2.4,14.2,2.4,21.3c0,15.8-3.7,31.4-8.7,47c-8.1,25.4-30.7,43.4-59.5,58.9    c-45.2,24.2-92,47.1-131.4,76.7c-17.2,12.9-40,22.2-65,27C552.9,828.6,539,829.7,525.2,831.4z"></path>		</g>		<g>			<path class="st5" d="M-628.9,663.7c27.2,7.3,48.3,20.4,67.1,36.1c35.6,29.6,77.4,54.4,120.2,78.5c38.8,21.8,76.8,44.6,112.9,68.7    c40.6,27,88.6,41.5,141.9,49c48.5,6.8,96.7,14.4,145.4,20.6c23.6,3,42.1,9.4,56.4,19c14.3,9.6,24.4,22.5,30.9,38.6    c8.3,20.5,23.6,38.8,51.7,49.5c19.3,7.4,40.1,9.8,61.4,9.8c4.2,0,8.5-0.1,12.7-0.3c0.2,0,0.5-0.1,0.7-0.2    c0.2,0.1,0.5,0.2,0.7,0.2c0.2,0,0.3,0,0.5-0.1c16-4.5,34.3-7,48.3-14.1c10-5,17.1-10.7,21.7-17.1c4.6-6.4,6.7-13.6,6.7-21.6    c0-7.9-2-16.7-5.6-26.4c-10.2-27.4-33.3-49.3-63.6-67c-33.3-19.4-60.9-41.7-81.9-68.5c-19.6-25.1-42.6-48.8-60.7-74.2    c-8.8-12.2-12.3-27-14.8-41.1c-6.1-34.5-7.5-69.6-15.8-104c-8.9-36.8-37.1-65.7-85-84.3c-33-12.8-64.4-27.8-97.1-41.3    c-16.4-6.8-34-9.4-51.8-9.4c-9.9,0-19.9,0.8-29.8,2.1c-14.9,2-29.5,3-43.5,3c-48.7,0-92-12.2-130-38.4    c-23.7-16.4-48.2-32.2-81.5-38.6c-12-2.3-24.6-4-37-4.1c-7.6-0.1-15.2-0.1-22.9-0.1c-16.6,0-33.3,0.2-49.9,0.2    c-12.4,0-24.9-0.1-37.3-0.5c-35.2-1-70.3-4.7-105.7-5.7c-4-0.1-7.9-0.2-11.9-0.2c-20,0-40,1.3-59.9,2v2c20-0.7,40-2,59.9-2    c3.9,0,7.8,0,11.8,0.2c35.2,1,70.3,4.7,105.7,5.7c12.5,0.4,24.9,0.5,37.4,0.5c16.6,0,33.3-0.2,49.9-0.2c7.6,0,15.2,0,22.8,0.1    c12.1,0.2,24.5,1.8,36.3,4.1c32.5,6.2,56.6,21.7,80.2,38.1c38.3,26.6,82.5,39,131.8,39h0.1c14.2,0,28.9-1,44-3    c9.7-1.3,19.6-2.1,29.3-2.1c17.4,0,34.5,2.5,50.4,9.1c32.6,13.5,64,28.5,97.2,41.4c47.2,18.3,74.7,46.6,83.6,82.9    c8.3,34.2,9.7,69.3,15.8,103.9c2.5,14.1,6.1,29.1,15.1,41.7c18.3,25.5,41.2,49.3,60.8,74.3c21.2,27,49.1,49.5,82.6,69    c29.9,17.5,52.6,39.1,62.6,66c3.6,9.6,5.5,18.2,5.5,25.9c0,7.7-2,14.6-6.4,20.7c-4.4,6.1-11.2,11.5-20.9,16.4    c-13.4,6.8-31.4,9.3-47.7,13.8c-0.1,0-0.2,0.1-0.2,0.1c-0.2-0.1-0.5-0.2-0.7-0.2c0,0-0.1,0-0.1,0c-4.2,0.2-8.4,0.3-12.5,0.3    c-21,0-41.2-2.4-60.1-9.6c-27.3-10.4-42.2-28.1-50.4-48.3C42,957.2,31.6,944,16.9,934.1c-14.7-9.9-33.8-16.4-57.8-19.5    c-48.6-6.2-96.9-13.9-145.4-20.6c-53-7.4-100.4-21.8-140.6-48.5c-36.2-24.1-74.2-46.9-113.1-68.8c-42.8-24-84.4-48.8-119.8-78.2    c-19-15.8-40.4-29.1-68.2-36.6c-21.4-5.8-42.9-11.6-64.7-16.6c-51.6-12-99.4-29-142.6-51.7v2.4c43,22.4,90.6,39.2,141.8,51.2    C-671.8,652.2-650.3,657.9-628.9,663.7z"></path>		</g>		<g>			<path class="st5" d="M2032.6,982.3c0.2,27.4,6.7,55.1,30.5,78.5c18.1,17.9,37.6,35.1,57.2,52.1c9.1,8,20.1,13.3,32.2,16.7    c12.1,3.4,25.4,5,39.1,5.6c0,0,0.1,0,0.1,0c0.3,0,0.5-0.1,0.7-0.2c0.2,0.1,0.5,0.2,0.7,0.2c0.1,0,0.2,0,0.3,0    c15.1-2.4,30.6-4.3,45.5-7.4c32.4-6.8,62.1-17.9,89.8-31.4c8-3.9,14.7-9.4,20.9-14.7c6.7-5.7,9.5-11.8,9.5-17.8    c0-7.3-4-14.4-9.8-20.5c-23.9-25.7-29.6-54.4-33-84.1c-2.9-25-8.1-50-8.2-74.9v-0.6c0-26.8,10.3-52.9,27.6-76.8    c7.9-10.9,18.9-19.1,32.2-25.3c13.3-6.2,28.8-10.3,45.7-12.9c15.3-2.4,30.7-4.9,45.6-8.4c22.6-5.4,40.8-14.3,56.2-25.2    c15.4-11,28.2-23.9,39.9-37.6c13.2-15.3,22.5-31.8,30-49c5-11.6,7.5-23.1,7.5-34.4c0-17.7-5.9-34.9-17.2-51.6    c-12.5-18.6-29-35.6-43.7-53.3c-19.7-23.8-29.5-50.3-39.5-76.8c-10.3-27-28.1-51.2-60.8-68.1c-23.7-12.2-48-18.1-72.3-18.1    c-28.2,0-56.2,7.8-83.1,22.3c-21,11.3-39.4,24.9-59,37.3c-26.8,16.9-59,27.7-90.6,39.7c-28.3,10.7-55.4,23.1-82.4,35.3    c-27.4,12.4-43,31.2-51.8,52.5c-12.6,30.3-37.8,54.7-69,76.5c-24.4,17-32.8,38.8-38,61.1c-3.3,14.1-2.9,28.6-3.3,42.8    c0,0.6,0,1.3,0,1.9c0,24.5,12.8,45.8,37.1,63.3c22.3,16.1,44.8,32.1,67.5,47.9c31,21.6,45.9,47.7,48.3,78.5    c0.3,4.6,0.5,9.1,0.5,13.7c0,20.6-2.9,41.2-2.9,61.8C2032.6,981.2,2032.6,981.8,2032.6,982.3z M2038.2,919    c0-4.6-0.1-9.2-0.5-13.8c-2.3-31.1-17.6-57.8-49.1-79.8c-22.7-15.8-45.2-31.8-67.5-47.9c-23.9-17.3-36.3-37.9-36.3-61.9    c0-0.6,0-1.2,0-1.8c0.4-14.3,0-28.6,3.2-42.5c5.2-22.1,13.4-43.4,37.2-60c31.4-21.9,56.9-46.6,69.7-77.3    c8.8-21,24-39.4,50.7-51.4c27-12.2,54-24.6,82.2-35.2c31.5-11.9,63.9-22.8,91.1-39.9c19.7-12.4,38.1-26,58.9-37.2    c26.5-14.3,54-21.9,81.4-21.9c23.7,0,47.4,5.7,70.7,17.7c32,16.5,49.6,40.2,59.8,67c10.1,26.5,19.9,53.1,39.8,77.3    c14.7,17.7,31.2,34.8,43.5,53.2c11.1,16.5,16.9,33.4,16.9,50.7c0,11.1-2.4,22.4-7.3,33.9c-7.4,17.1-16.6,33.4-29.7,48.6    c-11.7,13.5-24.3,26.4-39.5,37.2c-15.2,10.8-33,19.5-55.2,24.8c-14.7,3.5-30,6-45.3,8.3c-17.1,2.6-32.9,6.8-46.6,13.2    c-13.6,6.4-25,14.9-33.1,26.1c-17.5,24.1-27.9,50.5-27.9,77.7c0,0.2,0,0.4,0,0.6c0.2,25.1,5.3,50.1,8.2,75    c3.4,29.7,9.2,58.8,33.5,85c5.5,6,9.3,12.7,9.3,19.5c0,5.6-2.5,11.1-8.8,16.5c-6.2,5.2-12.7,10.6-20.3,14.3    c-27.5,13.4-57,24.4-89.1,31.1c-14.8,3.1-30.2,5-45.4,7.4c-0.2,0-0.3,0.1-0.4,0.1c-0.2-0.1-0.4-0.1-0.7-0.2    c-13.5-0.6-26.5-2.1-38.2-5.4c-11.7-3.3-22.3-8.4-31.1-16.1c-19.6-17.1-39-34.2-57.1-52c-23.2-22.9-29.7-50.2-29.9-77.4    c0-0.5,0-1,0-1.5C2035.3,960.2,2038.2,939.7,2038.2,919z"></path>		</g>		<g>			<path class="st5" d="M457.6,116c-14.4-24.3-20.4-49.9-26.4-75.8c-1.6-6.9-2.6-13.6-2.6-20.3c0-7.3,1.2-14.6,4.1-22    c5.4-13.5,15.9-24.6,29-35.1c20.2-16.1,42.4-31.5,54.8-52.2c4.4-7.4,6.6-14.7,6.6-21.5c0-8.7-3.5-16.6-10.2-23    c-6.8-6.4-16.8-11.3-29.7-13.8c-6.3-1.3-12.7-1.9-19-1.9h-0.1c-17.4,0-34,5.3-46.8,17.7c-16.7,16.2-27,34.7-37.4,53.1    C364.3-51,345.3-24.1,329.2,3.6c-11.2,19.3-17.1,39.7-17.9,60.6c-1.1,28.1-1.6,56.2-3.1,84.3c-1.2,20.8-5.3,41.7-5.3,62.7    c0,1,0,2,0,2.9c0.2,12.2,5,23.7,14.2,33.1c9.2,9.4,22.9,16.7,40.7,20.5c6.1,1.3,12.6,1.6,19.1,1.6c5.5,0,11-0.2,16.4-0.2    c1.5,0,2.9,0,4.3,0.1h0.1c0.3,0,0.5-0.1,0.7-0.2c0.2,0.1,0.5,0.2,0.7,0.2c0.1,0,0.2,0,0.3,0h0c31.7-4.6,57.5-16.3,74-36    c11.4-13.6,16.8-28.4,16.8-44c0-4.5-0.5-9.1-1.4-13.8C484.7,153.7,469,135.3,457.6,116z M471.1,232.3    c-16.1,19.2-41,30.6-72.2,35.1c-0.2,0-0.3,0.1-0.5,0.1c-0.2-0.1-0.4-0.1-0.7-0.2c-1.5,0-2.9-0.1-4.4-0.1c-5.5,0-11,0.2-16.4,0.2    h0h-0.1c-6.4,0-12.6-0.3-18.3-1.5c-17.3-3.7-30.4-10.7-39.3-19.8c-8.9-9.1-13.5-20.2-13.7-32c0-1,0-1.9,0-2.9    c0-20.8,4.1-41.6,5.3-62.6c1.6-28.1,2-56.2,3.1-84.3c0.8-20.7,6.7-40.9,17.7-59.9c16-27.7,35-54.5,50.7-82.4    c10.4-18.5,20.6-36.7,37-52.7c12.3-12,28-16.9,44.7-16.9c6,0,12.1,0.7,18.2,1.9c12.4,2.5,21.8,7.1,28.2,13.1    c6.4,6,9.7,13.5,9.7,21.8c0,6.5-2.1,13.6-6.4,20.7c-12.1,20.3-33.9,35.5-54.3,51.7c-13.3,10.6-24.1,22-29.6,35.8    c-3,7.5-4.3,15-4.3,22.5c0,6.9,1,13.7,2.7,20.7c6,25.9,12.1,51.7,26.6,76.2c11.6,19.5,27.1,37.7,31.1,59    c0.9,4.6,1.3,9.1,1.3,13.5C487.5,204.5,482.2,219,471.1,232.3z"></path>		</g>		<g>			<path class="st5" d="M1545.8,530.8c5.8,4.4,13.5,7.4,23.1,9.1c0.1,0,0.2,0,0.3,0c0.3,0,0.5-0.1,0.7-0.2c0.2,0.1,0.5,0.2,0.7,0.2    c0.2,0,0.3,0,0.5-0.1c24.6-6.2,39.5-21.1,39.5-38.3c0-3.5-0.6-7.1-1.9-10.8c-1.8-5.2-7.1-10-13.8-13.6    c-6.6-3.6-14.7-5.9-22.2-5.9c-0.7,0-1.5,0-2.2,0.1c-9.1,0.6-18.2,3.6-25.2,8c-7,4.3-11.9,10-12.6,15.9c-0.2,1.8-0.3,3.7-0.3,5.6    c0,4.5,0.6,9,1.8,13.4C1536.1,520.8,1540,526.4,1545.8,530.8z M1535.6,495.3c0.6-5.2,5.1-10.4,11.6-14.5    c6.6-4.1,15.2-6.9,23.6-7.5c0.6,0,1.3-0.1,1.9-0.1h0c6.7,0,14.3,2.2,20.5,5.5c6.3,3.4,11.1,7.9,12.7,12.5    c1.2,3.5,1.8,6.9,1.8,10.3c0,16.3-14,30.5-37.6,36.4c-0.1,0-0.2,0.1-0.3,0.1c-0.1-0.1-0.3-0.1-0.4-0.1    c-9.1-1.6-16.4-4.5-21.8-8.5c-5.4-4-9-9.3-10.8-15.7c-1.2-4.2-1.7-8.6-1.7-13C1535.3,498.9,1535.4,497.1,1535.6,495.3z"></path>		</g>		<g>			<path class="st5" d="M40.1-126.1c-22.7-7-45.9-13.5-67.2-22.1c-16.3-6.6-30.8-15.8-45.5-24.6c-24.9-15-52.9-20.8-81.8-20.8h0    c-13.6,0-27.3,1.3-41.1,3.4c-37,5.8-72.8,15.3-108.9,23.6c-30.2,6.9-54.1,20.8-76.8,35.6c-28.5,18.5-59.9,33-97.9,39.1    c-12.2,2-25.2,2.3-38,3.2c-19.5,1.5-39.4,1.7-58.8,4.4c-22.4,3.1-38.7,10.1-49.5,20.4c-10.9,10.3-16.4,23.8-17.6,39.6    c-0.4,4.7-0.5,9.3-0.5,14c0,4.7,0.2,9.5,0.5,14.2c0.2,2.4,0.3,4.8,0.3,7.2c0,37.5-21.5,69.9-51.5,100.4    c-18.5,18.8-39,36.7-55.4,56.5c-14.5,17.5-22.7,36.5-22.7,56.4c0,6.9,1,14,3,21.1c3.6,12.5,13.7,24.1,27.3,33.1    c13.6,9,30.7,15.5,48.6,17.8c12.9,1.7,25.7,2.4,38.5,2.4c23.4,0,46.5-2.6,69.2-7c33-6.4,66.3-10.6,99.8-10.6    c9.1,0,18.3,0.3,27.4,1c28.5,2.1,56.6,8.5,85,13.1c24,3.8,48,7.6,71.9,11.4c0.1,0,0.2,0,0.3,0c0.3,0,0.5-0.1,0.7-0.2    c0.2,0.1,0.5,0.2,0.7,0.2c0.1,0,0.2,0,0.2,0c11.6-1.3,19.8-5.2,25.9-10.3c6-5.2,10-11.7,13.3-18.4c10.7-21.4,30.2-36.9,59.5-46.3    c64.4-20.5,111.6-54.1,146-97.2C-10.1,78.7,34.9,23,78.6-33.2C87.8-45,93.7-57.4,93.7-70.3c0-8.6-2.6-17.3-8.6-26.2    C75.4-111,60.1-120,40.1-126.1z M76.2-34.1C32.5,22-12.5,77.7-57.1,133.5c-34.2,42.8-80.9,76-144.7,96.4    c-29.9,9.5-50,25.6-60.9,47.4c-3.3,6.7-7.2,12.9-12.9,17.8c-5.7,4.9-13.2,8.4-24.2,9.7c-0.2,0-0.3,0.1-0.5,0.1    c-0.1-0.1-0.3-0.1-0.4-0.1c-24-3.8-48-7.6-71.9-11.4c-28.3-4.5-56.4-11-85.4-13.1c-9.3-0.7-18.5-1-27.7-1    c-33.9,0-67.4,4.3-100.5,10.7c-22.5,4.4-45.4,6.9-68.5,6.9c-12.6,0-25.3-0.8-38-2.4c-17.2-2.2-34-8.5-47.2-17.3    c-13.3-8.8-23-20-26.5-32c-2-7-3-13.9-3-20.7c0-19.5,7.9-38.1,22.3-55.4c16.2-19.6,36.7-37.5,55.2-56.3    c30.2-30.7,52-63.4,52-101.6c0-2.4-0.1-4.8-0.3-7.3c-0.3-4.7-0.5-9.4-0.5-14.1c0-4.6,0.2-9.3,0.5-13.9c1.2-15.6,6.6-28.6,17-38.5    c10.4-9.9,26-16.7,47.9-19.7c19.1-2.6,38.9-2.9,58.6-4.4c12.7-0.9,25.7-1.3,38.3-3.3c38.5-6.2,70.4-20.9,99.1-39.6    c22.6-14.7,46.2-28.4,75.8-35.2c36.1-8.3,71.8-17.8,108.6-23.5c13.7-2.1,27.2-3.4,40.5-3.4h0c28.4,0,55.6,5.6,80,20.3    c14.6,8.8,29.2,18.1,45.9,24.8c21.5,8.7,44.8,15.2,67.4,22.2c19.5,6,34.2,14.6,43.6,28.6C88.4-87,91-78.5,91-70.3    C91-57.8,85.2-45.8,76.2-34.1z"></path>		</g>		<g>			<path class="st5" d="M516.2,284.8c9.2-8.9,14.6-20,17.9-31.9c7-25.4,9.4-51,9.4-76.7c0-9.2-0.3-18.4-0.8-27.6    c-1.2-21-7.1-41.7-8.1-62.5c-0.2-3-0.2-6-0.2-8.9c0-29.5,7.3-58.7,16.5-87.5C558.3-33.6,571-56,581-79    c5.3-12.3,9.1-24.7,9.1-37.2c0-9.6-2.2-19.3-7.5-29c-9-16.4-24.6-29.3-44.7-38.8c-25.1-11.9-51.5-21.5-83.5-21.5    c-1.3,0-2.5,0-3.8,0c-19.3,0.4-36.5,4.8-50.3,12.4c-28.6,15.8-50.5,36.3-63.8,60.5c-22.8,41.4-44.1,83.3-66.3,124.8    c-14.3,26.8-29.8,53.3-43.8,80.2c-6.6,12.6-11.8,25.6-16.2,38.6c-4.6,13.6-12.6,24.3-24.3,32.3c-11.7,8-27.1,13.3-46.7,15.9    c-32.9,4.4-64.4,12.1-90.2,28.3c-32.6,20.4-53.3,45.7-60.8,76.5c-0.9,3.6-1.3,7.1-1.3,10.4c0,13.1,6.8,23.4,18.1,30.3    c11.3,6.9,26.9,10.6,44.4,10.6l0.5,0c0.2,0,0.4,0,0.7,0c11.9,0,23.8,1.3,35.9,2c0,0,0.1,0,0.1,0c0.3,0,0.5-0.1,0.7-0.2    c0.2,0.1,0.5,0.2,0.7,0.2c0.1,0,0.2,0,0.3,0c4.8-0.7,9.5-2,13.8-2h0.1l0.5,0h0c2.2,0,4.3,0.1,6.5,0.1c31.7,0,62-5.1,90.9-13.9    c15.4-4.7,30.8-7,46.2-7c13.6,0,27.2,1.8,41,5.1c30.3,7.4,61.6,13.1,93.5,13.1c2.3,0,4.5,0,6.8-0.1c29.6-0.8,59.4-4.5,88.2-9.2    C494,300.3,507,293.7,516.2,284.8z M387.4,310.5c-2.2,0.1-4.5,0.1-6.7,0.1c-31.5,0-62.4-5.6-92.6-13c-14-3.4-28-5.2-41.9-5.2h0    c-15.8,0-31.5,2.3-47.2,7.1c-28.6,8.8-58.5,13.8-89.8,13.8c-2.1,0-4.3,0-6.4-0.1l0,0c-0.2,0-0.4,0-0.6,0c-5,0-9.8,1.4-14.4,2    c-0.2,0-0.3,0.1-0.5,0.1c-0.2-0.1-0.4-0.1-0.6-0.2c-11.9-0.7-24-2-36.1-2c-0.2,0-0.5,0-0.7,0l-0.5,0c-17,0-32-3.5-42.6-10.1    c-10.7-6.6-17.1-16.2-17.1-28.8c0-3.2,0.4-6.5,1.3-10.1c7.5-30.3,27.8-55.2,59.9-75.3c25.3-15.8,56.2-23.4,88.9-27.8    c19.9-2.7,35.9-8.1,48-16.4c12.1-8.3,20.4-19.4,25.1-33.3c4.4-13,9.6-25.9,16.1-38.4c14-26.9,29.4-53.4,43.8-80.2    C295-48.8,316.3-90.6,339-132c13.1-23.8,34.7-44,62.9-59.6c13.3-7.3,29.9-11.6,48.7-12c1.2,0,2.5,0,3.7,0    c31.2,0,57.1,9.4,82,21.2c19.7,9.4,34.9,21.9,43.7,37.9c5.2,9.5,7.3,18.9,7.3,28.3c0,12.2-3.6,24.4-8.9,36.6    c-10,22.9-22.7,45.4-30.3,68.9c-9.2,28.8-16.6,58.2-16.6,87.9c0,3,0.1,6,0.2,9c1.1,21,7,41.7,8.1,62.5c0.5,9.2,0.9,18.4,0.9,27.5    c0,25.6-2.4,51.1-9.4,76.3c-3.2,11.8-8.5,22.6-17.4,31.1c-8.9,8.5-21.2,14.8-38.9,17.7C446.3,306.1,416.7,309.8,387.4,310.5z"></path>		</g>		<g>			<path class="st5" d="M178.7-194.2c6.9-6.7,9.6-14.3,9.6-21.8c0-2.7-0.3-5.4-0.9-8.1c-1.1-5.1-5.1-8.9-10.5-11.3    c-5.4-2.5-12.1-3.6-18.9-3.6c-9.2,0-18.6,2.1-25.2,6.2c-10.2,6.3-19.4,13.9-26.7,22c-8.3,9.1-17.6,15.6-28.3,19.8    c-10.7,4.2-22.7,6.1-36.4,6.1c-5.7,0-11.7-0.3-18-1C-6-189-31.6-198.4-58-206.6c-25-7.8-51.2-12.5-77.4-12.5h-1.2    c-29.1,0.2-58.2,5-86.8,8.8c-39.6,5.4-79.5,7.3-119.5,7.3c-9,0-18-0.1-27-0.3c-2.2,0-4.6-0.5-7-0.9c-2.4-0.5-5-0.9-7.7-1    c-2.8-0.1-5.3-0.1-7.7-0.1c-6.3,0-11.3,0.2-15.6,1c-3.2,0.6-6.1,1.5-8.6,2.8c-3.8,2-7,4.8-10.2,8.8c-3.2,4-6.5,9.3-10.5,16.1    c-5.4,9.3-11.9,17.8-20.4,24.9c-8.5,7.1-19.2,12.7-33.2,16.1c-8.2,2-16.4,4.4-24.7,5c-16.3,1.3-32.7,2.1-49.1,2.1h-0.3h-0.3h0    h-0.3c-34.2,0-65.2,8.1-91.1,22.6c-18.1,10.2-33.1,23.8-45.8,37.5c-9.6,10.3-12.9,21.6-12.9,33.2c0,7.4,1.4,14.9,3.3,22.4    c3.3,12.7,7.1,25.4,7.1,38c0,8-1.5,16-5.7,23.9c-7.3,13.9-15.7,27.7-26.4,40.4c-21.5,25.3-43.9,50.4-58.3,78.4    c-9.8,19-15.6,38.2-15.6,57.5c0,15.6,3.8,31.4,12.2,47.3c7.2,13.6,18.4,23.4,32.3,30.6c13.9,7.2,30.4,12,48.2,15.6    c17.5,3.6,35.4,4.8,53.2,4.8c9.3,0,18.7-0.3,28-0.8c25.2-1.3,50.5-4,75-8.3c20.8-3.6,41-5.4,60.7-5.4c49,0,95.1,10.7,139.7,30.2    c21.4,9.4,44.2,17.7,67.9,23.7c6.5,1.6,13.4,2,20.5,2c7.2,0,14.5-0.4,21.5-0.4h0c1.2,0,2.4,0,3.5,0h0c0.3,0,0.5-0.1,0.7-0.2    c0.2,0.1,0.5,0.2,0.7,0.2c0.1,0,0.3,0,0.4,0c7.8-1.7,16-2.9,23.6-5.3c13.2-4.1,23.5-9.7,30.9-17c7.3-7.2,11.6-16,12.6-26.4    c2.9-29.1,14.7-54.5,46.1-75.6c51.1-34.4,87.4-77,122.2-119.7C29.3,71.5,71.8,23.2,119.7-22.7c17.8-17,27.1-36.5,27.1-57.8    c0-1.7-0.1-3.5-0.2-5.2c-1-13.5-2.1-27.1-2.9-40.6c-0.1-1.9-0.2-3.8-0.2-5.7c0-16.1,4.4-31.3,18.8-44.7    C168.5-182.3,173-188.6,178.7-194.2z M140.8-131.9c0,1.9,0.1,3.8,0.2,5.8c0.8,13.5,1.9,27.1,2.9,40.6c0.1,1.7,0.2,3.4,0.2,5.1    c0,20.8-9.1,39.9-26.6,56.6c-48,46-90.5,94.3-130.8,143.7c-34.8,42.7-71,85.1-121.7,119.3c-32,21.5-44,47.6-46.9,76.9    c-1,10.1-5.1,18.5-12.1,25.4c-7,6.9-16.9,12.3-29.8,16.3c-7.3,2.3-15.4,3.5-23.3,5.3c-0.1,0-0.2,0.1-0.3,0.1    c-0.2-0.1-0.4-0.1-0.7-0.2c-1.2,0-2.4,0-3.6,0c-7.2,0-14.5,0.4-21.6,0.4h0h0c-6.9,0-13.6-0.4-19.6-1.9    c-23.4-5.9-46.1-14.2-67.4-23.5c-44.8-19.7-91.5-30.5-141.1-30.5c-20,0-40.4,1.8-61.3,5.4c-24.4,4.2-49.6,6.9-74.6,8.2    c-9.2,0.5-18.5,0.8-27.8,0.8c-17.7,0-35.3-1.2-52.4-4.7c-17.7-3.6-33.9-8.3-47.4-15.3c-13.5-7.1-24.3-16.5-31.3-29.8    c-8.3-15.7-12-31.2-12-46.6c0-19.1,5.7-38,15.4-56.8c14.3-27.8,36.6-52.7,58.1-78.1c10.9-12.8,19.2-26.7,26.6-40.7    c4.3-8.2,5.9-16.4,5.9-24.6c0-12.9-3.9-25.7-7.1-38.3c-1.9-7.4-3.3-14.8-3.3-22.1c0-11.3,3.2-22.2,12.5-32.1    c12.7-13.6,27.5-27,45.2-37c25.4-14.3,55.8-22.2,89.4-22.2h0.3h0.6c16.5,0,33-0.8,49.4-2.1c8.7-0.7,17.1-3.1,25.3-5.1    c14.5-3.6,25.6-9.4,34.4-16.7c8.8-7.3,15.3-16,20.9-25.4c7.1-12.1,11.8-19.1,17.5-22.8c2.8-1.9,5.9-3,9.9-3.8c4-0.7,8.8-1,14.9-1    h0c2.3,0,4.9,0,7.6,0.1c2.2,0,4.6,0.5,7,0.9c2.5,0.4,5,0.9,7.7,1c9,0.2,18.1,0.3,27.1,0.3c40.2,0,80.2-2,120.1-7.4    c28.7-3.9,57.6-8.7,86.3-8.8h1.2c25.8,0,51.5,4.7,76.3,12.4c26.3,8.2,52.2,17.6,82.2,20.8c6.4,0.7,12.5,1,18.4,1h0    c14.1,0,26.6-2,37.7-6.4c11.1-4.4,20.8-11.1,29.3-20.4c7.2-7.9,16.2-15.4,26.1-21.6c5.9-3.7,14.7-5.7,23.3-5.7h0h0    c6.4,0,12.6,1.1,17.4,3.3c4.8,2.2,8.2,5.5,9.2,10c0.6,2.6,0.9,5.2,0.9,7.8c0,7.2-2.5,14.3-9,20.6c-5.9,5.8-10.4,12.1-16.3,17.6    C145.3-164,140.8-148.3,140.8-131.9z"></path>		</g>		<g>			<path class="st5" d="M771.1,244.1c8.5,7.8,21.3,13,38.9,16.5c25.9,5.1,52.8,7.8,79.4,10.5c17.1,1.8,34.4,1.6,51.5,2.3    c0,0,0.1,0,0.1,0c0.3,0,0.5-0.1,0.7-0.2c0.2,0.1,0.5,0.2,0.7,0.2c0.1,0,0.2,0,0.3,0l0,0c16.6-2.5,26.9-7.7,33-14.6    c6-6.8,7.8-15.1,7.8-23.8c0-5.2-0.6-10.5-1.3-15.8c-6.9-49.8-42.3-91.5-72.2-134.6c-4.2-6-8.9-11.8-13.2-17.7    c-5.5-7.7-11.4-13.2-17.9-16.8c-6.5-3.6-13.5-5.3-20.8-5.3h0c-11.9,0-24.5,4.3-38,11.5c-33.5,18-49.2,43.7-56.6,72.2    c-4.9,18.8-6.3,37.6-6.3,56.5c0,9.3,0.3,18.7,0.8,28C758.4,226.2,762.5,236.4,771.1,244.1z M766,129c7.3-28.3,22.8-53.4,55.5-71    c13.2-7.1,25.4-11.2,36.3-11.2h0c6.8,0,13.1,1.5,19.2,4.9c6,3.4,11.8,8.7,17.1,16.1c4.3,6,9,11.8,13.2,17.7    c30.1,43.2,65.2,84.7,72,133.9c0.7,5.3,1.3,10.5,1.3,15.6c0,8.5-1.7,16.4-7.3,22.8c-5.6,6.3-15.1,11.2-31.2,13.7    c-0.2,0-0.3,0.1-0.4,0.1c-0.2-0.1-0.4-0.1-0.7-0.2c-17.2-0.7-34.5-0.5-51.2-2.3c-26.6-2.7-53.3-5.5-79-10.5    c-17.3-3.4-29.5-8.5-37.5-15.8c-8-7.3-12.1-17-12.7-29.8c-0.4-9.3-0.8-18.6-0.8-28C759.8,166.3,761.2,147.6,766,129z"></path>		</g>	</g></g></svg>