<?xml version="1.0" encoding="UTF-8"?>
<svg xmlns="http://www.w3.org/2000/svg" xmlns:xlink="http://www.w3.org/1999/xlink" width="20px" height="20px" viewBox="0 0 20 20" version="1.1">
  <title>linkedin</title>
  <g id="Symbols" stroke="none" stroke-width="1" fill="none" fill-rule="evenodd">
    <g id="Footer" transform="translate(-1318.000000, -314.000000)" fill="#d2b48c" fill-rule="nonzero">
      <g id="linkedin" transform="translate(1318.015625, 314.625444)">
        <path d="M2.20622681,4.43336193 C3.42399544,4.43336193 4.41245362,3.42439598 4.41245362,2.20622681 C4.41245362,0.98841813 3.42407555,0 2.20622681,0 C0.988378076,0 0,0.98841813 0,2.20622681 C0,3.42439598 0.988057642,4.43336193 2.20622681,4.43336193 Z" id="Path"></path>
        <path d="M10.3047507,18.3745556 L10.3047507,12.3001721 C10.3047507,10.7005665 10.6082415,9.15427314 12.5888829,9.15427314 C14.5408055,9.15427314 14.5695244,10.9794641 14.5695244,12.4027109 L14.5695244,18.3745556 L18.3749562,18.3745556 L18.3749562,11.6357125 C18.3749562,8.33804813 17.6661967,5.79921103 13.8107371,5.79921103 C11.9572679,5.79921103 10.7149059,6.81638809 10.2062974,7.78025298 L10.1529852,7.78025298 L10.1529852,6.10682748 L6.49931884,6.10682748 L6.49931884,18.3745556 L10.3047507,18.3745556 Z" id="Path"></path>
        <polygon id="Path" points="4.11304828 18.3745556 4.11304828 6.10682748 0.303530923 6.10682748 0.303530923 18.3745556"></polygon>
      </g>
    </g>
  </g>
</svg>
