<?xml version="1.0" encoding="UTF-8"?>
<svg xmlns="http://www.w3.org/2000/svg" xmlns:xlink="http://www.w3.org/1999/xlink" width="22px" height="18px" viewBox="0 0 22 18" version="1.1">
  <title>twitter</title>
  <g id="Symbols" stroke="none" stroke-width="1" fill="none" fill-rule="evenodd">
    <g id="Footer" transform="translate(-1352.000000, -316.000000)" fill="#d2b48c" fill-rule="nonzero">
      <g id="twitter">
        <path d="M1359.40598,333.652924 C1367.32098,333.652924 1371.65152,327.097089 1371.65152,321.407426 C1371.65152,321.220893 1371.65152,321.034281 1371.63818,320.847748 C1372.47764,320.234798 1373.21055,319.47529 1373.79674,318.622536 C1373.02394,318.955627 1372.18448,319.195511 1371.31835,319.288758 C1372.21108,318.755796 1372.89064,317.91634 1373.21047,316.916947 C1372.38427,317.409974 1371.45157,317.769741 1370.47889,317.956274 C1369.69267,317.116817 1368.57343,316.597154 1367.3342,316.597154 C1364.94909,316.597154 1363.03029,318.529249 1363.03029,320.90106 C1363.03029,321.234191 1363.07026,321.567282 1363.13687,321.887075 C1359.56588,321.700503 1356.38121,319.994954 1354.26258,317.383298 C1353.88943,318.022884 1353.67631,318.755756 1353.67631,319.555238 C1353.67631,321.047619 1354.43577,322.366765 1355.59502,323.139611 C1354.88887,323.113015 1354.22257,322.913144 1353.64963,322.593351 L1353.64963,322.646624 C1353.64963,324.738616 1355.12871,326.470801 1357.10078,326.870582 C1356.74105,326.963828 1356.35461,327.01714 1355.96821,327.01714 C1355.68835,327.01714 1355.42187,326.990504 1355.15535,326.95053 C1355.70169,328.656119 1357.28735,329.895317 1359.17948,329.935331 C1357.70039,331.09458 1355.84821,331.77414 1353.8362,331.77414 C1353.47643,331.77414 1353.14334,331.760802 1352.79688,331.720868 C1354.70233,332.946688 1356.96752,333.652924 1359.40598,333.652924 Z"></path>
      </g>
    </g>
  </g>
</svg>
